<?xml version="1.0" encoding="utf-8" standalone="no"?>
<!DOCTYPE svg PUBLIC "-//W3C//DTD SVG 1.1//EN"
  "http://www.w3.org/Graphics/SVG/1.1/DTD/svg11.dtd">
<svg xmlns:xlink="http://www.w3.org/1999/xlink" width="720pt" height="720pt" viewBox="0 0 720 720" xmlns="http://www.w3.org/2000/svg" version="1.1">
 <metadata>
  <rdf:RDF xmlns:dc="http://purl.org/dc/elements/1.1/" xmlns:cc="http://creativecommons.org/ns#" xmlns:rdf="http://www.w3.org/1999/02/22-rdf-syntax-ns#">
   <cc:Work>
    <dc:type rdf:resource="http://purl.org/dc/dcmitype/StillImage"/>
    <dc:date>2023-12-17T13:53:18.123232</dc:date>
    <dc:format>image/svg+xml</dc:format>
    <dc:creator>
     <cc:Agent>
      <dc:title>Matplotlib v3.8.2, https://matplotlib.org/</dc:title>
     </cc:Agent>
    </dc:creator>
   </cc:Work>
  </rdf:RDF>
 </metadata>
 <defs>
  <style type="text/css">*{stroke-linejoin: round; stroke-linecap: butt}</style>
 </defs>
 <g id="figure_1">
  <g id="patch_1">
   <path d="M 0 720 
L 720 720 
L 720 0 
L 0 0 
L 0 720 
z
" style="fill: none"/>
  </g>
  <g id="axes_1">
   <g id="patch_2">
    <path d="M 542.820503 319.822444 
L 576.592831 297.911175 
L 574.563702 284.883434 
L 557.531822 287.003834 
L 542.598887 299.23992 
L 538.670871 314.343362 
L 545.532791 327.098514 
L 557.145556 335.390657 
L 566.411797 339.579991 
L 568.734264 341.243616 
L 563.174238 341.9866 
L 551.522822 342.730155 
L 536.45797 343.602384 
L 520.05731 344.281418 
L 503.467595 344.436066 
L 487.799796 343.864375 
L 475.606026 342.102565 
L 471.80814 337.648833 
L 482.815709 327.424099 
L 512.838334 307.547063 
L 557.008756 276.885442 
L 591.748602 245.411896 
L 563.822775 251.119018 
L 558.740442 254.053305 
L 553.658109 256.987591 
L 548.575775 259.921878 
L 543.493442 262.856164 
L 538.411109 265.790451 
L 533.328776 268.724737 
L 528.246442 271.659024 
L 523.164109 274.59331 
L 518.081776 277.527597 
L 512.999443 280.461883 
L 507.917109 283.39617 
L 502.834776 286.330456 
L 497.752443 289.264743 
L 492.670109 292.199029 
L 487.587776 295.133315 
L 482.505443 298.067602 
L 477.42311 301.001888 
L 472.340776 303.936175 
L 467.258443 306.870461 
L 462.17611 309.804748 
L 457.093777 312.739034 
L 452.011443 315.673321 
L 446.92911 318.607607 
L 542.820503 319.822444 
" clip-path="url(#p8fc4776308)" style="fill: #5d8aa8; opacity: 0.625; stroke: #5d8aa8; stroke-linejoin: miter"/>
   </g>
   <g id="patch_3">
    <path d="M 417.997775 191.178251 
L 415.908224 150.974923 
L 403.611305 146.218329 
L 396.931685 162.02857 
L 400.061979 181.078914 
L 411.177936 192.032396 
L 425.655182 192.467375 
L 438.64277 186.556497 
L 446.903961 180.626364 
L 449.505935 179.446861 
L 447.369365 184.633477 
L 442.187595 195.095677 
L 435.410541 208.578335 
L 427.798273 223.121241 
L 419.637344 237.565679 
L 411.308345 250.848546 
L 403.685688 260.527756 
L 397.9297 261.589956 
L 394.578606 246.944754 
L 392.375899 211.00588 
L 387.907368 157.422363 
L 378.0204 111.6 
L 369 138.638037 
L 369 144.50661 
L 369 150.375182 
L 369 156.243755 
L 369 162.112328 
L 369 167.980901 
L 369 173.849474 
L 369 179.718047 
L 369 185.58662 
L 369 191.455193 
L 369 197.323766 
L 369 203.192339 
L 369 209.060912 
L 369 214.929485 
L 369 220.798058 
L 369 226.666631 
L 369 232.535204 
L 369 238.403777 
L 369 244.27235 
L 369 250.140923 
L 369 256.009496 
L 369 261.878069 
L 369 267.746642 
L 369 273.615215 
L 417.997775 191.178251 
" clip-path="url(#p8fc4776308)" style="fill: #5d8aa8; opacity: 0.625; stroke: #5d8aa8; stroke-linejoin: miter"/>
   </g>
   <g id="patch_4">
    <path d="M 244.177273 234.955807 
L 208.315394 216.663747 
L 198.047603 224.934895 
L 208.399863 238.624736 
L 226.463092 245.438994 
L 241.507064 241.289034 
L 249.12239 228.968861 
L 250.497214 214.76584 
L 249.492164 204.646373 
L 249.771671 201.803246 
L 253.195127 206.246877 
L 259.664773 215.965522 
L 267.952571 228.575952 
L 276.740962 242.439823 
L 285.169749 256.729613 
L 292.508549 270.584171 
L 297.079662 282.025191 
L 295.12156 287.541123 
L 280.762897 283.120655 
L 248.537565 267.058818 
L 199.898612 244.13692 
L 155.271798 229.788104 
L 174.177225 251.119018 
L 179.259558 254.053305 
L 184.341891 256.987591 
L 189.424225 259.921878 
L 194.506558 262.856164 
L 199.588891 265.790451 
L 204.671224 268.724737 
L 209.753558 271.659024 
L 214.835891 274.59331 
L 219.918224 277.527597 
L 225.000557 280.461883 
L 230.082891 283.39617 
L 235.165224 286.330456 
L 240.247557 289.264743 
L 245.329891 292.199029 
L 250.412224 295.133315 
L 255.494557 298.067602 
L 260.57689 301.001888 
L 265.659224 303.936175 
L 270.741557 306.870461 
L 275.82389 309.804748 
L 280.906223 312.739034 
L 285.988557 315.673321 
L 291.07089 318.607607 
L 244.177273 234.955807 
" clip-path="url(#p8fc4776308)" style="fill: #5d8aa8; opacity: 0.625; stroke: #5d8aa8; stroke-linejoin: miter"/>
   </g>
   <g id="patch_5">
    <path d="M 195.179497 407.377556 
L 161.407169 429.288825 
L 163.436298 442.316566 
L 180.468178 440.196166 
L 195.401113 427.96008 
L 199.329129 412.856638 
L 192.467209 400.101486 
L 180.854444 391.809343 
L 171.588203 387.620009 
L 169.265736 385.956384 
L 174.825762 385.2134 
L 186.477178 384.469845 
L 201.54203 383.597616 
L 217.94269 382.918582 
L 234.532405 382.763934 
L 250.200204 383.335625 
L 262.393974 385.097435 
L 266.19186 389.551167 
L 255.184291 399.775901 
L 225.161666 419.652937 
L 180.991244 450.314558 
L 146.251398 481.788104 
L 174.177225 476.080982 
L 179.259558 473.146695 
L 184.341891 470.212409 
L 189.424225 467.278122 
L 194.506558 464.343836 
L 199.588891 461.409549 
L 204.671224 458.475263 
L 209.753558 455.540976 
L 214.835891 452.60669 
L 219.918224 449.672403 
L 225.000557 446.738117 
L 230.082891 443.80383 
L 235.165224 440.869544 
L 240.247557 437.935257 
L 245.329891 435.000971 
L 250.412224 432.066685 
L 255.494557 429.132398 
L 260.57689 426.198112 
L 265.659224 423.263825 
L 270.741557 420.329539 
L 275.82389 417.395252 
L 280.906223 414.460966 
L 285.988557 411.526679 
L 291.07089 408.592393 
L 195.179497 407.377556 
" clip-path="url(#p8fc4776308)" style="fill: #5d8aa8; opacity: 0.625; stroke: #5d8aa8; stroke-linejoin: miter"/>
   </g>
   <g id="patch_6">
    <path d="M 320.002225 536.021749 
L 322.091776 576.225077 
L 334.388695 580.981671 
L 341.068315 565.17143 
L 337.938021 546.121086 
L 326.822064 535.167604 
L 312.344818 534.732625 
L 299.35723 540.643503 
L 291.096039 546.573636 
L 288.494065 547.753139 
L 290.630635 542.566523 
L 295.812405 532.104323 
L 302.589459 518.621665 
L 310.201727 504.078759 
L 318.362656 489.634321 
L 326.691655 476.351454 
L 334.314312 466.672244 
L 340.0703 465.610044 
L 343.421394 480.255246 
L 345.624101 516.19412 
L 350.092632 569.777637 
L 359.9796 615.6 
L 369 588.561963 
L 369 582.69339 
L 369 576.824818 
L 369 570.956245 
L 369 565.087672 
L 369 559.219099 
L 369 553.350526 
L 369 547.481953 
L 369 541.61338 
L 369 535.744807 
L 369 529.876234 
L 369 524.007661 
L 369 518.139088 
L 369 512.270515 
L 369 506.401942 
L 369 500.533369 
L 369 494.664796 
L 369 488.796223 
L 369 482.92765 
L 369 477.059077 
L 369 471.190504 
L 369 465.321931 
L 369 459.453358 
L 369 453.584785 
L 320.002225 536.021749 
" clip-path="url(#p8fc4776308)" style="fill: #5d8aa8; opacity: 0.625; stroke: #5d8aa8; stroke-linejoin: miter"/>
   </g>
   <g id="patch_7">
    <path d="M 493.822727 492.244193 
L 529.684606 510.536253 
L 539.952397 502.265105 
L 529.600137 488.575264 
L 511.536908 481.761006 
L 496.492936 485.910966 
L 488.87761 498.231139 
L 487.502786 512.43416 
L 488.507836 522.553627 
L 488.228329 525.396754 
L 484.804873 520.953123 
L 478.335227 511.234478 
L 470.047429 498.624048 
L 461.259038 484.760177 
L 452.830251 470.470387 
L 445.491451 456.615829 
L 440.920338 445.174809 
L 442.87844 439.658877 
L 457.237103 444.079345 
L 489.462435 460.141182 
L 538.101388 483.06308 
L 582.728202 497.411896 
L 563.822775 476.080982 
L 558.740442 473.146695 
L 553.658109 470.212409 
L 548.575775 467.278122 
L 543.493442 464.343836 
L 538.411109 461.409549 
L 533.328776 458.475263 
L 528.246442 455.540976 
L 523.164109 452.60669 
L 518.081776 449.672403 
L 512.999443 446.738117 
L 507.917109 443.80383 
L 502.834776 440.869544 
L 497.752443 437.935257 
L 492.670109 435.000971 
L 487.587776 432.066685 
L 482.505443 429.132398 
L 477.42311 426.198112 
L 472.340776 423.263825 
L 467.258443 420.329539 
L 462.17611 417.395252 
L 457.093777 414.460966 
L 452.011443 411.526679 
L 446.92911 408.592393 
L 493.822727 492.244193 
" clip-path="url(#p8fc4776308)" style="fill: #5d8aa8; opacity: 0.625; stroke: #5d8aa8; stroke-linejoin: miter"/>
   </g>
   <g id="patch_8">
    <path d="M 542.820503 407.377556 
L 576.592831 429.288825 
L 574.563702 442.316566 
L 557.531822 440.196166 
L 542.598887 427.96008 
L 538.670871 412.856638 
L 545.532791 400.101486 
L 557.145556 391.809343 
L 566.411797 387.620009 
L 568.734264 385.956384 
L 563.174238 385.2134 
L 551.522822 384.469845 
L 536.45797 383.597616 
L 520.05731 382.918582 
L 503.467595 382.763934 
L 487.799796 383.335625 
L 475.606026 385.097435 
L 471.80814 389.551167 
L 482.815709 399.775901 
L 512.838334 419.652937 
L 557.008756 450.314558 
L 591.748602 481.788104 
L 563.822775 476.080982 
L 558.740442 473.146695 
L 553.658109 470.212409 
L 548.575775 467.278122 
L 543.493442 464.343836 
L 538.411109 461.409549 
L 533.328776 458.475263 
L 528.246442 455.540976 
L 523.164109 452.60669 
L 518.081776 449.672403 
L 512.999443 446.738117 
L 507.917109 443.80383 
L 502.834776 440.869544 
L 497.752443 437.935257 
L 492.670109 435.000971 
L 487.587776 432.066685 
L 482.505443 429.132398 
L 477.42311 426.198112 
L 472.340776 423.263825 
L 467.258443 420.329539 
L 462.17611 417.395252 
L 457.093777 414.460966 
L 452.011443 411.526679 
L 446.92911 408.592393 
L 542.820503 407.377556 
" clip-path="url(#p8fc4776308)" style="fill: #5d8aa8; opacity: 0.625; stroke: #5d8aa8; stroke-linejoin: miter"/>
   </g>
   <g id="patch_9">
    <path d="M 493.822727 234.955807 
L 529.684606 216.663747 
L 539.952397 224.934895 
L 529.600137 238.624736 
L 511.536908 245.438994 
L 496.492936 241.289034 
L 488.87761 228.968861 
L 487.502786 214.76584 
L 488.507836 204.646373 
L 488.228329 201.803246 
L 484.804873 206.246877 
L 478.335227 215.965522 
L 470.047429 228.575952 
L 461.259038 242.439823 
L 452.830251 256.729613 
L 445.491451 270.584171 
L 440.920338 282.025191 
L 442.87844 287.541123 
L 457.237103 283.120655 
L 489.462435 267.058818 
L 538.101388 244.13692 
L 582.728202 229.788104 
L 563.822775 251.119018 
L 558.740442 254.053305 
L 553.658109 256.987591 
L 548.575775 259.921878 
L 543.493442 262.856164 
L 538.411109 265.790451 
L 533.328776 268.724737 
L 528.246442 271.659024 
L 523.164109 274.59331 
L 518.081776 277.527597 
L 512.999443 280.461883 
L 507.917109 283.39617 
L 502.834776 286.330456 
L 497.752443 289.264743 
L 492.670109 292.199029 
L 487.587776 295.133315 
L 482.505443 298.067602 
L 477.42311 301.001888 
L 472.340776 303.936175 
L 467.258443 306.870461 
L 462.17611 309.804748 
L 457.093777 312.739034 
L 452.011443 315.673321 
L 446.92911 318.607607 
L 493.822727 234.955807 
" clip-path="url(#p8fc4776308)" style="fill: #5d8aa8; opacity: 0.625; stroke: #5d8aa8; stroke-linejoin: miter"/>
   </g>
   <g id="patch_10">
    <path d="M 320.002225 191.178251 
L 322.091776 150.974923 
L 334.388695 146.218329 
L 341.068315 162.02857 
L 337.938021 181.078914 
L 326.822064 192.032396 
L 312.344818 192.467375 
L 299.35723 186.556497 
L 291.096039 180.626364 
L 288.494065 179.446861 
L 290.630635 184.633477 
L 295.812405 195.095677 
L 302.589459 208.578335 
L 310.201727 223.121241 
L 318.362656 237.565679 
L 326.691655 250.848546 
L 334.314312 260.527756 
L 340.0703 261.589956 
L 343.421394 246.944754 
L 345.624101 211.00588 
L 350.092632 157.422363 
L 359.9796 111.6 
L 369 138.638037 
L 369 144.50661 
L 369 150.375182 
L 369 156.243755 
L 369 162.112328 
L 369 167.980901 
L 369 173.849474 
L 369 179.718047 
L 369 185.58662 
L 369 191.455193 
L 369 197.323766 
L 369 203.192339 
L 369 209.060912 
L 369 214.929485 
L 369 220.798058 
L 369 226.666631 
L 369 232.535204 
L 369 238.403777 
L 369 244.27235 
L 369 250.140923 
L 369 256.009496 
L 369 261.878069 
L 369 267.746642 
L 369 273.615215 
L 320.002225 191.178251 
" clip-path="url(#p8fc4776308)" style="fill: #5d8aa8; opacity: 0.625; stroke: #5d8aa8; stroke-linejoin: miter"/>
   </g>
   <g id="patch_11">
    <path d="M 195.179497 319.822444 
L 161.407169 297.911175 
L 163.436298 284.883434 
L 180.468178 287.003834 
L 195.401113 299.23992 
L 199.329129 314.343362 
L 192.467209 327.098514 
L 180.854444 335.390657 
L 171.588203 339.579991 
L 169.265736 341.243616 
L 174.825762 341.9866 
L 186.477178 342.730155 
L 201.54203 343.602384 
L 217.94269 344.281418 
L 234.532405 344.436066 
L 250.200204 343.864375 
L 262.393974 342.102565 
L 266.19186 337.648833 
L 255.184291 327.424099 
L 225.161666 307.547063 
L 180.991244 276.885442 
L 146.251398 245.411896 
L 174.177225 251.119018 
L 179.259558 254.053305 
L 184.341891 256.987591 
L 189.424225 259.921878 
L 194.506558 262.856164 
L 199.588891 265.790451 
L 204.671224 268.724737 
L 209.753558 271.659024 
L 214.835891 274.59331 
L 219.918224 277.527597 
L 225.000557 280.461883 
L 230.082891 283.39617 
L 235.165224 286.330456 
L 240.247557 289.264743 
L 245.329891 292.199029 
L 250.412224 295.133315 
L 255.494557 298.067602 
L 260.57689 301.001888 
L 265.659224 303.936175 
L 270.741557 306.870461 
L 275.82389 309.804748 
L 280.906223 312.739034 
L 285.988557 315.673321 
L 291.07089 318.607607 
L 195.179497 319.822444 
" clip-path="url(#p8fc4776308)" style="fill: #5d8aa8; opacity: 0.625; stroke: #5d8aa8; stroke-linejoin: miter"/>
   </g>
   <g id="patch_12">
    <path d="M 244.177273 492.244193 
L 208.315394 510.536253 
L 198.047603 502.265105 
L 208.399863 488.575264 
L 226.463092 481.761006 
L 241.507064 485.910966 
L 249.12239 498.231139 
L 250.497214 512.43416 
L 249.492164 522.553627 
L 249.771671 525.396754 
L 253.195127 520.953123 
L 259.664773 511.234478 
L 267.952571 498.624048 
L 276.740962 484.760177 
L 285.169749 470.470387 
L 292.508549 456.615829 
L 297.079662 445.174809 
L 295.12156 439.658877 
L 280.762897 444.079345 
L 248.537565 460.141182 
L 199.898612 483.06308 
L 155.271798 497.411896 
L 174.177225 476.080982 
L 179.259558 473.146695 
L 184.341891 470.212409 
L 189.424225 467.278122 
L 194.506558 464.343836 
L 199.588891 461.409549 
L 204.671224 458.475263 
L 209.753558 455.540976 
L 214.835891 452.60669 
L 219.918224 449.672403 
L 225.000557 446.738117 
L 230.082891 443.80383 
L 235.165224 440.869544 
L 240.247557 437.935257 
L 245.329891 435.000971 
L 250.412224 432.066685 
L 255.494557 429.132398 
L 260.57689 426.198112 
L 265.659224 423.263825 
L 270.741557 420.329539 
L 275.82389 417.395252 
L 280.906223 414.460966 
L 285.988557 411.526679 
L 291.07089 408.592393 
L 244.177273 492.244193 
" clip-path="url(#p8fc4776308)" style="fill: #5d8aa8; opacity: 0.625; stroke: #5d8aa8; stroke-linejoin: miter"/>
   </g>
   <g id="patch_13">
    <path d="M 417.997775 536.021749 
L 415.908224 576.225077 
L 403.611305 580.981671 
L 396.931685 565.17143 
L 400.061979 546.121086 
L 411.177936 535.167604 
L 425.655182 534.732625 
L 438.64277 540.643503 
L 446.903961 546.573636 
L 449.505935 547.753139 
L 447.369365 542.566523 
L 442.187595 532.104323 
L 435.410541 518.621665 
L 427.798273 504.078759 
L 419.637344 489.634321 
L 411.308345 476.351454 
L 403.685688 466.672244 
L 397.9297 465.610044 
L 394.578606 480.255246 
L 392.375899 516.19412 
L 387.907368 569.777637 
L 378.0204 615.6 
L 369 588.561963 
L 369 582.69339 
L 369 576.824818 
L 369 570.956245 
L 369 565.087672 
L 369 559.219099 
L 369 553.350526 
L 369 547.481953 
L 369 541.61338 
L 369 535.744807 
L 369 529.876234 
L 369 524.007661 
L 369 518.139088 
L 369 512.270515 
L 369 506.401942 
L 369 500.533369 
L 369 494.664796 
L 369 488.796223 
L 369 482.92765 
L 369 477.059077 
L 369 471.190504 
L 369 465.321931 
L 369 459.453358 
L 369 453.584785 
L 417.997775 536.021749 
" clip-path="url(#p8fc4776308)" style="fill: #5d8aa8; opacity: 0.625; stroke: #5d8aa8; stroke-linejoin: miter"/>
   </g>
   <g id="patch_14">
    <path d="M 459.633678 320.748383 
L 449.733008 338.609222 
L 460.915583 337.39688 
L 477.494418 326.688625 
L 491.149917 314.502973 
L 498.627725 305.443642 
L 500.349883 300.771958 
L 498.452115 299.84905 
L 495.041389 301.609007 
L 491.417162 305.28086 
L 488.246899 310.382503 
L 486.170914 316.453721 
L 486.278397 322.95298 
L 490.156089 329.414435 
L 499.46968 335.655314 
L 515.149251 341.759586 
L 536.291569 347.763915 
L 559.056203 353.263694 
L 576.193493 357.280528 
L 578.135799 358.513277 
L 556.178979 355.605793 
L 506.546242 346.680136 
L 431.343288 327.606086 
L 435.409155 325.258657 
L 439.475021 322.911227 
L 443.540888 320.563798 
L 447.606755 318.216369 
L 451.672621 315.86894 
L 455.738488 313.521511 
L 459.804354 311.174082 
L 463.870221 308.826652 
L 467.936088 306.479223 
L 472.001954 304.131794 
L 476.067821 301.784365 
L 480.133687 299.436936 
L 484.199554 297.089506 
L 488.265421 294.742077 
L 492.331287 292.394648 
L 496.397154 290.047219 
L 500.463021 287.69979 
L 504.528887 285.352361 
L 508.594754 283.004931 
L 512.66062 280.657502 
L 516.726487 278.310073 
L 520.792354 275.962644 
L 524.85822 273.615215 
L 459.633678 320.748383 
" clip-path="url(#p8fc4776308)" style="fill: #e0e0e0; opacity: 0.625; stroke: #e0e0e0; stroke-linejoin: miter"/>
   </g>
   <g id="patch_15">
    <path d="M 377.20625 263.683124 
L 387.723855 281.187775 
L 392.265224 270.89721 
L 391.281021 251.185391 
L 387.555686 233.266555 
L 383.44898 222.260918 
L 380.264261 218.433643 
L 378.516115 219.615705 
L 378.33492 223.449458 
L 379.702724 228.424058 
L 382.535745 233.720407 
L 386.755581 238.553873 
L 392.437847 241.710419 
L 399.972476 241.582966 
L 410.034032 236.6376 
L 423.160272 226.110829 
L 438.931333 210.803209 
L 455.076598 193.838347 
L 467.123923 181.005436 
L 469.162668 179.939723 
L 455.666303 197.501146 
L 423.120089 236.021528 
L 369 291.612172 
L 369 286.917313 
L 369 282.222455 
L 369 277.527597 
L 369 272.832738 
L 369 268.13788 
L 369 263.443021 
L 369 258.748163 
L 369 254.053305 
L 369 249.358446 
L 369 244.663588 
L 369 239.96873 
L 369 235.273871 
L 369 230.579013 
L 369 225.884155 
L 369 221.189296 
L 369 216.494438 
L 369 211.799579 
L 369 207.104721 
L 369 202.409863 
L 369 197.715004 
L 369 193.020146 
L 369 188.325288 
L 369 183.630429 
L 377.20625 263.683124 
" clip-path="url(#p8fc4776308)" style="fill: #e0e0e0; opacity: 0.625; stroke: #e0e0e0; stroke-linejoin: miter"/>
   </g>
   <g id="patch_16">
    <path d="M 286.572572 306.534741 
L 306.990847 306.178553 
L 300.349641 297.10033 
L 282.786603 288.096765 
L 265.405769 282.363583 
L 253.821254 280.417276 
L 248.914378 281.261685 
L 249.064 283.366655 
L 252.29353 285.440451 
L 257.285562 286.743198 
L 263.288846 286.937904 
L 269.584668 285.700152 
L 275.15945 282.357439 
L 278.816387 275.768532 
L 279.564352 264.582286 
L 277.011022 247.951243 
L 271.639764 226.639293 
L 265.020394 204.174653 
L 259.93043 187.324908 
L 260.026869 185.026447 
L 268.487325 205.495353 
L 285.573847 252.941392 
L 306.656712 327.606086 
L 302.590845 325.258657 
L 298.524979 322.911227 
L 294.459112 320.563798 
L 290.393245 318.216369 
L 286.327379 315.86894 
L 282.261512 313.521511 
L 278.195646 311.174082 
L 274.129779 308.826652 
L 270.063912 306.479223 
L 265.998046 304.131794 
L 261.932179 301.784365 
L 257.866313 299.436936 
L 253.800446 297.089506 
L 249.734579 294.742077 
L 245.668713 292.394648 
L 241.602846 290.047219 
L 237.536979 287.69979 
L 233.471113 285.352361 
L 229.405246 283.004931 
L 225.33938 280.657502 
L 221.273513 278.310073 
L 217.207646 275.962644 
L 213.14178 273.615215 
L 286.572572 306.534741 
" clip-path="url(#p8fc4776308)" style="fill: #e0e0e0; opacity: 0.625; stroke: #e0e0e0; stroke-linejoin: miter"/>
   </g>
   <g id="patch_17">
    <path d="M 278.366322 406.451617 
L 288.266992 388.590778 
L 277.084417 389.80312 
L 260.505582 400.511375 
L 246.850083 412.697027 
L 239.372275 421.756358 
L 237.650117 426.428042 
L 239.547885 427.35095 
L 242.958611 425.590993 
L 246.582838 421.91914 
L 249.753101 416.817497 
L 251.829086 410.746279 
L 251.721603 404.24702 
L 247.843911 397.785565 
L 238.53032 391.544686 
L 222.850749 385.440414 
L 201.708431 379.436085 
L 178.943797 373.936306 
L 161.806507 369.919472 
L 159.864201 368.686723 
L 181.821021 371.594207 
L 231.453758 380.519864 
L 306.656712 399.593914 
L 302.590845 401.941343 
L 298.524979 404.288773 
L 294.459112 406.636202 
L 290.393245 408.983631 
L 286.327379 411.33106 
L 282.261512 413.678489 
L 278.195646 416.025918 
L 274.129779 418.373348 
L 270.063912 420.720777 
L 265.998046 423.068206 
L 261.932179 425.415635 
L 257.866313 427.763064 
L 253.800446 430.110494 
L 249.734579 432.457923 
L 245.668713 434.805352 
L 241.602846 437.152781 
L 237.536979 439.50021 
L 233.471113 441.847639 
L 229.405246 444.195069 
L 225.33938 446.542498 
L 221.273513 448.889927 
L 217.207646 451.237356 
L 213.14178 453.584785 
L 278.366322 406.451617 
" clip-path="url(#p8fc4776308)" style="fill: #e0e0e0; opacity: 0.625; stroke: #e0e0e0; stroke-linejoin: miter"/>
   </g>
   <g id="patch_18">
    <path d="M 360.79375 463.516876 
L 350.276145 446.012225 
L 345.734776 456.30279 
L 346.718979 476.014609 
L 350.444314 493.933445 
L 354.55102 504.939082 
L 357.735739 508.766357 
L 359.483885 507.584295 
L 359.66508 503.750542 
L 358.297276 498.775942 
L 355.464255 493.479593 
L 351.244419 488.646127 
L 345.562153 485.489581 
L 338.027524 485.617034 
L 327.965968 490.5624 
L 314.839728 501.089171 
L 299.068667 516.396791 
L 282.923402 533.361653 
L 270.876077 546.194564 
L 268.837332 547.260277 
L 282.333697 529.698854 
L 314.879911 491.178472 
L 369 435.587828 
L 369 440.282687 
L 369 444.977545 
L 369 449.672403 
L 369 454.367262 
L 369 459.06212 
L 369 463.756979 
L 369 468.451837 
L 369 473.146695 
L 369 477.841554 
L 369 482.536412 
L 369 487.23127 
L 369 491.926129 
L 369 496.620987 
L 369 501.315845 
L 369 506.010704 
L 369 510.705562 
L 369 515.400421 
L 369 520.095279 
L 369 524.790137 
L 369 529.484996 
L 369 534.179854 
L 369 538.874712 
L 369 543.569571 
L 360.79375 463.516876 
" clip-path="url(#p8fc4776308)" style="fill: #e0e0e0; opacity: 0.625; stroke: #e0e0e0; stroke-linejoin: miter"/>
   </g>
   <g id="patch_19">
    <path d="M 451.427428 420.665259 
L 431.009153 421.021447 
L 437.650359 430.09967 
L 455.213397 439.103235 
L 472.594231 444.836417 
L 484.178746 446.782724 
L 489.085622 445.938315 
L 488.936 443.833345 
L 485.70647 441.759549 
L 480.714438 440.456802 
L 474.711154 440.262096 
L 468.415332 441.499848 
L 462.84055 444.842561 
L 459.183613 451.431468 
L 458.435648 462.617714 
L 460.988978 479.248757 
L 466.360236 500.560707 
L 472.979606 523.025347 
L 478.06957 539.875092 
L 477.973131 542.173553 
L 469.512675 521.704647 
L 452.426153 474.258608 
L 431.343288 399.593914 
L 435.409155 401.941343 
L 439.475021 404.288773 
L 443.540888 406.636202 
L 447.606755 408.983631 
L 451.672621 411.33106 
L 455.738488 413.678489 
L 459.804354 416.025918 
L 463.870221 418.373348 
L 467.936088 420.720777 
L 472.001954 423.068206 
L 476.067821 425.415635 
L 480.133687 427.763064 
L 484.199554 430.110494 
L 488.265421 432.457923 
L 492.331287 434.805352 
L 496.397154 437.152781 
L 500.463021 439.50021 
L 504.528887 441.847639 
L 508.594754 444.195069 
L 512.66062 446.542498 
L 516.726487 448.889927 
L 520.792354 451.237356 
L 524.85822 453.584785 
L 451.427428 420.665259 
" clip-path="url(#p8fc4776308)" style="fill: #e0e0e0; opacity: 0.625; stroke: #e0e0e0; stroke-linejoin: miter"/>
   </g>
   <g id="patch_20">
    <path d="M 459.633678 406.451617 
L 449.733008 388.590778 
L 460.915583 389.80312 
L 477.494418 400.511375 
L 491.149917 412.697027 
L 498.627725 421.756358 
L 500.349883 426.428042 
L 498.452115 427.35095 
L 495.041389 425.590993 
L 491.417162 421.91914 
L 488.246899 416.817497 
L 486.170914 410.746279 
L 486.278397 404.24702 
L 490.156089 397.785565 
L 499.46968 391.544686 
L 515.149251 385.440414 
L 536.291569 379.436085 
L 559.056203 373.936306 
L 576.193493 369.919472 
L 578.135799 368.686723 
L 556.178979 371.594207 
L 506.546242 380.519864 
L 431.343288 399.593914 
L 435.409155 401.941343 
L 439.475021 404.288773 
L 443.540888 406.636202 
L 447.606755 408.983631 
L 451.672621 411.33106 
L 455.738488 413.678489 
L 459.804354 416.025918 
L 463.870221 418.373348 
L 467.936088 420.720777 
L 472.001954 423.068206 
L 476.067821 425.415635 
L 480.133687 427.763064 
L 484.199554 430.110494 
L 488.265421 432.457923 
L 492.331287 434.805352 
L 496.397154 437.152781 
L 500.463021 439.50021 
L 504.528887 441.847639 
L 508.594754 444.195069 
L 512.66062 446.542498 
L 516.726487 448.889927 
L 520.792354 451.237356 
L 524.85822 453.584785 
L 459.633678 406.451617 
" clip-path="url(#p8fc4776308)" style="fill: #e0e0e0; opacity: 0.625; stroke: #e0e0e0; stroke-linejoin: miter"/>
   </g>
   <g id="patch_21">
    <path d="M 451.427428 306.534741 
L 431.009153 306.178553 
L 437.650359 297.10033 
L 455.213397 288.096765 
L 472.594231 282.363583 
L 484.178746 280.417276 
L 489.085622 281.261685 
L 488.936 283.366655 
L 485.70647 285.440451 
L 480.714438 286.743198 
L 474.711154 286.937904 
L 468.415332 285.700152 
L 462.84055 282.357439 
L 459.183613 275.768532 
L 458.435648 264.582286 
L 460.988978 247.951243 
L 466.360236 226.639293 
L 472.979606 204.174653 
L 478.06957 187.324908 
L 477.973131 185.026447 
L 469.512675 205.495353 
L 452.426153 252.941392 
L 431.343288 327.606086 
L 435.409155 325.258657 
L 439.475021 322.911227 
L 443.540888 320.563798 
L 447.606755 318.216369 
L 451.672621 315.86894 
L 455.738488 313.521511 
L 459.804354 311.174082 
L 463.870221 308.826652 
L 467.936088 306.479223 
L 472.001954 304.131794 
L 476.067821 301.784365 
L 480.133687 299.436936 
L 484.199554 297.089506 
L 488.265421 294.742077 
L 492.331287 292.394648 
L 496.397154 290.047219 
L 500.463021 287.69979 
L 504.528887 285.352361 
L 508.594754 283.004931 
L 512.66062 280.657502 
L 516.726487 278.310073 
L 520.792354 275.962644 
L 524.85822 273.615215 
L 451.427428 306.534741 
" clip-path="url(#p8fc4776308)" style="fill: #e0e0e0; opacity: 0.625; stroke: #e0e0e0; stroke-linejoin: miter"/>
   </g>
   <g id="patch_22">
    <path d="M 360.79375 263.683124 
L 350.276145 281.187775 
L 345.734776 270.89721 
L 346.718979 251.185391 
L 350.444314 233.266555 
L 354.55102 222.260918 
L 357.735739 218.433643 
L 359.483885 219.615705 
L 359.66508 223.449458 
L 358.297276 228.424058 
L 355.464255 233.720407 
L 351.244419 238.553873 
L 345.562153 241.710419 
L 338.027524 241.582966 
L 327.965968 236.6376 
L 314.839728 226.110829 
L 299.068667 210.803209 
L 282.923402 193.838347 
L 270.876077 181.005436 
L 268.837332 179.939723 
L 282.333697 197.501146 
L 314.879911 236.021528 
L 369 291.612172 
L 369 286.917313 
L 369 282.222455 
L 369 277.527597 
L 369 272.832738 
L 369 268.13788 
L 369 263.443021 
L 369 258.748163 
L 369 254.053305 
L 369 249.358446 
L 369 244.663588 
L 369 239.96873 
L 369 235.273871 
L 369 230.579013 
L 369 225.884155 
L 369 221.189296 
L 369 216.494438 
L 369 211.799579 
L 369 207.104721 
L 369 202.409863 
L 369 197.715004 
L 369 193.020146 
L 369 188.325288 
L 369 183.630429 
L 360.79375 263.683124 
" clip-path="url(#p8fc4776308)" style="fill: #e0e0e0; opacity: 0.625; stroke: #e0e0e0; stroke-linejoin: miter"/>
   </g>
   <g id="patch_23">
    <path d="M 278.366322 320.748383 
L 288.266992 338.609222 
L 277.084417 337.39688 
L 260.505582 326.688625 
L 246.850083 314.502973 
L 239.372275 305.443642 
L 237.650117 300.771958 
L 239.547885 299.84905 
L 242.958611 301.609007 
L 246.582838 305.28086 
L 249.753101 310.382503 
L 251.829086 316.453721 
L 251.721603 322.95298 
L 247.843911 329.414435 
L 238.53032 335.655314 
L 222.850749 341.759586 
L 201.708431 347.763915 
L 178.943797 353.263694 
L 161.806507 357.280528 
L 159.864201 358.513277 
L 181.821021 355.605793 
L 231.453758 346.680136 
L 306.656712 327.606086 
L 302.590845 325.258657 
L 298.524979 322.911227 
L 294.459112 320.563798 
L 290.393245 318.216369 
L 286.327379 315.86894 
L 282.261512 313.521511 
L 278.195646 311.174082 
L 274.129779 308.826652 
L 270.063912 306.479223 
L 265.998046 304.131794 
L 261.932179 301.784365 
L 257.866313 299.436936 
L 253.800446 297.089506 
L 249.734579 294.742077 
L 245.668713 292.394648 
L 241.602846 290.047219 
L 237.536979 287.69979 
L 233.471113 285.352361 
L 229.405246 283.004931 
L 225.33938 280.657502 
L 221.273513 278.310073 
L 217.207646 275.962644 
L 213.14178 273.615215 
L 278.366322 320.748383 
" clip-path="url(#p8fc4776308)" style="fill: #e0e0e0; opacity: 0.625; stroke: #e0e0e0; stroke-linejoin: miter"/>
   </g>
   <g id="patch_24">
    <path d="M 286.572572 420.665259 
L 306.990847 421.021447 
L 300.349641 430.09967 
L 282.786603 439.103235 
L 265.405769 444.836417 
L 253.821254 446.782724 
L 248.914378 445.938315 
L 249.064 443.833345 
L 252.29353 441.759549 
L 257.285562 440.456802 
L 263.288846 440.262096 
L 269.584668 441.499848 
L 275.15945 444.842561 
L 278.816387 451.431468 
L 279.564352 462.617714 
L 277.011022 479.248757 
L 271.639764 500.560707 
L 265.020394 523.025347 
L 259.93043 539.875092 
L 260.026869 542.173553 
L 268.487325 521.704647 
L 285.573847 474.258608 
L 306.656712 399.593914 
L 302.590845 401.941343 
L 298.524979 404.288773 
L 294.459112 406.636202 
L 290.393245 408.983631 
L 286.327379 411.33106 
L 282.261512 413.678489 
L 278.195646 416.025918 
L 274.129779 418.373348 
L 270.063912 420.720777 
L 265.998046 423.068206 
L 261.932179 425.415635 
L 257.866313 427.763064 
L 253.800446 430.110494 
L 249.734579 432.457923 
L 245.668713 434.805352 
L 241.602846 437.152781 
L 237.536979 439.50021 
L 233.471113 441.847639 
L 229.405246 444.195069 
L 225.33938 446.542498 
L 221.273513 448.889927 
L 217.207646 451.237356 
L 213.14178 453.584785 
L 286.572572 420.665259 
" clip-path="url(#p8fc4776308)" style="fill: #e0e0e0; opacity: 0.625; stroke: #e0e0e0; stroke-linejoin: miter"/>
   </g>
   <g id="patch_25">
    <path d="M 377.20625 463.516876 
L 387.723855 446.012225 
L 392.265224 456.30279 
L 391.281021 476.014609 
L 387.555686 493.933445 
L 383.44898 504.939082 
L 380.264261 508.766357 
L 378.516115 507.584295 
L 378.33492 503.750542 
L 379.702724 498.775942 
L 382.535745 493.479593 
L 386.755581 488.646127 
L 392.437847 485.489581 
L 399.972476 485.617034 
L 410.034032 490.5624 
L 423.160272 501.089171 
L 438.931333 516.396791 
L 455.076598 533.361653 
L 467.123923 546.194564 
L 469.162668 547.260277 
L 455.666303 529.698854 
L 423.120089 491.178472 
L 369 435.587828 
L 369 440.282687 
L 369 444.977545 
L 369 449.672403 
L 369 454.367262 
L 369 459.06212 
L 369 463.756979 
L 369 468.451837 
L 369 473.146695 
L 369 477.841554 
L 369 482.536412 
L 369 487.23127 
L 369 491.926129 
L 369 496.620987 
L 369 501.315845 
L 369 506.010704 
L 369 510.705562 
L 369 515.400421 
L 369 520.095279 
L 369 524.790137 
L 369 529.484996 
L 369 534.179854 
L 369 538.874712 
L 369 543.569571 
L 377.20625 463.516876 
" clip-path="url(#p8fc4776308)" style="fill: #e0e0e0; opacity: 0.625; stroke: #e0e0e0; stroke-linejoin: miter"/>
   </g>
   <g id="patch_26">
    <path d="M 464.821422 354.306434 
L 471.688793 342.490586 
L 487.921207 335.333461 
L 496.891944 333.026387 
L 495.01291 334.613478 
L 484.959067 338.692316 
L 471.338585 343.599793 
L 458.423427 347.792484 
L 449.080198 350.194635 
L 444.404345 350.329509 
L 443.917176 348.242465 
L 446.231094 344.320628 
L 449.913919 339.109983 
L 454.136855 333.185305 
L 458.765182 327.089536 
L 463.860984 321.34555 
L 468.953448 316.548031 
L 472.676118 313.537432 
L 473.363285 313.589257 
L 471.045785 318.366435 
L 471.173114 329.150709 
L 489.943777 345.165504 
L 557.968049 363.6 
L 555.62062 363.6 
L 553.273191 363.6 
L 550.925762 363.6 
L 548.578333 363.6 
L 546.230903 363.6 
L 543.883474 363.6 
L 541.536045 363.6 
L 539.188616 363.6 
L 536.841187 363.6 
L 534.493757 363.6 
L 532.146328 363.6 
L 529.798899 363.6 
L 527.45147 363.6 
L 525.104041 363.6 
L 522.756612 363.6 
L 520.409182 363.6 
L 518.061753 363.6 
L 515.714324 363.6 
L 513.366895 363.6 
L 511.019466 363.6 
L 508.672036 363.6 
L 506.324607 363.6 
L 503.977178 363.6 
L 464.821422 354.306434 
" clip-path="url(#p8fc4776308)" style="fill: #88b04b; opacity: 0.625; stroke: #88b04b; stroke-linejoin: miter"/>
   </g>
   <g id="patch_27">
    <path d="M 408.862246 275.969431 
L 402.063108 264.114189 
L 403.981063 246.477944 
L 406.468446 237.555522 
L 406.903391 239.976358 
L 405.408846 250.722661 
L 402.848605 264.972083 
L 400.022003 278.253283 
L 397.430712 287.545831 
L 395.20959 291.662676 
L 393.158572 291.041055 
L 390.919121 287.076224 
L 388.247983 281.281482 
L 385.228529 274.661974 
L 382.263601 267.605839 
L 379.837065 260.320753 
L 378.228523 253.51179 
L 377.482603 248.782564 
L 377.871069 248.213372 
L 380.849476 252.608976 
L 390.252596 257.890842 
L 413.507147 249.642369 
L 463.484025 199.948869 
L 462.31031 201.981802 
L 461.136595 204.014735 
L 459.962881 206.047669 
L 458.789166 208.080602 
L 457.615452 210.113535 
L 456.441737 212.146469 
L 455.268023 214.179402 
L 454.094308 216.212335 
L 452.920593 218.245269 
L 451.746879 220.278202 
L 450.573164 222.311135 
L 449.39945 224.344068 
L 448.225735 226.377002 
L 447.05202 228.409935 
L 445.878306 230.442868 
L 444.704591 232.475802 
L 443.530877 234.508735 
L 442.357162 236.541668 
L 441.183447 238.574602 
L 440.009733 240.607535 
L 438.836018 242.640468 
L 437.662304 244.673402 
L 436.488589 246.706335 
L 408.862246 275.969431 
" clip-path="url(#p8fc4776308)" style="fill: #88b04b; opacity: 0.625; stroke: #88b04b; stroke-linejoin: miter"/>
   </g>
   <g id="patch_28">
    <path d="M 313.040824 285.262998 
L 299.374314 285.223603 
L 285.059856 274.744483 
L 278.576503 268.129134 
L 280.890481 268.96288 
L 289.44978 275.630344 
L 300.510021 284.972289 
L 310.598577 294.060799 
L 317.350514 300.951196 
L 319.805245 304.933167 
L 318.241396 306.39859 
L 313.688027 306.355597 
L 307.334064 305.771499 
L 300.091674 305.076669 
L 292.498419 304.116304 
L 284.976081 302.575203 
L 278.275075 300.56376 
L 273.806485 298.845132 
L 273.507784 298.224115 
L 278.803691 297.842541 
L 288.079482 292.340133 
L 292.56337 268.076864 
L 274.515975 199.948869 
L 275.68969 201.981802 
L 276.863405 204.014735 
L 278.037119 206.047669 
L 279.210834 208.080602 
L 280.384548 210.113535 
L 281.558263 212.146469 
L 282.731977 214.179402 
L 283.905692 216.212335 
L 285.079407 218.245269 
L 286.253121 220.278202 
L 287.426836 222.311135 
L 288.60055 224.344068 
L 289.774265 226.377002 
L 290.94798 228.409935 
L 292.121694 230.442868 
L 293.295409 232.475802 
L 294.469123 234.508735 
L 295.642838 236.541668 
L 296.816553 238.574602 
L 297.990267 240.607535 
L 299.163982 242.640468 
L 300.337696 244.673402 
L 301.511411 246.706335 
L 313.040824 285.262998 
" clip-path="url(#p8fc4776308)" style="fill: #88b04b; opacity: 0.625; stroke: #88b04b; stroke-linejoin: miter"/>
   </g>
   <g id="patch_29">
    <path d="M 273.178578 372.893566 
L 266.311207 384.709414 
L 250.078793 391.866539 
L 241.108056 394.173613 
L 242.98709 392.586522 
L 253.040933 388.507684 
L 266.661415 383.600207 
L 279.576573 379.407516 
L 288.919802 377.005365 
L 293.595655 376.870491 
L 294.082824 378.957535 
L 291.768906 382.879372 
L 288.086081 388.090017 
L 283.863145 394.014695 
L 279.234818 400.110464 
L 274.139016 405.85445 
L 269.046552 410.651969 
L 265.323882 413.662568 
L 264.636715 413.610743 
L 266.954215 408.833565 
L 266.826886 398.049291 
L 248.056223 382.034496 
L 180.031951 363.6 
L 182.37938 363.6 
L 184.726809 363.6 
L 187.074238 363.6 
L 189.421667 363.6 
L 191.769097 363.6 
L 194.116526 363.6 
L 196.463955 363.6 
L 198.811384 363.6 
L 201.158813 363.6 
L 203.506243 363.6 
L 205.853672 363.6 
L 208.201101 363.6 
L 210.54853 363.6 
L 212.895959 363.6 
L 215.243388 363.6 
L 217.590818 363.6 
L 219.938247 363.6 
L 222.285676 363.6 
L 224.633105 363.6 
L 226.980534 363.6 
L 229.327964 363.6 
L 231.675393 363.6 
L 234.022822 363.6 
L 273.178578 372.893566 
" clip-path="url(#p8fc4776308)" style="fill: #88b04b; opacity: 0.625; stroke: #88b04b; stroke-linejoin: miter"/>
   </g>
   <g id="patch_30">
    <path d="M 329.137754 451.230569 
L 335.936892 463.085811 
L 334.018937 480.722056 
L 331.531554 489.644478 
L 331.096609 487.223642 
L 332.591154 476.477339 
L 335.151395 462.227917 
L 337.977997 448.946717 
L 340.569288 439.654169 
L 342.79041 435.537324 
L 344.841428 436.158945 
L 347.080879 440.123776 
L 349.752017 445.918518 
L 352.771471 452.538026 
L 355.736399 459.594161 
L 358.162935 466.879247 
L 359.771477 473.68821 
L 360.517397 478.417436 
L 360.128931 478.986628 
L 357.150524 474.591024 
L 347.747404 469.309158 
L 324.492853 477.557631 
L 274.515975 527.251131 
L 275.68969 525.218198 
L 276.863405 523.185265 
L 278.037119 521.152331 
L 279.210834 519.119398 
L 280.384548 517.086465 
L 281.558263 515.053531 
L 282.731977 513.020598 
L 283.905692 510.987665 
L 285.079407 508.954731 
L 286.253121 506.921798 
L 287.426836 504.888865 
L 288.60055 502.855932 
L 289.774265 500.822998 
L 290.94798 498.790065 
L 292.121694 496.757132 
L 293.295409 494.724198 
L 294.469123 492.691265 
L 295.642838 490.658332 
L 296.816553 488.625398 
L 297.990267 486.592465 
L 299.163982 484.559532 
L 300.337696 482.526598 
L 301.511411 480.493665 
L 329.137754 451.230569 
" clip-path="url(#p8fc4776308)" style="fill: #88b04b; opacity: 0.625; stroke: #88b04b; stroke-linejoin: miter"/>
   </g>
   <g id="patch_31">
    <path d="M 424.959176 441.937002 
L 438.625686 441.976397 
L 452.940144 452.455517 
L 459.423497 459.070866 
L 457.109519 458.23712 
L 448.55022 451.569656 
L 437.489979 442.227711 
L 427.401423 433.139201 
L 420.649486 426.248804 
L 418.194755 422.266833 
L 419.758604 420.80141 
L 424.311973 420.844403 
L 430.665936 421.428501 
L 437.908326 422.123331 
L 445.501581 423.083696 
L 453.023919 424.624797 
L 459.724925 426.63624 
L 464.193515 428.354868 
L 464.492216 428.975885 
L 459.196309 429.357459 
L 449.920518 434.859867 
L 445.43663 459.123136 
L 463.484025 527.251131 
L 462.31031 525.218198 
L 461.136595 523.185265 
L 459.962881 521.152331 
L 458.789166 519.119398 
L 457.615452 517.086465 
L 456.441737 515.053531 
L 455.268023 513.020598 
L 454.094308 510.987665 
L 452.920593 508.954731 
L 451.746879 506.921798 
L 450.573164 504.888865 
L 449.39945 502.855932 
L 448.225735 500.822998 
L 447.05202 498.790065 
L 445.878306 496.757132 
L 444.704591 494.724198 
L 443.530877 492.691265 
L 442.357162 490.658332 
L 441.183447 488.625398 
L 440.009733 486.592465 
L 438.836018 484.559532 
L 437.662304 482.526598 
L 436.488589 480.493665 
L 424.959176 441.937002 
" clip-path="url(#p8fc4776308)" style="fill: #88b04b; opacity: 0.625; stroke: #88b04b; stroke-linejoin: miter"/>
   </g>
   <g id="patch_32">
    <path d="M 464.821422 372.893566 
L 471.688793 384.709414 
L 487.921207 391.866539 
L 496.891944 394.173613 
L 495.01291 392.586522 
L 484.959067 388.507684 
L 471.338585 383.600207 
L 458.423427 379.407516 
L 449.080198 377.005365 
L 444.404345 376.870491 
L 443.917176 378.957535 
L 446.231094 382.879372 
L 449.913919 388.090017 
L 454.136855 394.014695 
L 458.765182 400.110464 
L 463.860984 405.85445 
L 468.953448 410.651969 
L 472.676118 413.662568 
L 473.363285 413.610743 
L 471.045785 408.833565 
L 471.173114 398.049291 
L 489.943777 382.034496 
L 557.968049 363.6 
L 555.62062 363.6 
L 553.273191 363.6 
L 550.925762 363.6 
L 548.578333 363.6 
L 546.230903 363.6 
L 543.883474 363.6 
L 541.536045 363.6 
L 539.188616 363.6 
L 536.841187 363.6 
L 534.493757 363.6 
L 532.146328 363.6 
L 529.798899 363.6 
L 527.45147 363.6 
L 525.104041 363.6 
L 522.756612 363.6 
L 520.409182 363.6 
L 518.061753 363.6 
L 515.714324 363.6 
L 513.366895 363.6 
L 511.019466 363.6 
L 508.672036 363.6 
L 506.324607 363.6 
L 503.977178 363.6 
L 464.821422 372.893566 
" clip-path="url(#p8fc4776308)" style="fill: #88b04b; opacity: 0.625; stroke: #88b04b; stroke-linejoin: miter"/>
   </g>
   <g id="patch_33">
    <path d="M 424.959176 285.262998 
L 438.625686 285.223603 
L 452.940144 274.744483 
L 459.423497 268.129134 
L 457.109519 268.96288 
L 448.55022 275.630344 
L 437.489979 284.972289 
L 427.401423 294.060799 
L 420.649486 300.951196 
L 418.194755 304.933167 
L 419.758604 306.39859 
L 424.311973 306.355597 
L 430.665936 305.771499 
L 437.908326 305.076669 
L 445.501581 304.116304 
L 453.023919 302.575203 
L 459.724925 300.56376 
L 464.193515 298.845132 
L 464.492216 298.224115 
L 459.196309 297.842541 
L 449.920518 292.340133 
L 445.43663 268.076864 
L 463.484025 199.948869 
L 462.31031 201.981802 
L 461.136595 204.014735 
L 459.962881 206.047669 
L 458.789166 208.080602 
L 457.615452 210.113535 
L 456.441737 212.146469 
L 455.268023 214.179402 
L 454.094308 216.212335 
L 452.920593 218.245269 
L 451.746879 220.278202 
L 450.573164 222.311135 
L 449.39945 224.344068 
L 448.225735 226.377002 
L 447.05202 228.409935 
L 445.878306 230.442868 
L 444.704591 232.475802 
L 443.530877 234.508735 
L 442.357162 236.541668 
L 441.183447 238.574602 
L 440.009733 240.607535 
L 438.836018 242.640468 
L 437.662304 244.673402 
L 436.488589 246.706335 
L 424.959176 285.262998 
" clip-path="url(#p8fc4776308)" style="fill: #88b04b; opacity: 0.625; stroke: #88b04b; stroke-linejoin: miter"/>
   </g>
   <g id="patch_34">
    <path d="M 329.137754 275.969431 
L 335.936892 264.114189 
L 334.018937 246.477944 
L 331.531554 237.555522 
L 331.096609 239.976358 
L 332.591154 250.722661 
L 335.151395 264.972083 
L 337.977997 278.253283 
L 340.569288 287.545831 
L 342.79041 291.662676 
L 344.841428 291.041055 
L 347.080879 287.076224 
L 349.752017 281.281482 
L 352.771471 274.661974 
L 355.736399 267.605839 
L 358.162935 260.320753 
L 359.771477 253.51179 
L 360.517397 248.782564 
L 360.128931 248.213372 
L 357.150524 252.608976 
L 347.747404 257.890842 
L 324.492853 249.642369 
L 274.515975 199.948869 
L 275.68969 201.981802 
L 276.863405 204.014735 
L 278.037119 206.047669 
L 279.210834 208.080602 
L 280.384548 210.113535 
L 281.558263 212.146469 
L 282.731977 214.179402 
L 283.905692 216.212335 
L 285.079407 218.245269 
L 286.253121 220.278202 
L 287.426836 222.311135 
L 288.60055 224.344068 
L 289.774265 226.377002 
L 290.94798 228.409935 
L 292.121694 230.442868 
L 293.295409 232.475802 
L 294.469123 234.508735 
L 295.642838 236.541668 
L 296.816553 238.574602 
L 297.990267 240.607535 
L 299.163982 242.640468 
L 300.337696 244.673402 
L 301.511411 246.706335 
L 329.137754 275.969431 
" clip-path="url(#p8fc4776308)" style="fill: #88b04b; opacity: 0.625; stroke: #88b04b; stroke-linejoin: miter"/>
   </g>
   <g id="patch_35">
    <path d="M 273.178578 354.306434 
L 266.311207 342.490586 
L 250.078793 335.333461 
L 241.108056 333.026387 
L 242.98709 334.613478 
L 253.040933 338.692316 
L 266.661415 343.599793 
L 279.576573 347.792484 
L 288.919802 350.194635 
L 293.595655 350.329509 
L 294.082824 348.242465 
L 291.768906 344.320628 
L 288.086081 339.109983 
L 283.863145 333.185305 
L 279.234818 327.089536 
L 274.139016 321.34555 
L 269.046552 316.548031 
L 265.323882 313.537432 
L 264.636715 313.589257 
L 266.954215 318.366435 
L 266.826886 329.150709 
L 248.056223 345.165504 
L 180.031951 363.6 
L 182.37938 363.6 
L 184.726809 363.6 
L 187.074238 363.6 
L 189.421667 363.6 
L 191.769097 363.6 
L 194.116526 363.6 
L 196.463955 363.6 
L 198.811384 363.6 
L 201.158813 363.6 
L 203.506243 363.6 
L 205.853672 363.6 
L 208.201101 363.6 
L 210.54853 363.6 
L 212.895959 363.6 
L 215.243388 363.6 
L 217.590818 363.6 
L 219.938247 363.6 
L 222.285676 363.6 
L 224.633105 363.6 
L 226.980534 363.6 
L 229.327964 363.6 
L 231.675393 363.6 
L 234.022822 363.6 
L 273.178578 354.306434 
" clip-path="url(#p8fc4776308)" style="fill: #88b04b; opacity: 0.625; stroke: #88b04b; stroke-linejoin: miter"/>
   </g>
   <g id="patch_36">
    <path d="M 313.040824 441.937002 
L 299.374314 441.976397 
L 285.059856 452.455517 
L 278.576503 459.070866 
L 280.890481 458.23712 
L 289.44978 451.569656 
L 300.510021 442.227711 
L 310.598577 433.139201 
L 317.350514 426.248804 
L 319.805245 422.266833 
L 318.241396 420.80141 
L 313.688027 420.844403 
L 307.334064 421.428501 
L 300.091674 422.123331 
L 292.498419 423.083696 
L 284.976081 424.624797 
L 278.275075 426.63624 
L 273.806485 428.354868 
L 273.507784 428.975885 
L 278.803691 429.357459 
L 288.079482 434.859867 
L 292.56337 459.123136 
L 274.515975 527.251131 
L 275.68969 525.218198 
L 276.863405 523.185265 
L 278.037119 521.152331 
L 279.210834 519.119398 
L 280.384548 517.086465 
L 281.558263 515.053531 
L 282.731977 513.020598 
L 283.905692 510.987665 
L 285.079407 508.954731 
L 286.253121 506.921798 
L 287.426836 504.888865 
L 288.60055 502.855932 
L 289.774265 500.822998 
L 290.94798 498.790065 
L 292.121694 496.757132 
L 293.295409 494.724198 
L 294.469123 492.691265 
L 295.642838 490.658332 
L 296.816553 488.625398 
L 297.990267 486.592465 
L 299.163982 484.559532 
L 300.337696 482.526598 
L 301.511411 480.493665 
L 313.040824 441.937002 
" clip-path="url(#p8fc4776308)" style="fill: #88b04b; opacity: 0.625; stroke: #88b04b; stroke-linejoin: miter"/>
   </g>
   <g id="patch_37">
    <path d="M 408.862246 451.230569 
L 402.063108 463.085811 
L 403.981063 480.722056 
L 406.468446 489.644478 
L 406.903391 487.223642 
L 405.408846 476.477339 
L 402.848605 462.227917 
L 400.022003 448.946717 
L 397.430712 439.654169 
L 395.20959 435.537324 
L 393.158572 436.158945 
L 390.919121 440.123776 
L 388.247983 445.918518 
L 385.228529 452.538026 
L 382.263601 459.594161 
L 379.837065 466.879247 
L 378.228523 473.68821 
L 377.482603 478.417436 
L 377.871069 478.986628 
L 380.849476 474.591024 
L 390.252596 469.309158 
L 413.507147 477.557631 
L 463.484025 527.251131 
L 462.31031 525.218198 
L 461.136595 523.185265 
L 459.962881 521.152331 
L 458.789166 519.119398 
L 457.615452 517.086465 
L 456.441737 515.053531 
L 455.268023 513.020598 
L 454.094308 510.987665 
L 452.920593 508.954731 
L 451.746879 506.921798 
L 450.573164 504.888865 
L 449.39945 502.855932 
L 448.225735 500.822998 
L 447.05202 498.790065 
L 445.878306 496.757132 
L 444.704591 494.724198 
L 443.530877 492.691265 
L 442.357162 490.658332 
L 441.183447 488.625398 
L 440.009733 486.592465 
L 438.836018 484.559532 
L 437.662304 482.526598 
L 436.488589 480.493665 
L 408.862246 451.230569 
" clip-path="url(#p8fc4776308)" style="fill: #88b04b; opacity: 0.625; stroke: #88b04b; stroke-linejoin: miter"/>
   </g>
   <g id="line2d_1">
    <path d="M 542.820503 319.822444 
L 576.592831 297.911175 
L 574.563702 284.883434 
L 557.531822 287.003834 
L 542.598887 299.23992 
L 538.670871 314.343362 
L 545.532791 327.098514 
L 557.145556 335.390657 
L 566.411797 339.579991 
L 568.734264 341.243616 
L 563.174238 341.9866 
L 551.522822 342.730155 
L 536.45797 343.602384 
L 520.05731 344.281418 
L 503.467595 344.436066 
L 487.799796 343.864375 
L 475.606026 342.102565 
L 471.80814 337.648833 
L 482.815709 327.424099 
L 512.838334 307.547063 
L 557.008756 276.885442 
L 591.748602 245.411896 
L 563.822775 251.119018 
L 558.740442 254.053305 
L 553.658109 256.987591 
L 548.575775 259.921878 
L 543.493442 262.856164 
L 538.411109 265.790451 
L 533.328776 268.724737 
L 528.246442 271.659024 
L 523.164109 274.59331 
L 518.081776 277.527597 
L 512.999443 280.461883 
L 507.917109 283.39617 
L 502.834776 286.330456 
L 497.752443 289.264743 
L 492.670109 292.199029 
L 487.587776 295.133315 
L 482.505443 298.067602 
L 477.42311 301.001888 
L 472.340776 303.936175 
L 467.258443 306.870461 
L 462.17611 309.804748 
L 457.093777 312.739034 
L 452.011443 315.673321 
L 446.92911 318.607607 
L 542.820503 319.822444 
" clip-path="url(#p8fc4776308)" style="fill: none; stroke: #5d8aa8; stroke-width: 1.5; stroke-linecap: square"/>
   </g>
   <g id="line2d_2">
    <path d="M 417.997775 191.178251 
L 415.908224 150.974923 
L 403.611305 146.218329 
L 396.931685 162.02857 
L 400.061979 181.078914 
L 411.177936 192.032396 
L 425.655182 192.467375 
L 438.64277 186.556497 
L 446.903961 180.626364 
L 449.505935 179.446861 
L 447.369365 184.633477 
L 442.187595 195.095677 
L 435.410541 208.578335 
L 427.798273 223.121241 
L 419.637344 237.565679 
L 411.308345 250.848546 
L 403.685688 260.527756 
L 397.9297 261.589956 
L 394.578606 246.944754 
L 392.375899 211.00588 
L 387.907368 157.422363 
L 378.0204 111.6 
L 369 138.638037 
L 369 144.50661 
L 369 150.375182 
L 369 156.243755 
L 369 162.112328 
L 369 167.980901 
L 369 173.849474 
L 369 179.718047 
L 369 185.58662 
L 369 191.455193 
L 369 197.323766 
L 369 203.192339 
L 369 209.060912 
L 369 214.929485 
L 369 220.798058 
L 369 226.666631 
L 369 232.535204 
L 369 238.403777 
L 369 244.27235 
L 369 250.140923 
L 369 256.009496 
L 369 261.878069 
L 369 267.746642 
L 369 273.615215 
L 417.997775 191.178251 
" clip-path="url(#p8fc4776308)" style="fill: none; stroke: #5d8aa8; stroke-width: 1.5; stroke-linecap: square"/>
   </g>
   <g id="line2d_3">
    <path d="M 244.177273 234.955807 
L 208.315394 216.663747 
L 198.047603 224.934895 
L 208.399863 238.624736 
L 226.463092 245.438994 
L 241.507064 241.289034 
L 249.12239 228.968861 
L 250.497214 214.76584 
L 249.492164 204.646373 
L 249.771671 201.803246 
L 253.195127 206.246877 
L 259.664773 215.965522 
L 267.952571 228.575952 
L 276.740962 242.439823 
L 285.169749 256.729613 
L 292.508549 270.584171 
L 297.079662 282.025191 
L 295.12156 287.541123 
L 280.762897 283.120655 
L 248.537565 267.058818 
L 199.898612 244.13692 
L 155.271798 229.788104 
L 174.177225 251.119018 
L 179.259558 254.053305 
L 184.341891 256.987591 
L 189.424225 259.921878 
L 194.506558 262.856164 
L 199.588891 265.790451 
L 204.671224 268.724737 
L 209.753558 271.659024 
L 214.835891 274.59331 
L 219.918224 277.527597 
L 225.000557 280.461883 
L 230.082891 283.39617 
L 235.165224 286.330456 
L 240.247557 289.264743 
L 245.329891 292.199029 
L 250.412224 295.133315 
L 255.494557 298.067602 
L 260.57689 301.001888 
L 265.659224 303.936175 
L 270.741557 306.870461 
L 275.82389 309.804748 
L 280.906223 312.739034 
L 285.988557 315.673321 
L 291.07089 318.607607 
L 244.177273 234.955807 
" clip-path="url(#p8fc4776308)" style="fill: none; stroke: #5d8aa8; stroke-width: 1.5; stroke-linecap: square"/>
   </g>
   <g id="line2d_4">
    <path d="M 195.179497 407.377556 
L 161.407169 429.288825 
L 163.436298 442.316566 
L 180.468178 440.196166 
L 195.401113 427.96008 
L 199.329129 412.856638 
L 192.467209 400.101486 
L 180.854444 391.809343 
L 171.588203 387.620009 
L 169.265736 385.956384 
L 174.825762 385.2134 
L 186.477178 384.469845 
L 201.54203 383.597616 
L 217.94269 382.918582 
L 234.532405 382.763934 
L 250.200204 383.335625 
L 262.393974 385.097435 
L 266.19186 389.551167 
L 255.184291 399.775901 
L 225.161666 419.652937 
L 180.991244 450.314558 
L 146.251398 481.788104 
L 174.177225 476.080982 
L 179.259558 473.146695 
L 184.341891 470.212409 
L 189.424225 467.278122 
L 194.506558 464.343836 
L 199.588891 461.409549 
L 204.671224 458.475263 
L 209.753558 455.540976 
L 214.835891 452.60669 
L 219.918224 449.672403 
L 225.000557 446.738117 
L 230.082891 443.80383 
L 235.165224 440.869544 
L 240.247557 437.935257 
L 245.329891 435.000971 
L 250.412224 432.066685 
L 255.494557 429.132398 
L 260.57689 426.198112 
L 265.659224 423.263825 
L 270.741557 420.329539 
L 275.82389 417.395252 
L 280.906223 414.460966 
L 285.988557 411.526679 
L 291.07089 408.592393 
L 195.179497 407.377556 
" clip-path="url(#p8fc4776308)" style="fill: none; stroke: #5d8aa8; stroke-width: 1.5; stroke-linecap: square"/>
   </g>
   <g id="line2d_5">
    <path d="M 320.002225 536.021749 
L 322.091776 576.225077 
L 334.388695 580.981671 
L 341.068315 565.17143 
L 337.938021 546.121086 
L 326.822064 535.167604 
L 312.344818 534.732625 
L 299.35723 540.643503 
L 291.096039 546.573636 
L 288.494065 547.753139 
L 290.630635 542.566523 
L 295.812405 532.104323 
L 302.589459 518.621665 
L 310.201727 504.078759 
L 318.362656 489.634321 
L 326.691655 476.351454 
L 334.314312 466.672244 
L 340.0703 465.610044 
L 343.421394 480.255246 
L 345.624101 516.19412 
L 350.092632 569.777637 
L 359.9796 615.6 
L 369 588.561963 
L 369 582.69339 
L 369 576.824818 
L 369 570.956245 
L 369 565.087672 
L 369 559.219099 
L 369 553.350526 
L 369 547.481953 
L 369 541.61338 
L 369 535.744807 
L 369 529.876234 
L 369 524.007661 
L 369 518.139088 
L 369 512.270515 
L 369 506.401942 
L 369 500.533369 
L 369 494.664796 
L 369 488.796223 
L 369 482.92765 
L 369 477.059077 
L 369 471.190504 
L 369 465.321931 
L 369 459.453358 
L 369 453.584785 
L 320.002225 536.021749 
" clip-path="url(#p8fc4776308)" style="fill: none; stroke: #5d8aa8; stroke-width: 1.5; stroke-linecap: square"/>
   </g>
   <g id="line2d_6">
    <path d="M 493.822727 492.244193 
L 529.684606 510.536253 
L 539.952397 502.265105 
L 529.600137 488.575264 
L 511.536908 481.761006 
L 496.492936 485.910966 
L 488.87761 498.231139 
L 487.502786 512.43416 
L 488.507836 522.553627 
L 488.228329 525.396754 
L 484.804873 520.953123 
L 478.335227 511.234478 
L 470.047429 498.624048 
L 461.259038 484.760177 
L 452.830251 470.470387 
L 445.491451 456.615829 
L 440.920338 445.174809 
L 442.87844 439.658877 
L 457.237103 444.079345 
L 489.462435 460.141182 
L 538.101388 483.06308 
L 582.728202 497.411896 
L 563.822775 476.080982 
L 558.740442 473.146695 
L 553.658109 470.212409 
L 548.575775 467.278122 
L 543.493442 464.343836 
L 538.411109 461.409549 
L 533.328776 458.475263 
L 528.246442 455.540976 
L 523.164109 452.60669 
L 518.081776 449.672403 
L 512.999443 446.738117 
L 507.917109 443.80383 
L 502.834776 440.869544 
L 497.752443 437.935257 
L 492.670109 435.000971 
L 487.587776 432.066685 
L 482.505443 429.132398 
L 477.42311 426.198112 
L 472.340776 423.263825 
L 467.258443 420.329539 
L 462.17611 417.395252 
L 457.093777 414.460966 
L 452.011443 411.526679 
L 446.92911 408.592393 
L 493.822727 492.244193 
" clip-path="url(#p8fc4776308)" style="fill: none; stroke: #5d8aa8; stroke-width: 1.5; stroke-linecap: square"/>
   </g>
   <g id="line2d_7">
    <path d="M 542.820503 407.377556 
L 576.592831 429.288825 
L 574.563702 442.316566 
L 557.531822 440.196166 
L 542.598887 427.96008 
L 538.670871 412.856638 
L 545.532791 400.101486 
L 557.145556 391.809343 
L 566.411797 387.620009 
L 568.734264 385.956384 
L 563.174238 385.2134 
L 551.522822 384.469845 
L 536.45797 383.597616 
L 520.05731 382.918582 
L 503.467595 382.763934 
L 487.799796 383.335625 
L 475.606026 385.097435 
L 471.80814 389.551167 
L 482.815709 399.775901 
L 512.838334 419.652937 
L 557.008756 450.314558 
L 591.748602 481.788104 
L 563.822775 476.080982 
L 558.740442 473.146695 
L 553.658109 470.212409 
L 548.575775 467.278122 
L 543.493442 464.343836 
L 538.411109 461.409549 
L 533.328776 458.475263 
L 528.246442 455.540976 
L 523.164109 452.60669 
L 518.081776 449.672403 
L 512.999443 446.738117 
L 507.917109 443.80383 
L 502.834776 440.869544 
L 497.752443 437.935257 
L 492.670109 435.000971 
L 487.587776 432.066685 
L 482.505443 429.132398 
L 477.42311 426.198112 
L 472.340776 423.263825 
L 467.258443 420.329539 
L 462.17611 417.395252 
L 457.093777 414.460966 
L 452.011443 411.526679 
L 446.92911 408.592393 
L 542.820503 407.377556 
" clip-path="url(#p8fc4776308)" style="fill: none; stroke: #5d8aa8; stroke-width: 1.5; stroke-linecap: square"/>
   </g>
   <g id="line2d_8">
    <path d="M 493.822727 234.955807 
L 529.684606 216.663747 
L 539.952397 224.934895 
L 529.600137 238.624736 
L 511.536908 245.438994 
L 496.492936 241.289034 
L 488.87761 228.968861 
L 487.502786 214.76584 
L 488.507836 204.646373 
L 488.228329 201.803246 
L 484.804873 206.246877 
L 478.335227 215.965522 
L 470.047429 228.575952 
L 461.259038 242.439823 
L 452.830251 256.729613 
L 445.491451 270.584171 
L 440.920338 282.025191 
L 442.87844 287.541123 
L 457.237103 283.120655 
L 489.462435 267.058818 
L 538.101388 244.13692 
L 582.728202 229.788104 
L 563.822775 251.119018 
L 558.740442 254.053305 
L 553.658109 256.987591 
L 548.575775 259.921878 
L 543.493442 262.856164 
L 538.411109 265.790451 
L 533.328776 268.724737 
L 528.246442 271.659024 
L 523.164109 274.59331 
L 518.081776 277.527597 
L 512.999443 280.461883 
L 507.917109 283.39617 
L 502.834776 286.330456 
L 497.752443 289.264743 
L 492.670109 292.199029 
L 487.587776 295.133315 
L 482.505443 298.067602 
L 477.42311 301.001888 
L 472.340776 303.936175 
L 467.258443 306.870461 
L 462.17611 309.804748 
L 457.093777 312.739034 
L 452.011443 315.673321 
L 446.92911 318.607607 
L 493.822727 234.955807 
" clip-path="url(#p8fc4776308)" style="fill: none; stroke: #5d8aa8; stroke-width: 1.5; stroke-linecap: square"/>
   </g>
   <g id="line2d_9">
    <path d="M 320.002225 191.178251 
L 322.091776 150.974923 
L 334.388695 146.218329 
L 341.068315 162.02857 
L 337.938021 181.078914 
L 326.822064 192.032396 
L 312.344818 192.467375 
L 299.35723 186.556497 
L 291.096039 180.626364 
L 288.494065 179.446861 
L 290.630635 184.633477 
L 295.812405 195.095677 
L 302.589459 208.578335 
L 310.201727 223.121241 
L 318.362656 237.565679 
L 326.691655 250.848546 
L 334.314312 260.527756 
L 340.0703 261.589956 
L 343.421394 246.944754 
L 345.624101 211.00588 
L 350.092632 157.422363 
L 359.9796 111.6 
L 369 138.638037 
L 369 144.50661 
L 369 150.375182 
L 369 156.243755 
L 369 162.112328 
L 369 167.980901 
L 369 173.849474 
L 369 179.718047 
L 369 185.58662 
L 369 191.455193 
L 369 197.323766 
L 369 203.192339 
L 369 209.060912 
L 369 214.929485 
L 369 220.798058 
L 369 226.666631 
L 369 232.535204 
L 369 238.403777 
L 369 244.27235 
L 369 250.140923 
L 369 256.009496 
L 369 261.878069 
L 369 267.746642 
L 369 273.615215 
L 320.002225 191.178251 
" clip-path="url(#p8fc4776308)" style="fill: none; stroke: #5d8aa8; stroke-width: 1.5; stroke-linecap: square"/>
   </g>
   <g id="line2d_10">
    <path d="M 195.179497 319.822444 
L 161.407169 297.911175 
L 163.436298 284.883434 
L 180.468178 287.003834 
L 195.401113 299.23992 
L 199.329129 314.343362 
L 192.467209 327.098514 
L 180.854444 335.390657 
L 171.588203 339.579991 
L 169.265736 341.243616 
L 174.825762 341.9866 
L 186.477178 342.730155 
L 201.54203 343.602384 
L 217.94269 344.281418 
L 234.532405 344.436066 
L 250.200204 343.864375 
L 262.393974 342.102565 
L 266.19186 337.648833 
L 255.184291 327.424099 
L 225.161666 307.547063 
L 180.991244 276.885442 
L 146.251398 245.411896 
L 174.177225 251.119018 
L 179.259558 254.053305 
L 184.341891 256.987591 
L 189.424225 259.921878 
L 194.506558 262.856164 
L 199.588891 265.790451 
L 204.671224 268.724737 
L 209.753558 271.659024 
L 214.835891 274.59331 
L 219.918224 277.527597 
L 225.000557 280.461883 
L 230.082891 283.39617 
L 235.165224 286.330456 
L 240.247557 289.264743 
L 245.329891 292.199029 
L 250.412224 295.133315 
L 255.494557 298.067602 
L 260.57689 301.001888 
L 265.659224 303.936175 
L 270.741557 306.870461 
L 275.82389 309.804748 
L 280.906223 312.739034 
L 285.988557 315.673321 
L 291.07089 318.607607 
L 195.179497 319.822444 
" clip-path="url(#p8fc4776308)" style="fill: none; stroke: #5d8aa8; stroke-width: 1.5; stroke-linecap: square"/>
   </g>
   <g id="line2d_11">
    <path d="M 244.177273 492.244193 
L 208.315394 510.536253 
L 198.047603 502.265105 
L 208.399863 488.575264 
L 226.463092 481.761006 
L 241.507064 485.910966 
L 249.12239 498.231139 
L 250.497214 512.43416 
L 249.492164 522.553627 
L 249.771671 525.396754 
L 253.195127 520.953123 
L 259.664773 511.234478 
L 267.952571 498.624048 
L 276.740962 484.760177 
L 285.169749 470.470387 
L 292.508549 456.615829 
L 297.079662 445.174809 
L 295.12156 439.658877 
L 280.762897 444.079345 
L 248.537565 460.141182 
L 199.898612 483.06308 
L 155.271798 497.411896 
L 174.177225 476.080982 
L 179.259558 473.146695 
L 184.341891 470.212409 
L 189.424225 467.278122 
L 194.506558 464.343836 
L 199.588891 461.409549 
L 204.671224 458.475263 
L 209.753558 455.540976 
L 214.835891 452.60669 
L 219.918224 449.672403 
L 225.000557 446.738117 
L 230.082891 443.80383 
L 235.165224 440.869544 
L 240.247557 437.935257 
L 245.329891 435.000971 
L 250.412224 432.066685 
L 255.494557 429.132398 
L 260.57689 426.198112 
L 265.659224 423.263825 
L 270.741557 420.329539 
L 275.82389 417.395252 
L 280.906223 414.460966 
L 285.988557 411.526679 
L 291.07089 408.592393 
L 244.177273 492.244193 
" clip-path="url(#p8fc4776308)" style="fill: none; stroke: #5d8aa8; stroke-width: 1.5; stroke-linecap: square"/>
   </g>
   <g id="line2d_12">
    <path d="M 417.997775 536.021749 
L 415.908224 576.225077 
L 403.611305 580.981671 
L 396.931685 565.17143 
L 400.061979 546.121086 
L 411.177936 535.167604 
L 425.655182 534.732625 
L 438.64277 540.643503 
L 446.903961 546.573636 
L 449.505935 547.753139 
L 447.369365 542.566523 
L 442.187595 532.104323 
L 435.410541 518.621665 
L 427.798273 504.078759 
L 419.637344 489.634321 
L 411.308345 476.351454 
L 403.685688 466.672244 
L 397.9297 465.610044 
L 394.578606 480.255246 
L 392.375899 516.19412 
L 387.907368 569.777637 
L 378.0204 615.6 
L 369 588.561963 
L 369 582.69339 
L 369 576.824818 
L 369 570.956245 
L 369 565.087672 
L 369 559.219099 
L 369 553.350526 
L 369 547.481953 
L 369 541.61338 
L 369 535.744807 
L 369 529.876234 
L 369 524.007661 
L 369 518.139088 
L 369 512.270515 
L 369 506.401942 
L 369 500.533369 
L 369 494.664796 
L 369 488.796223 
L 369 482.92765 
L 369 477.059077 
L 369 471.190504 
L 369 465.321931 
L 369 459.453358 
L 369 453.584785 
L 417.997775 536.021749 
" clip-path="url(#p8fc4776308)" style="fill: none; stroke: #5d8aa8; stroke-width: 1.5; stroke-linecap: square"/>
   </g>
   <g id="line2d_13">
    <path d="M 459.633678 320.748383 
L 449.733008 338.609222 
L 460.915583 337.39688 
L 477.494418 326.688625 
L 491.149917 314.502973 
L 498.627725 305.443642 
L 500.349883 300.771958 
L 498.452115 299.84905 
L 495.041389 301.609007 
L 491.417162 305.28086 
L 488.246899 310.382503 
L 486.170914 316.453721 
L 486.278397 322.95298 
L 490.156089 329.414435 
L 499.46968 335.655314 
L 515.149251 341.759586 
L 536.291569 347.763915 
L 559.056203 353.263694 
L 576.193493 357.280528 
L 578.135799 358.513277 
L 556.178979 355.605793 
L 506.546242 346.680136 
L 431.343288 327.606086 
L 435.409155 325.258657 
L 439.475021 322.911227 
L 443.540888 320.563798 
L 447.606755 318.216369 
L 451.672621 315.86894 
L 455.738488 313.521511 
L 459.804354 311.174082 
L 463.870221 308.826652 
L 467.936088 306.479223 
L 472.001954 304.131794 
L 476.067821 301.784365 
L 480.133687 299.436936 
L 484.199554 297.089506 
L 488.265421 294.742077 
L 492.331287 292.394648 
L 496.397154 290.047219 
L 500.463021 287.69979 
L 504.528887 285.352361 
L 508.594754 283.004931 
L 512.66062 280.657502 
L 516.726487 278.310073 
L 520.792354 275.962644 
L 524.85822 273.615215 
L 459.633678 320.748383 
" clip-path="url(#p8fc4776308)" style="fill: none; stroke: #e0e0e0; stroke-width: 1.5; stroke-linecap: square"/>
   </g>
   <g id="line2d_14">
    <path d="M 377.20625 263.683124 
L 387.723855 281.187775 
L 392.265224 270.89721 
L 391.281021 251.185391 
L 387.555686 233.266555 
L 383.44898 222.260918 
L 380.264261 218.433643 
L 378.516115 219.615705 
L 378.33492 223.449458 
L 379.702724 228.424058 
L 382.535745 233.720407 
L 386.755581 238.553873 
L 392.437847 241.710419 
L 399.972476 241.582966 
L 410.034032 236.6376 
L 423.160272 226.110829 
L 438.931333 210.803209 
L 455.076598 193.838347 
L 467.123923 181.005436 
L 469.162668 179.939723 
L 455.666303 197.501146 
L 423.120089 236.021528 
L 369 291.612172 
L 369 286.917313 
L 369 282.222455 
L 369 277.527597 
L 369 272.832738 
L 369 268.13788 
L 369 263.443021 
L 369 258.748163 
L 369 254.053305 
L 369 249.358446 
L 369 244.663588 
L 369 239.96873 
L 369 235.273871 
L 369 230.579013 
L 369 225.884155 
L 369 221.189296 
L 369 216.494438 
L 369 211.799579 
L 369 207.104721 
L 369 202.409863 
L 369 197.715004 
L 369 193.020146 
L 369 188.325288 
L 369 183.630429 
L 377.20625 263.683124 
" clip-path="url(#p8fc4776308)" style="fill: none; stroke: #e0e0e0; stroke-width: 1.5; stroke-linecap: square"/>
   </g>
   <g id="line2d_15">
    <path d="M 286.572572 306.534741 
L 306.990847 306.178553 
L 300.349641 297.10033 
L 282.786603 288.096765 
L 265.405769 282.363583 
L 253.821254 280.417276 
L 248.914378 281.261685 
L 249.064 283.366655 
L 252.29353 285.440451 
L 257.285562 286.743198 
L 263.288846 286.937904 
L 269.584668 285.700152 
L 275.15945 282.357439 
L 278.816387 275.768532 
L 279.564352 264.582286 
L 277.011022 247.951243 
L 271.639764 226.639293 
L 265.020394 204.174653 
L 259.93043 187.324908 
L 260.026869 185.026447 
L 268.487325 205.495353 
L 285.573847 252.941392 
L 306.656712 327.606086 
L 302.590845 325.258657 
L 298.524979 322.911227 
L 294.459112 320.563798 
L 290.393245 318.216369 
L 286.327379 315.86894 
L 282.261512 313.521511 
L 278.195646 311.174082 
L 274.129779 308.826652 
L 270.063912 306.479223 
L 265.998046 304.131794 
L 261.932179 301.784365 
L 257.866313 299.436936 
L 253.800446 297.089506 
L 249.734579 294.742077 
L 245.668713 292.394648 
L 241.602846 290.047219 
L 237.536979 287.69979 
L 233.471113 285.352361 
L 229.405246 283.004931 
L 225.33938 280.657502 
L 221.273513 278.310073 
L 217.207646 275.962644 
L 213.14178 273.615215 
L 286.572572 306.534741 
" clip-path="url(#p8fc4776308)" style="fill: none; stroke: #e0e0e0; stroke-width: 1.5; stroke-linecap: square"/>
   </g>
   <g id="line2d_16">
    <path d="M 278.366322 406.451617 
L 288.266992 388.590778 
L 277.084417 389.80312 
L 260.505582 400.511375 
L 246.850083 412.697027 
L 239.372275 421.756358 
L 237.650117 426.428042 
L 239.547885 427.35095 
L 242.958611 425.590993 
L 246.582838 421.91914 
L 249.753101 416.817497 
L 251.829086 410.746279 
L 251.721603 404.24702 
L 247.843911 397.785565 
L 238.53032 391.544686 
L 222.850749 385.440414 
L 201.708431 379.436085 
L 178.943797 373.936306 
L 161.806507 369.919472 
L 159.864201 368.686723 
L 181.821021 371.594207 
L 231.453758 380.519864 
L 306.656712 399.593914 
L 302.590845 401.941343 
L 298.524979 404.288773 
L 294.459112 406.636202 
L 290.393245 408.983631 
L 286.327379 411.33106 
L 282.261512 413.678489 
L 278.195646 416.025918 
L 274.129779 418.373348 
L 270.063912 420.720777 
L 265.998046 423.068206 
L 261.932179 425.415635 
L 257.866313 427.763064 
L 253.800446 430.110494 
L 249.734579 432.457923 
L 245.668713 434.805352 
L 241.602846 437.152781 
L 237.536979 439.50021 
L 233.471113 441.847639 
L 229.405246 444.195069 
L 225.33938 446.542498 
L 221.273513 448.889927 
L 217.207646 451.237356 
L 213.14178 453.584785 
L 278.366322 406.451617 
" clip-path="url(#p8fc4776308)" style="fill: none; stroke: #e0e0e0; stroke-width: 1.5; stroke-linecap: square"/>
   </g>
   <g id="line2d_17">
    <path d="M 360.79375 463.516876 
L 350.276145 446.012225 
L 345.734776 456.30279 
L 346.718979 476.014609 
L 350.444314 493.933445 
L 354.55102 504.939082 
L 357.735739 508.766357 
L 359.483885 507.584295 
L 359.66508 503.750542 
L 358.297276 498.775942 
L 355.464255 493.479593 
L 351.244419 488.646127 
L 345.562153 485.489581 
L 338.027524 485.617034 
L 327.965968 490.5624 
L 314.839728 501.089171 
L 299.068667 516.396791 
L 282.923402 533.361653 
L 270.876077 546.194564 
L 268.837332 547.260277 
L 282.333697 529.698854 
L 314.879911 491.178472 
L 369 435.587828 
L 369 440.282687 
L 369 444.977545 
L 369 449.672403 
L 369 454.367262 
L 369 459.06212 
L 369 463.756979 
L 369 468.451837 
L 369 473.146695 
L 369 477.841554 
L 369 482.536412 
L 369 487.23127 
L 369 491.926129 
L 369 496.620987 
L 369 501.315845 
L 369 506.010704 
L 369 510.705562 
L 369 515.400421 
L 369 520.095279 
L 369 524.790137 
L 369 529.484996 
L 369 534.179854 
L 369 538.874712 
L 369 543.569571 
L 360.79375 463.516876 
" clip-path="url(#p8fc4776308)" style="fill: none; stroke: #e0e0e0; stroke-width: 1.5; stroke-linecap: square"/>
   </g>
   <g id="line2d_18">
    <path d="M 451.427428 420.665259 
L 431.009153 421.021447 
L 437.650359 430.09967 
L 455.213397 439.103235 
L 472.594231 444.836417 
L 484.178746 446.782724 
L 489.085622 445.938315 
L 488.936 443.833345 
L 485.70647 441.759549 
L 480.714438 440.456802 
L 474.711154 440.262096 
L 468.415332 441.499848 
L 462.84055 444.842561 
L 459.183613 451.431468 
L 458.435648 462.617714 
L 460.988978 479.248757 
L 466.360236 500.560707 
L 472.979606 523.025347 
L 478.06957 539.875092 
L 477.973131 542.173553 
L 469.512675 521.704647 
L 452.426153 474.258608 
L 431.343288 399.593914 
L 435.409155 401.941343 
L 439.475021 404.288773 
L 443.540888 406.636202 
L 447.606755 408.983631 
L 451.672621 411.33106 
L 455.738488 413.678489 
L 459.804354 416.025918 
L 463.870221 418.373348 
L 467.936088 420.720777 
L 472.001954 423.068206 
L 476.067821 425.415635 
L 480.133687 427.763064 
L 484.199554 430.110494 
L 488.265421 432.457923 
L 492.331287 434.805352 
L 496.397154 437.152781 
L 500.463021 439.50021 
L 504.528887 441.847639 
L 508.594754 444.195069 
L 512.66062 446.542498 
L 516.726487 448.889927 
L 520.792354 451.237356 
L 524.85822 453.584785 
L 451.427428 420.665259 
" clip-path="url(#p8fc4776308)" style="fill: none; stroke: #e0e0e0; stroke-width: 1.5; stroke-linecap: square"/>
   </g>
   <g id="line2d_19">
    <path d="M 459.633678 406.451617 
L 449.733008 388.590778 
L 460.915583 389.80312 
L 477.494418 400.511375 
L 491.149917 412.697027 
L 498.627725 421.756358 
L 500.349883 426.428042 
L 498.452115 427.35095 
L 495.041389 425.590993 
L 491.417162 421.91914 
L 488.246899 416.817497 
L 486.170914 410.746279 
L 486.278397 404.24702 
L 490.156089 397.785565 
L 499.46968 391.544686 
L 515.149251 385.440414 
L 536.291569 379.436085 
L 559.056203 373.936306 
L 576.193493 369.919472 
L 578.135799 368.686723 
L 556.178979 371.594207 
L 506.546242 380.519864 
L 431.343288 399.593914 
L 435.409155 401.941343 
L 439.475021 404.288773 
L 443.540888 406.636202 
L 447.606755 408.983631 
L 451.672621 411.33106 
L 455.738488 413.678489 
L 459.804354 416.025918 
L 463.870221 418.373348 
L 467.936088 420.720777 
L 472.001954 423.068206 
L 476.067821 425.415635 
L 480.133687 427.763064 
L 484.199554 430.110494 
L 488.265421 432.457923 
L 492.331287 434.805352 
L 496.397154 437.152781 
L 500.463021 439.50021 
L 504.528887 441.847639 
L 508.594754 444.195069 
L 512.66062 446.542498 
L 516.726487 448.889927 
L 520.792354 451.237356 
L 524.85822 453.584785 
L 459.633678 406.451617 
" clip-path="url(#p8fc4776308)" style="fill: none; stroke: #e0e0e0; stroke-width: 1.5; stroke-linecap: square"/>
   </g>
   <g id="line2d_20">
    <path d="M 451.427428 306.534741 
L 431.009153 306.178553 
L 437.650359 297.10033 
L 455.213397 288.096765 
L 472.594231 282.363583 
L 484.178746 280.417276 
L 489.085622 281.261685 
L 488.936 283.366655 
L 485.70647 285.440451 
L 480.714438 286.743198 
L 474.711154 286.937904 
L 468.415332 285.700152 
L 462.84055 282.357439 
L 459.183613 275.768532 
L 458.435648 264.582286 
L 460.988978 247.951243 
L 466.360236 226.639293 
L 472.979606 204.174653 
L 478.06957 187.324908 
L 477.973131 185.026447 
L 469.512675 205.495353 
L 452.426153 252.941392 
L 431.343288 327.606086 
L 435.409155 325.258657 
L 439.475021 322.911227 
L 443.540888 320.563798 
L 447.606755 318.216369 
L 451.672621 315.86894 
L 455.738488 313.521511 
L 459.804354 311.174082 
L 463.870221 308.826652 
L 467.936088 306.479223 
L 472.001954 304.131794 
L 476.067821 301.784365 
L 480.133687 299.436936 
L 484.199554 297.089506 
L 488.265421 294.742077 
L 492.331287 292.394648 
L 496.397154 290.047219 
L 500.463021 287.69979 
L 504.528887 285.352361 
L 508.594754 283.004931 
L 512.66062 280.657502 
L 516.726487 278.310073 
L 520.792354 275.962644 
L 524.85822 273.615215 
L 451.427428 306.534741 
" clip-path="url(#p8fc4776308)" style="fill: none; stroke: #e0e0e0; stroke-width: 1.5; stroke-linecap: square"/>
   </g>
   <g id="line2d_21">
    <path d="M 360.79375 263.683124 
L 350.276145 281.187775 
L 345.734776 270.89721 
L 346.718979 251.185391 
L 350.444314 233.266555 
L 354.55102 222.260918 
L 357.735739 218.433643 
L 359.483885 219.615705 
L 359.66508 223.449458 
L 358.297276 228.424058 
L 355.464255 233.720407 
L 351.244419 238.553873 
L 345.562153 241.710419 
L 338.027524 241.582966 
L 327.965968 236.6376 
L 314.839728 226.110829 
L 299.068667 210.803209 
L 282.923402 193.838347 
L 270.876077 181.005436 
L 268.837332 179.939723 
L 282.333697 197.501146 
L 314.879911 236.021528 
L 369 291.612172 
L 369 286.917313 
L 369 282.222455 
L 369 277.527597 
L 369 272.832738 
L 369 268.13788 
L 369 263.443021 
L 369 258.748163 
L 369 254.053305 
L 369 249.358446 
L 369 244.663588 
L 369 239.96873 
L 369 235.273871 
L 369 230.579013 
L 369 225.884155 
L 369 221.189296 
L 369 216.494438 
L 369 211.799579 
L 369 207.104721 
L 369 202.409863 
L 369 197.715004 
L 369 193.020146 
L 369 188.325288 
L 369 183.630429 
L 360.79375 263.683124 
" clip-path="url(#p8fc4776308)" style="fill: none; stroke: #e0e0e0; stroke-width: 1.5; stroke-linecap: square"/>
   </g>
   <g id="line2d_22">
    <path d="M 278.366322 320.748383 
L 288.266992 338.609222 
L 277.084417 337.39688 
L 260.505582 326.688625 
L 246.850083 314.502973 
L 239.372275 305.443642 
L 237.650117 300.771958 
L 239.547885 299.84905 
L 242.958611 301.609007 
L 246.582838 305.28086 
L 249.753101 310.382503 
L 251.829086 316.453721 
L 251.721603 322.95298 
L 247.843911 329.414435 
L 238.53032 335.655314 
L 222.850749 341.759586 
L 201.708431 347.763915 
L 178.943797 353.263694 
L 161.806507 357.280528 
L 159.864201 358.513277 
L 181.821021 355.605793 
L 231.453758 346.680136 
L 306.656712 327.606086 
L 302.590845 325.258657 
L 298.524979 322.911227 
L 294.459112 320.563798 
L 290.393245 318.216369 
L 286.327379 315.86894 
L 282.261512 313.521511 
L 278.195646 311.174082 
L 274.129779 308.826652 
L 270.063912 306.479223 
L 265.998046 304.131794 
L 261.932179 301.784365 
L 257.866313 299.436936 
L 253.800446 297.089506 
L 249.734579 294.742077 
L 245.668713 292.394648 
L 241.602846 290.047219 
L 237.536979 287.69979 
L 233.471113 285.352361 
L 229.405246 283.004931 
L 225.33938 280.657502 
L 221.273513 278.310073 
L 217.207646 275.962644 
L 213.14178 273.615215 
L 278.366322 320.748383 
" clip-path="url(#p8fc4776308)" style="fill: none; stroke: #e0e0e0; stroke-width: 1.5; stroke-linecap: square"/>
   </g>
   <g id="line2d_23">
    <path d="M 286.572572 420.665259 
L 306.990847 421.021447 
L 300.349641 430.09967 
L 282.786603 439.103235 
L 265.405769 444.836417 
L 253.821254 446.782724 
L 248.914378 445.938315 
L 249.064 443.833345 
L 252.29353 441.759549 
L 257.285562 440.456802 
L 263.288846 440.262096 
L 269.584668 441.499848 
L 275.15945 444.842561 
L 278.816387 451.431468 
L 279.564352 462.617714 
L 277.011022 479.248757 
L 271.639764 500.560707 
L 265.020394 523.025347 
L 259.93043 539.875092 
L 260.026869 542.173553 
L 268.487325 521.704647 
L 285.573847 474.258608 
L 306.656712 399.593914 
L 302.590845 401.941343 
L 298.524979 404.288773 
L 294.459112 406.636202 
L 290.393245 408.983631 
L 286.327379 411.33106 
L 282.261512 413.678489 
L 278.195646 416.025918 
L 274.129779 418.373348 
L 270.063912 420.720777 
L 265.998046 423.068206 
L 261.932179 425.415635 
L 257.866313 427.763064 
L 253.800446 430.110494 
L 249.734579 432.457923 
L 245.668713 434.805352 
L 241.602846 437.152781 
L 237.536979 439.50021 
L 233.471113 441.847639 
L 229.405246 444.195069 
L 225.33938 446.542498 
L 221.273513 448.889927 
L 217.207646 451.237356 
L 213.14178 453.584785 
L 286.572572 420.665259 
" clip-path="url(#p8fc4776308)" style="fill: none; stroke: #e0e0e0; stroke-width: 1.5; stroke-linecap: square"/>
   </g>
   <g id="line2d_24">
    <path d="M 377.20625 463.516876 
L 387.723855 446.012225 
L 392.265224 456.30279 
L 391.281021 476.014609 
L 387.555686 493.933445 
L 383.44898 504.939082 
L 380.264261 508.766357 
L 378.516115 507.584295 
L 378.33492 503.750542 
L 379.702724 498.775942 
L 382.535745 493.479593 
L 386.755581 488.646127 
L 392.437847 485.489581 
L 399.972476 485.617034 
L 410.034032 490.5624 
L 423.160272 501.089171 
L 438.931333 516.396791 
L 455.076598 533.361653 
L 467.123923 546.194564 
L 469.162668 547.260277 
L 455.666303 529.698854 
L 423.120089 491.178472 
L 369 435.587828 
L 369 440.282687 
L 369 444.977545 
L 369 449.672403 
L 369 454.367262 
L 369 459.06212 
L 369 463.756979 
L 369 468.451837 
L 369 473.146695 
L 369 477.841554 
L 369 482.536412 
L 369 487.23127 
L 369 491.926129 
L 369 496.620987 
L 369 501.315845 
L 369 506.010704 
L 369 510.705562 
L 369 515.400421 
L 369 520.095279 
L 369 524.790137 
L 369 529.484996 
L 369 534.179854 
L 369 538.874712 
L 369 543.569571 
L 377.20625 463.516876 
" clip-path="url(#p8fc4776308)" style="fill: none; stroke: #e0e0e0; stroke-width: 1.5; stroke-linecap: square"/>
   </g>
   <g id="line2d_25">
    <path d="M 464.821422 354.306434 
L 471.688793 342.490586 
L 487.921207 335.333461 
L 496.891944 333.026387 
L 495.01291 334.613478 
L 484.959067 338.692316 
L 471.338585 343.599793 
L 458.423427 347.792484 
L 449.080198 350.194635 
L 444.404345 350.329509 
L 443.917176 348.242465 
L 446.231094 344.320628 
L 449.913919 339.109983 
L 454.136855 333.185305 
L 458.765182 327.089536 
L 463.860984 321.34555 
L 468.953448 316.548031 
L 472.676118 313.537432 
L 473.363285 313.589257 
L 471.045785 318.366435 
L 471.173114 329.150709 
L 489.943777 345.165504 
L 557.968049 363.6 
L 555.62062 363.6 
L 553.273191 363.6 
L 550.925762 363.6 
L 548.578333 363.6 
L 546.230903 363.6 
L 543.883474 363.6 
L 541.536045 363.6 
L 539.188616 363.6 
L 536.841187 363.6 
L 534.493757 363.6 
L 532.146328 363.6 
L 529.798899 363.6 
L 527.45147 363.6 
L 525.104041 363.6 
L 522.756612 363.6 
L 520.409182 363.6 
L 518.061753 363.6 
L 515.714324 363.6 
L 513.366895 363.6 
L 511.019466 363.6 
L 508.672036 363.6 
L 506.324607 363.6 
L 503.977178 363.6 
L 464.821422 354.306434 
" clip-path="url(#p8fc4776308)" style="fill: none; stroke: #88b04b; stroke-width: 1.5; stroke-linecap: square"/>
   </g>
   <g id="line2d_26">
    <path d="M 408.862246 275.969431 
L 402.063108 264.114189 
L 403.981063 246.477944 
L 406.468446 237.555522 
L 406.903391 239.976358 
L 405.408846 250.722661 
L 402.848605 264.972083 
L 400.022003 278.253283 
L 397.430712 287.545831 
L 395.20959 291.662676 
L 393.158572 291.041055 
L 390.919121 287.076224 
L 388.247983 281.281482 
L 385.228529 274.661974 
L 382.263601 267.605839 
L 379.837065 260.320753 
L 378.228523 253.51179 
L 377.482603 248.782564 
L 377.871069 248.213372 
L 380.849476 252.608976 
L 390.252596 257.890842 
L 413.507147 249.642369 
L 463.484025 199.948869 
L 462.31031 201.981802 
L 461.136595 204.014735 
L 459.962881 206.047669 
L 458.789166 208.080602 
L 457.615452 210.113535 
L 456.441737 212.146469 
L 455.268023 214.179402 
L 454.094308 216.212335 
L 452.920593 218.245269 
L 451.746879 220.278202 
L 450.573164 222.311135 
L 449.39945 224.344068 
L 448.225735 226.377002 
L 447.05202 228.409935 
L 445.878306 230.442868 
L 444.704591 232.475802 
L 443.530877 234.508735 
L 442.357162 236.541668 
L 441.183447 238.574602 
L 440.009733 240.607535 
L 438.836018 242.640468 
L 437.662304 244.673402 
L 436.488589 246.706335 
L 408.862246 275.969431 
" clip-path="url(#p8fc4776308)" style="fill: none; stroke: #88b04b; stroke-width: 1.5; stroke-linecap: square"/>
   </g>
   <g id="line2d_27">
    <path d="M 313.040824 285.262998 
L 299.374314 285.223603 
L 285.059856 274.744483 
L 278.576503 268.129134 
L 280.890481 268.96288 
L 289.44978 275.630344 
L 300.510021 284.972289 
L 310.598577 294.060799 
L 317.350514 300.951196 
L 319.805245 304.933167 
L 318.241396 306.39859 
L 313.688027 306.355597 
L 307.334064 305.771499 
L 300.091674 305.076669 
L 292.498419 304.116304 
L 284.976081 302.575203 
L 278.275075 300.56376 
L 273.806485 298.845132 
L 273.507784 298.224115 
L 278.803691 297.842541 
L 288.079482 292.340133 
L 292.56337 268.076864 
L 274.515975 199.948869 
L 275.68969 201.981802 
L 276.863405 204.014735 
L 278.037119 206.047669 
L 279.210834 208.080602 
L 280.384548 210.113535 
L 281.558263 212.146469 
L 282.731977 214.179402 
L 283.905692 216.212335 
L 285.079407 218.245269 
L 286.253121 220.278202 
L 287.426836 222.311135 
L 288.60055 224.344068 
L 289.774265 226.377002 
L 290.94798 228.409935 
L 292.121694 230.442868 
L 293.295409 232.475802 
L 294.469123 234.508735 
L 295.642838 236.541668 
L 296.816553 238.574602 
L 297.990267 240.607535 
L 299.163982 242.640468 
L 300.337696 244.673402 
L 301.511411 246.706335 
L 313.040824 285.262998 
" clip-path="url(#p8fc4776308)" style="fill: none; stroke: #88b04b; stroke-width: 1.5; stroke-linecap: square"/>
   </g>
   <g id="line2d_28">
    <path d="M 273.178578 372.893566 
L 266.311207 384.709414 
L 250.078793 391.866539 
L 241.108056 394.173613 
L 242.98709 392.586522 
L 253.040933 388.507684 
L 266.661415 383.600207 
L 279.576573 379.407516 
L 288.919802 377.005365 
L 293.595655 376.870491 
L 294.082824 378.957535 
L 291.768906 382.879372 
L 288.086081 388.090017 
L 283.863145 394.014695 
L 279.234818 400.110464 
L 274.139016 405.85445 
L 269.046552 410.651969 
L 265.323882 413.662568 
L 264.636715 413.610743 
L 266.954215 408.833565 
L 266.826886 398.049291 
L 248.056223 382.034496 
L 180.031951 363.6 
L 182.37938 363.6 
L 184.726809 363.6 
L 187.074238 363.6 
L 189.421667 363.6 
L 191.769097 363.6 
L 194.116526 363.6 
L 196.463955 363.6 
L 198.811384 363.6 
L 201.158813 363.6 
L 203.506243 363.6 
L 205.853672 363.6 
L 208.201101 363.6 
L 210.54853 363.6 
L 212.895959 363.6 
L 215.243388 363.6 
L 217.590818 363.6 
L 219.938247 363.6 
L 222.285676 363.6 
L 224.633105 363.6 
L 226.980534 363.6 
L 229.327964 363.6 
L 231.675393 363.6 
L 234.022822 363.6 
L 273.178578 372.893566 
" clip-path="url(#p8fc4776308)" style="fill: none; stroke: #88b04b; stroke-width: 1.5; stroke-linecap: square"/>
   </g>
   <g id="line2d_29">
    <path d="M 329.137754 451.230569 
L 335.936892 463.085811 
L 334.018937 480.722056 
L 331.531554 489.644478 
L 331.096609 487.223642 
L 332.591154 476.477339 
L 335.151395 462.227917 
L 337.977997 448.946717 
L 340.569288 439.654169 
L 342.79041 435.537324 
L 344.841428 436.158945 
L 347.080879 440.123776 
L 349.752017 445.918518 
L 352.771471 452.538026 
L 355.736399 459.594161 
L 358.162935 466.879247 
L 359.771477 473.68821 
L 360.517397 478.417436 
L 360.128931 478.986628 
L 357.150524 474.591024 
L 347.747404 469.309158 
L 324.492853 477.557631 
L 274.515975 527.251131 
L 275.68969 525.218198 
L 276.863405 523.185265 
L 278.037119 521.152331 
L 279.210834 519.119398 
L 280.384548 517.086465 
L 281.558263 515.053531 
L 282.731977 513.020598 
L 283.905692 510.987665 
L 285.079407 508.954731 
L 286.253121 506.921798 
L 287.426836 504.888865 
L 288.60055 502.855932 
L 289.774265 500.822998 
L 290.94798 498.790065 
L 292.121694 496.757132 
L 293.295409 494.724198 
L 294.469123 492.691265 
L 295.642838 490.658332 
L 296.816553 488.625398 
L 297.990267 486.592465 
L 299.163982 484.559532 
L 300.337696 482.526598 
L 301.511411 480.493665 
L 329.137754 451.230569 
" clip-path="url(#p8fc4776308)" style="fill: none; stroke: #88b04b; stroke-width: 1.5; stroke-linecap: square"/>
   </g>
   <g id="line2d_30">
    <path d="M 424.959176 441.937002 
L 438.625686 441.976397 
L 452.940144 452.455517 
L 459.423497 459.070866 
L 457.109519 458.23712 
L 448.55022 451.569656 
L 437.489979 442.227711 
L 427.401423 433.139201 
L 420.649486 426.248804 
L 418.194755 422.266833 
L 419.758604 420.80141 
L 424.311973 420.844403 
L 430.665936 421.428501 
L 437.908326 422.123331 
L 445.501581 423.083696 
L 453.023919 424.624797 
L 459.724925 426.63624 
L 464.193515 428.354868 
L 464.492216 428.975885 
L 459.196309 429.357459 
L 449.920518 434.859867 
L 445.43663 459.123136 
L 463.484025 527.251131 
L 462.31031 525.218198 
L 461.136595 523.185265 
L 459.962881 521.152331 
L 458.789166 519.119398 
L 457.615452 517.086465 
L 456.441737 515.053531 
L 455.268023 513.020598 
L 454.094308 510.987665 
L 452.920593 508.954731 
L 451.746879 506.921798 
L 450.573164 504.888865 
L 449.39945 502.855932 
L 448.225735 500.822998 
L 447.05202 498.790065 
L 445.878306 496.757132 
L 444.704591 494.724198 
L 443.530877 492.691265 
L 442.357162 490.658332 
L 441.183447 488.625398 
L 440.009733 486.592465 
L 438.836018 484.559532 
L 437.662304 482.526598 
L 436.488589 480.493665 
L 424.959176 441.937002 
" clip-path="url(#p8fc4776308)" style="fill: none; stroke: #88b04b; stroke-width: 1.5; stroke-linecap: square"/>
   </g>
   <g id="line2d_31">
    <path d="M 464.821422 372.893566 
L 471.688793 384.709414 
L 487.921207 391.866539 
L 496.891944 394.173613 
L 495.01291 392.586522 
L 484.959067 388.507684 
L 471.338585 383.600207 
L 458.423427 379.407516 
L 449.080198 377.005365 
L 444.404345 376.870491 
L 443.917176 378.957535 
L 446.231094 382.879372 
L 449.913919 388.090017 
L 454.136855 394.014695 
L 458.765182 400.110464 
L 463.860984 405.85445 
L 468.953448 410.651969 
L 472.676118 413.662568 
L 473.363285 413.610743 
L 471.045785 408.833565 
L 471.173114 398.049291 
L 489.943777 382.034496 
L 557.968049 363.6 
L 555.62062 363.6 
L 553.273191 363.6 
L 550.925762 363.6 
L 548.578333 363.6 
L 546.230903 363.6 
L 543.883474 363.6 
L 541.536045 363.6 
L 539.188616 363.6 
L 536.841187 363.6 
L 534.493757 363.6 
L 532.146328 363.6 
L 529.798899 363.6 
L 527.45147 363.6 
L 525.104041 363.6 
L 522.756612 363.6 
L 520.409182 363.6 
L 518.061753 363.6 
L 515.714324 363.6 
L 513.366895 363.6 
L 511.019466 363.6 
L 508.672036 363.6 
L 506.324607 363.6 
L 503.977178 363.6 
L 464.821422 372.893566 
" clip-path="url(#p8fc4776308)" style="fill: none; stroke: #88b04b; stroke-width: 1.5; stroke-linecap: square"/>
   </g>
   <g id="line2d_32">
    <path d="M 424.959176 285.262998 
L 438.625686 285.223603 
L 452.940144 274.744483 
L 459.423497 268.129134 
L 457.109519 268.96288 
L 448.55022 275.630344 
L 437.489979 284.972289 
L 427.401423 294.060799 
L 420.649486 300.951196 
L 418.194755 304.933167 
L 419.758604 306.39859 
L 424.311973 306.355597 
L 430.665936 305.771499 
L 437.908326 305.076669 
L 445.501581 304.116304 
L 453.023919 302.575203 
L 459.724925 300.56376 
L 464.193515 298.845132 
L 464.492216 298.224115 
L 459.196309 297.842541 
L 449.920518 292.340133 
L 445.43663 268.076864 
L 463.484025 199.948869 
L 462.31031 201.981802 
L 461.136595 204.014735 
L 459.962881 206.047669 
L 458.789166 208.080602 
L 457.615452 210.113535 
L 456.441737 212.146469 
L 455.268023 214.179402 
L 454.094308 216.212335 
L 452.920593 218.245269 
L 451.746879 220.278202 
L 450.573164 222.311135 
L 449.39945 224.344068 
L 448.225735 226.377002 
L 447.05202 228.409935 
L 445.878306 230.442868 
L 444.704591 232.475802 
L 443.530877 234.508735 
L 442.357162 236.541668 
L 441.183447 238.574602 
L 440.009733 240.607535 
L 438.836018 242.640468 
L 437.662304 244.673402 
L 436.488589 246.706335 
L 424.959176 285.262998 
" clip-path="url(#p8fc4776308)" style="fill: none; stroke: #88b04b; stroke-width: 1.5; stroke-linecap: square"/>
   </g>
   <g id="line2d_33">
    <path d="M 329.137754 275.969431 
L 335.936892 264.114189 
L 334.018937 246.477944 
L 331.531554 237.555522 
L 331.096609 239.976358 
L 332.591154 250.722661 
L 335.151395 264.972083 
L 337.977997 278.253283 
L 340.569288 287.545831 
L 342.79041 291.662676 
L 344.841428 291.041055 
L 347.080879 287.076224 
L 349.752017 281.281482 
L 352.771471 274.661974 
L 355.736399 267.605839 
L 358.162935 260.320753 
L 359.771477 253.51179 
L 360.517397 248.782564 
L 360.128931 248.213372 
L 357.150524 252.608976 
L 347.747404 257.890842 
L 324.492853 249.642369 
L 274.515975 199.948869 
L 275.68969 201.981802 
L 276.863405 204.014735 
L 278.037119 206.047669 
L 279.210834 208.080602 
L 280.384548 210.113535 
L 281.558263 212.146469 
L 282.731977 214.179402 
L 283.905692 216.212335 
L 285.079407 218.245269 
L 286.253121 220.278202 
L 287.426836 222.311135 
L 288.60055 224.344068 
L 289.774265 226.377002 
L 290.94798 228.409935 
L 292.121694 230.442868 
L 293.295409 232.475802 
L 294.469123 234.508735 
L 295.642838 236.541668 
L 296.816553 238.574602 
L 297.990267 240.607535 
L 299.163982 242.640468 
L 300.337696 244.673402 
L 301.511411 246.706335 
L 329.137754 275.969431 
" clip-path="url(#p8fc4776308)" style="fill: none; stroke: #88b04b; stroke-width: 1.5; stroke-linecap: square"/>
   </g>
   <g id="line2d_34">
    <path d="M 273.178578 354.306434 
L 266.311207 342.490586 
L 250.078793 335.333461 
L 241.108056 333.026387 
L 242.98709 334.613478 
L 253.040933 338.692316 
L 266.661415 343.599793 
L 279.576573 347.792484 
L 288.919802 350.194635 
L 293.595655 350.329509 
L 294.082824 348.242465 
L 291.768906 344.320628 
L 288.086081 339.109983 
L 283.863145 333.185305 
L 279.234818 327.089536 
L 274.139016 321.34555 
L 269.046552 316.548031 
L 265.323882 313.537432 
L 264.636715 313.589257 
L 266.954215 318.366435 
L 266.826886 329.150709 
L 248.056223 345.165504 
L 180.031951 363.6 
L 182.37938 363.6 
L 184.726809 363.6 
L 187.074238 363.6 
L 189.421667 363.6 
L 191.769097 363.6 
L 194.116526 363.6 
L 196.463955 363.6 
L 198.811384 363.6 
L 201.158813 363.6 
L 203.506243 363.6 
L 205.853672 363.6 
L 208.201101 363.6 
L 210.54853 363.6 
L 212.895959 363.6 
L 215.243388 363.6 
L 217.590818 363.6 
L 219.938247 363.6 
L 222.285676 363.6 
L 224.633105 363.6 
L 226.980534 363.6 
L 229.327964 363.6 
L 231.675393 363.6 
L 234.022822 363.6 
L 273.178578 354.306434 
" clip-path="url(#p8fc4776308)" style="fill: none; stroke: #88b04b; stroke-width: 1.5; stroke-linecap: square"/>
   </g>
   <g id="line2d_35">
    <path d="M 313.040824 441.937002 
L 299.374314 441.976397 
L 285.059856 452.455517 
L 278.576503 459.070866 
L 280.890481 458.23712 
L 289.44978 451.569656 
L 300.510021 442.227711 
L 310.598577 433.139201 
L 317.350514 426.248804 
L 319.805245 422.266833 
L 318.241396 420.80141 
L 313.688027 420.844403 
L 307.334064 421.428501 
L 300.091674 422.123331 
L 292.498419 423.083696 
L 284.976081 424.624797 
L 278.275075 426.63624 
L 273.806485 428.354868 
L 273.507784 428.975885 
L 278.803691 429.357459 
L 288.079482 434.859867 
L 292.56337 459.123136 
L 274.515975 527.251131 
L 275.68969 525.218198 
L 276.863405 523.185265 
L 278.037119 521.152331 
L 279.210834 519.119398 
L 280.384548 517.086465 
L 281.558263 515.053531 
L 282.731977 513.020598 
L 283.905692 510.987665 
L 285.079407 508.954731 
L 286.253121 506.921798 
L 287.426836 504.888865 
L 288.60055 502.855932 
L 289.774265 500.822998 
L 290.94798 498.790065 
L 292.121694 496.757132 
L 293.295409 494.724198 
L 294.469123 492.691265 
L 295.642838 490.658332 
L 296.816553 488.625398 
L 297.990267 486.592465 
L 299.163982 484.559532 
L 300.337696 482.526598 
L 301.511411 480.493665 
L 313.040824 441.937002 
" clip-path="url(#p8fc4776308)" style="fill: none; stroke: #88b04b; stroke-width: 1.5; stroke-linecap: square"/>
   </g>
   <g id="line2d_36">
    <path d="M 408.862246 451.230569 
L 402.063108 463.085811 
L 403.981063 480.722056 
L 406.468446 489.644478 
L 406.903391 487.223642 
L 405.408846 476.477339 
L 402.848605 462.227917 
L 400.022003 448.946717 
L 397.430712 439.654169 
L 395.20959 435.537324 
L 393.158572 436.158945 
L 390.919121 440.123776 
L 388.247983 445.918518 
L 385.228529 452.538026 
L 382.263601 459.594161 
L 379.837065 466.879247 
L 378.228523 473.68821 
L 377.482603 478.417436 
L 377.871069 478.986628 
L 380.849476 474.591024 
L 390.252596 469.309158 
L 413.507147 477.557631 
L 463.484025 527.251131 
L 462.31031 525.218198 
L 461.136595 523.185265 
L 459.962881 521.152331 
L 458.789166 519.119398 
L 457.615452 517.086465 
L 456.441737 515.053531 
L 455.268023 513.020598 
L 454.094308 510.987665 
L 452.920593 508.954731 
L 451.746879 506.921798 
L 450.573164 504.888865 
L 449.39945 502.855932 
L 448.225735 500.822998 
L 447.05202 498.790065 
L 445.878306 496.757132 
L 444.704591 494.724198 
L 443.530877 492.691265 
L 442.357162 490.658332 
L 441.183447 488.625398 
L 440.009733 486.592465 
L 438.836018 484.559532 
L 437.662304 482.526598 
L 436.488589 480.493665 
L 408.862246 451.230569 
" clip-path="url(#p8fc4776308)" style="fill: none; stroke: #88b04b; stroke-width: 1.5; stroke-linecap: square"/>
   </g>
   <g id="text_1">
    <!-- ['#5D8AA8', '#E0E0E0', '#88B04B'] -->
    <g transform="translate(260.937187 80.4) scale(0.12 -0.12)">
     <defs>
      <path id="DejaVuSans-5b" d="M 550 4863 
L 1875 4863 
L 1875 4416 
L 1125 4416 
L 1125 -397 
L 1875 -397 
L 1875 -844 
L 550 -844 
L 550 4863 
z
" transform="scale(0.015625)"/>
      <path id="DejaVuSans-27" d="M 1147 4666 
L 1147 2931 
L 616 2931 
L 616 4666 
L 1147 4666 
z
" transform="scale(0.015625)"/>
      <path id="DejaVuSans-23" d="M 3272 2816 
L 2363 2816 
L 2100 1772 
L 3016 1772 
L 3272 2816 
z
M 2803 4594 
L 2478 3297 
L 3391 3297 
L 3719 4594 
L 4219 4594 
L 3897 3297 
L 4872 3297 
L 4872 2816 
L 3775 2816 
L 3519 1772 
L 4513 1772 
L 4513 1294 
L 3397 1294 
L 3072 0 
L 2572 0 
L 2894 1294 
L 1978 1294 
L 1656 0 
L 1153 0 
L 1478 1294 
L 494 1294 
L 494 1772 
L 1594 1772 
L 1856 2816 
L 850 2816 
L 850 3297 
L 1978 3297 
L 2297 4594 
L 2803 4594 
z
" transform="scale(0.015625)"/>
      <path id="DejaVuSans-35" d="M 691 4666 
L 3169 4666 
L 3169 4134 
L 1269 4134 
L 1269 2991 
Q 1406 3038 1543 3061 
Q 1681 3084 1819 3084 
Q 2600 3084 3056 2656 
Q 3513 2228 3513 1497 
Q 3513 744 3044 326 
Q 2575 -91 1722 -91 
Q 1428 -91 1123 -41 
Q 819 9 494 109 
L 494 744 
Q 775 591 1075 516 
Q 1375 441 1709 441 
Q 2250 441 2565 725 
Q 2881 1009 2881 1497 
Q 2881 1984 2565 2268 
Q 2250 2553 1709 2553 
Q 1456 2553 1204 2497 
Q 953 2441 691 2322 
L 691 4666 
z
" transform="scale(0.015625)"/>
      <path id="DejaVuSans-44" d="M 1259 4147 
L 1259 519 
L 2022 519 
Q 2988 519 3436 956 
Q 3884 1394 3884 2338 
Q 3884 3275 3436 3711 
Q 2988 4147 2022 4147 
L 1259 4147 
z
M 628 4666 
L 1925 4666 
Q 3281 4666 3915 4102 
Q 4550 3538 4550 2338 
Q 4550 1131 3912 565 
Q 3275 0 1925 0 
L 628 0 
L 628 4666 
z
" transform="scale(0.015625)"/>
      <path id="DejaVuSans-38" d="M 2034 2216 
Q 1584 2216 1326 1975 
Q 1069 1734 1069 1313 
Q 1069 891 1326 650 
Q 1584 409 2034 409 
Q 2484 409 2743 651 
Q 3003 894 3003 1313 
Q 3003 1734 2745 1975 
Q 2488 2216 2034 2216 
z
M 1403 2484 
Q 997 2584 770 2862 
Q 544 3141 544 3541 
Q 544 4100 942 4425 
Q 1341 4750 2034 4750 
Q 2731 4750 3128 4425 
Q 3525 4100 3525 3541 
Q 3525 3141 3298 2862 
Q 3072 2584 2669 2484 
Q 3125 2378 3379 2068 
Q 3634 1759 3634 1313 
Q 3634 634 3220 271 
Q 2806 -91 2034 -91 
Q 1263 -91 848 271 
Q 434 634 434 1313 
Q 434 1759 690 2068 
Q 947 2378 1403 2484 
z
M 1172 3481 
Q 1172 3119 1398 2916 
Q 1625 2713 2034 2713 
Q 2441 2713 2670 2916 
Q 2900 3119 2900 3481 
Q 2900 3844 2670 4047 
Q 2441 4250 2034 4250 
Q 1625 4250 1398 4047 
Q 1172 3844 1172 3481 
z
" transform="scale(0.015625)"/>
      <path id="DejaVuSans-41" d="M 2188 4044 
L 1331 1722 
L 3047 1722 
L 2188 4044 
z
M 1831 4666 
L 2547 4666 
L 4325 0 
L 3669 0 
L 3244 1197 
L 1141 1197 
L 716 0 
L 50 0 
L 1831 4666 
z
" transform="scale(0.015625)"/>
      <path id="DejaVuSans-2c" d="M 750 794 
L 1409 794 
L 1409 256 
L 897 -744 
L 494 -744 
L 750 256 
L 750 794 
z
" transform="scale(0.015625)"/>
      <path id="DejaVuSans-20" transform="scale(0.015625)"/>
      <path id="DejaVuSans-45" d="M 628 4666 
L 3578 4666 
L 3578 4134 
L 1259 4134 
L 1259 2753 
L 3481 2753 
L 3481 2222 
L 1259 2222 
L 1259 531 
L 3634 531 
L 3634 0 
L 628 0 
L 628 4666 
z
" transform="scale(0.015625)"/>
      <path id="DejaVuSans-30" d="M 2034 4250 
Q 1547 4250 1301 3770 
Q 1056 3291 1056 2328 
Q 1056 1369 1301 889 
Q 1547 409 2034 409 
Q 2525 409 2770 889 
Q 3016 1369 3016 2328 
Q 3016 3291 2770 3770 
Q 2525 4250 2034 4250 
z
M 2034 4750 
Q 2819 4750 3233 4129 
Q 3647 3509 3647 2328 
Q 3647 1150 3233 529 
Q 2819 -91 2034 -91 
Q 1250 -91 836 529 
Q 422 1150 422 2328 
Q 422 3509 836 4129 
Q 1250 4750 2034 4750 
z
" transform="scale(0.015625)"/>
      <path id="DejaVuSans-42" d="M 1259 2228 
L 1259 519 
L 2272 519 
Q 2781 519 3026 730 
Q 3272 941 3272 1375 
Q 3272 1813 3026 2020 
Q 2781 2228 2272 2228 
L 1259 2228 
z
M 1259 4147 
L 1259 2741 
L 2194 2741 
Q 2656 2741 2882 2914 
Q 3109 3088 3109 3444 
Q 3109 3797 2882 3972 
Q 2656 4147 2194 4147 
L 1259 4147 
z
M 628 4666 
L 2241 4666 
Q 2963 4666 3353 4366 
Q 3744 4066 3744 3513 
Q 3744 3084 3544 2831 
Q 3344 2578 2956 2516 
Q 3422 2416 3680 2098 
Q 3938 1781 3938 1306 
Q 3938 681 3513 340 
Q 3088 0 2303 0 
L 628 0 
L 628 4666 
z
" transform="scale(0.015625)"/>
      <path id="DejaVuSans-34" d="M 2419 4116 
L 825 1625 
L 2419 1625 
L 2419 4116 
z
M 2253 4666 
L 3047 4666 
L 3047 1625 
L 3713 1625 
L 3713 1100 
L 3047 1100 
L 3047 0 
L 2419 0 
L 2419 1100 
L 313 1100 
L 313 1709 
L 2253 4666 
z
" transform="scale(0.015625)"/>
      <path id="DejaVuSans-5d" d="M 1947 4863 
L 1947 -844 
L 622 -844 
L 622 -397 
L 1369 -397 
L 1369 4416 
L 622 4416 
L 622 4863 
L 1947 4863 
z
" transform="scale(0.015625)"/>
     </defs>
     <use xlink:href="#DejaVuSans-5b"/>
     <use xlink:href="#DejaVuSans-27" x="39.013672"/>
     <use xlink:href="#DejaVuSans-23" x="66.503906"/>
     <use xlink:href="#DejaVuSans-35" x="150.292969"/>
     <use xlink:href="#DejaVuSans-44" x="213.916016"/>
     <use xlink:href="#DejaVuSans-38" x="290.917969"/>
     <use xlink:href="#DejaVuSans-41" x="354.541016"/>
     <use xlink:href="#DejaVuSans-41" x="425.699219"/>
     <use xlink:href="#DejaVuSans-38" x="494.107422"/>
     <use xlink:href="#DejaVuSans-27" x="557.730469"/>
     <use xlink:href="#DejaVuSans-2c" x="585.220703"/>
     <use xlink:href="#DejaVuSans-20" x="617.007812"/>
     <use xlink:href="#DejaVuSans-27" x="648.794922"/>
     <use xlink:href="#DejaVuSans-23" x="676.285156"/>
     <use xlink:href="#DejaVuSans-45" x="760.074219"/>
     <use xlink:href="#DejaVuSans-30" x="823.257812"/>
     <use xlink:href="#DejaVuSans-45" x="886.880859"/>
     <use xlink:href="#DejaVuSans-30" x="950.064453"/>
     <use xlink:href="#DejaVuSans-45" x="1013.6875"/>
     <use xlink:href="#DejaVuSans-30" x="1076.871094"/>
     <use xlink:href="#DejaVuSans-27" x="1140.494141"/>
     <use xlink:href="#DejaVuSans-2c" x="1167.984375"/>
     <use xlink:href="#DejaVuSans-20" x="1199.771484"/>
     <use xlink:href="#DejaVuSans-27" x="1231.558594"/>
     <use xlink:href="#DejaVuSans-23" x="1259.048828"/>
     <use xlink:href="#DejaVuSans-38" x="1342.837891"/>
     <use xlink:href="#DejaVuSans-38" x="1406.460938"/>
     <use xlink:href="#DejaVuSans-42" x="1470.083984"/>
     <use xlink:href="#DejaVuSans-30" x="1538.6875"/>
     <use xlink:href="#DejaVuSans-34" x="1602.310547"/>
     <use xlink:href="#DejaVuSans-42" x="1665.933594"/>
     <use xlink:href="#DejaVuSans-27" x="1734.537109"/>
     <use xlink:href="#DejaVuSans-5d" x="1762.027344"/>
    </g>
   </g>
  </g>
 </g>
 <defs>
  <clipPath id="p8fc4776308">
   <rect x="123.976538" y="86.4" width="490.046924" height="554.4"/>
  </clipPath>
 </defs>
</svg>
