<?xml version="1.0" encoding="utf-8" standalone="no"?>
<!DOCTYPE svg PUBLIC "-//W3C//DTD SVG 1.1//EN"
  "http://www.w3.org/Graphics/SVG/1.1/DTD/svg11.dtd">
<svg xmlns:xlink="http://www.w3.org/1999/xlink" width="720pt" height="720pt" viewBox="0 0 720 720" xmlns="http://www.w3.org/2000/svg" version="1.1">
 <metadata>
  <rdf:RDF xmlns:dc="http://purl.org/dc/elements/1.1/" xmlns:cc="http://creativecommons.org/ns#" xmlns:rdf="http://www.w3.org/1999/02/22-rdf-syntax-ns#">
   <cc:Work>
    <dc:type rdf:resource="http://purl.org/dc/dcmitype/StillImage"/>
    <dc:date>2023-12-23T14:19:06.082945</dc:date>
    <dc:format>image/svg+xml</dc:format>
    <dc:creator>
     <cc:Agent>
      <dc:title>Matplotlib v3.8.2, https://matplotlib.org/</dc:title>
     </cc:Agent>
    </dc:creator>
   </cc:Work>
  </rdf:RDF>
 </metadata>
 <defs>
  <style type="text/css">*{stroke-linejoin: round; stroke-linecap: butt}</style>
 </defs>
 <g id="figure_1">
  <g id="patch_1">
   <path d="M 0 720 
L 720 720 
L 720 0 
L 0 0 
L 0 720 
z
" style="fill: none"/>
  </g>
  <g id="axes_1">
   <g id="patch_2">
    <path d="M 541.367379 269.753656 
L 553.985137 283.092429 
L 570.904932 296.819475 
L 575.440111 308.377873 
L 568.42985 313.799825 
L 555.328148 313.11351 
L 540.388937 309.43354 
L 525.701554 306.447213 
L 512.198734 306.580653 
L 500.630199 310.467283 
L 491.796909 317.377489 
L 486.269843 325.959481 
L 484.121117 334.796803 
L 485.025672 342.626654 
L 488.736828 348.340052 
L 495.624556 350.984093 
L 506.792948 349.936312 
L 523.294361 345.32553 
L 544.165956 338.691589 
L 563.410799 333.693454 
L 566.188167 336.010042 
L 522.611722 349.742153 
L 369 363.6 
L 378.488626 358.121739 
L 387.977252 352.643478 
L 397.465878 347.165217 
L 406.954505 341.686957 
L 416.443131 336.208696 
L 425.931757 330.730435 
L 435.420383 325.252174 
L 444.909009 319.773913 
L 454.397635 314.295652 
L 463.886262 308.817391 
L 473.374888 303.33913 
L 482.863514 297.86087 
L 492.35214 292.382609 
L 501.840766 286.904348 
L 511.329392 281.426087 
L 520.818019 275.947826 
L 530.306645 270.469565 
L 539.795271 264.991304 
L 549.283897 259.513043 
L 558.772523 254.034783 
L 568.261149 248.556522 
L 577.749776 243.078261 
L 587.238402 237.6 
L 541.367379 269.753656 
" clip-path="url(#p90b29764d3)" style="fill: #ffffff; opacity: 0.625; stroke: #ffffff; stroke-linejoin: miter"/>
   </g>
   <g id="patch_3">
    <path d="M 373.910372 167.402299 
L 391.770966 163.144386 
L 412.118835 155.354937 
L 424.396291 157.206556 
L 425.586709 165.988596 
L 418.441491 176.991846 
L 407.784938 188.089597 
L 397.855012 199.31608 
L 391.219164 211.076585 
L 388.800817 223.038545 
L 390.368585 234.143502 
L 395.037275 243.221078 
L 401.616258 249.500589 
L 408.849386 252.632148 
L 415.652911 252.274891 
L 421.386582 247.631964 
L 426.063373 237.435963 
L 430.321025 220.839929 
L 435.011661 199.447627 
L 440.305571 180.282037 
L 443.700479 179.035059 
L 433.804614 223.639423 
L 369 363.6 
L 369 352.643478 
L 369 341.686957 
L 369 330.730435 
L 369 319.773913 
L 369 308.817391 
L 369 297.86087 
L 369 286.904348 
L 369 275.947826 
L 369 264.991304 
L 369 254.034783 
L 369 243.078261 
L 369 232.121739 
L 369 221.165217 
L 369 210.208696 
L 369 199.252174 
L 369 188.295652 
L 369 177.33913 
L 369 166.382609 
L 369 155.426087 
L 369 144.469565 
L 369 133.513043 
L 369 122.556522 
L 369 111.6 
L 373.910372 167.402299 
" clip-path="url(#p90b29764d3)" style="fill: #ffffff; opacity: 0.625; stroke: #ffffff; stroke-linejoin: miter"/>
   </g>
   <g id="patch_4">
    <path d="M 201.542993 261.248643 
L 206.78583 243.651958 
L 210.213903 222.135462 
L 217.95618 212.428683 
L 226.156858 215.788771 
L 232.113344 227.478336 
L 236.396001 242.256057 
L 241.153457 256.468867 
L 248.02043 268.095932 
L 257.170618 276.171262 
L 267.571677 280.366013 
L 277.767433 280.861597 
L 286.495141 278.303786 
L 292.823714 273.605494 
L 295.916083 267.53484 
L 294.762026 260.247871 
L 288.270425 251.099651 
L 276.026664 239.114399 
L 259.845706 224.356038 
L 245.894772 210.188582 
L 246.512312 206.625017 
L 280.192892 237.49727 
L 369 363.6 
L 359.511374 358.121739 
L 350.022748 352.643478 
L 340.534122 347.165217 
L 331.045495 341.686957 
L 321.556869 336.208696 
L 312.068243 330.730435 
L 302.579617 325.252174 
L 293.090991 319.773913 
L 283.602365 314.295652 
L 274.113738 308.817391 
L 264.625112 303.33913 
L 255.136486 297.86087 
L 245.64786 292.382609 
L 236.159234 286.904348 
L 226.670608 281.426087 
L 217.181981 275.947826 
L 207.693355 270.469565 
L 198.204729 264.991304 
L 188.716103 259.513043 
L 179.227477 254.034783 
L 169.738851 248.556522 
L 160.250224 243.078261 
L 150.761598 237.6 
L 201.542993 261.248643 
" clip-path="url(#p90b29764d3)" style="fill: #ffffff; opacity: 0.625; stroke: #ffffff; stroke-linejoin: miter"/>
   </g>
   <g id="patch_5">
    <path d="M 196.632621 457.446344 
L 184.014863 444.107571 
L 167.095068 430.380525 
L 162.559889 418.822127 
L 169.57015 413.400175 
L 182.671852 414.08649 
L 197.611063 417.76646 
L 212.298446 420.752787 
L 225.801266 420.619347 
L 237.369801 416.732717 
L 246.203091 409.822511 
L 251.730157 401.240519 
L 253.878883 392.403197 
L 252.974328 384.573346 
L 249.263172 378.859948 
L 242.375444 376.215907 
L 231.207052 377.263688 
L 214.705639 381.87447 
L 193.834044 388.508411 
L 174.589201 393.506546 
L 171.811833 391.189958 
L 215.388278 377.457847 
L 369 363.6 
L 359.511374 369.078261 
L 350.022748 374.556522 
L 340.534122 380.034783 
L 331.045495 385.513043 
L 321.556869 390.991304 
L 312.068243 396.469565 
L 302.579617 401.947826 
L 293.090991 407.426087 
L 283.602365 412.904348 
L 274.113738 418.382609 
L 264.625112 423.86087 
L 255.136486 429.33913 
L 245.64786 434.817391 
L 236.159234 440.295652 
L 226.670608 445.773913 
L 217.181981 451.252174 
L 207.693355 456.730435 
L 198.204729 462.208696 
L 188.716103 467.686957 
L 179.227477 473.165217 
L 169.738851 478.643478 
L 160.250224 484.121739 
L 150.761598 489.6 
L 196.632621 457.446344 
" clip-path="url(#p90b29764d3)" style="fill: #ffffff; opacity: 0.625; stroke: #ffffff; stroke-linejoin: miter"/>
   </g>
   <g id="patch_6">
    <path d="M 364.089628 559.797701 
L 346.229034 564.055614 
L 325.881165 571.845063 
L 313.603709 569.993444 
L 312.413291 561.211404 
L 319.558509 550.208154 
L 330.215062 539.110403 
L 340.144988 527.88392 
L 346.780836 516.123415 
L 349.199183 504.161455 
L 347.631415 493.056498 
L 342.962725 483.978922 
L 336.383742 477.699411 
L 329.150614 474.567852 
L 322.347089 474.925109 
L 316.613418 479.568036 
L 311.936627 489.764037 
L 307.678975 506.360071 
L 302.988339 527.752373 
L 297.694429 546.917963 
L 294.299521 548.164941 
L 304.195386 503.560577 
L 369 363.6 
L 369 374.556522 
L 369 385.513043 
L 369 396.469565 
L 369 407.426087 
L 369 418.382609 
L 369 429.33913 
L 369 440.295652 
L 369 451.252174 
L 369 462.208696 
L 369 473.165217 
L 369 484.121739 
L 369 495.078261 
L 369 506.034783 
L 369 516.991304 
L 369 527.947826 
L 369 538.904348 
L 369 549.86087 
L 369 560.817391 
L 369 571.773913 
L 369 582.730435 
L 369 593.686957 
L 369 604.643478 
L 369 615.6 
L 364.089628 559.797701 
" clip-path="url(#p90b29764d3)" style="fill: #ffffff; opacity: 0.625; stroke: #ffffff; stroke-linejoin: miter"/>
   </g>
   <g id="patch_7">
    <path d="M 536.457007 465.951357 
L 531.21417 483.548042 
L 527.786097 505.064538 
L 520.04382 514.771317 
L 511.843142 511.411229 
L 505.886656 499.721664 
L 501.603999 484.943943 
L 496.846543 470.731133 
L 489.97957 459.104068 
L 480.829382 451.028738 
L 470.428323 446.833987 
L 460.232567 446.338403 
L 451.504859 448.896214 
L 445.176286 453.594506 
L 442.083917 459.66516 
L 443.237974 466.952129 
L 449.729575 476.100349 
L 461.973336 488.085601 
L 478.154294 502.843962 
L 492.105228 517.011418 
L 491.487688 520.574983 
L 457.807108 489.70273 
L 369 363.6 
L 378.488626 369.078261 
L 387.977252 374.556522 
L 397.465878 380.034783 
L 406.954505 385.513043 
L 416.443131 390.991304 
L 425.931757 396.469565 
L 435.420383 401.947826 
L 444.909009 407.426087 
L 454.397635 412.904348 
L 463.886262 418.382609 
L 473.374888 423.86087 
L 482.863514 429.33913 
L 492.35214 434.817391 
L 501.840766 440.295652 
L 511.329392 445.773913 
L 520.818019 451.252174 
L 530.306645 456.730435 
L 539.795271 462.208696 
L 549.283897 467.686957 
L 558.772523 473.165217 
L 568.261149 478.643478 
L 577.749776 484.121739 
L 587.238402 489.6 
L 536.457007 465.951357 
" clip-path="url(#p90b29764d3)" style="fill: #ffffff; opacity: 0.625; stroke: #ffffff; stroke-linejoin: miter"/>
   </g>
   <g id="patch_8">
    <path d="M 541.367379 457.446344 
L 553.985137 444.107571 
L 570.904932 430.380525 
L 575.440111 418.822127 
L 568.42985 413.400175 
L 555.328148 414.08649 
L 540.388937 417.76646 
L 525.701554 420.752787 
L 512.198734 420.619347 
L 500.630199 416.732717 
L 491.796909 409.822511 
L 486.269843 401.240519 
L 484.121117 392.403197 
L 485.025672 384.573346 
L 488.736828 378.859948 
L 495.624556 376.215907 
L 506.792948 377.263688 
L 523.294361 381.87447 
L 544.165956 388.508411 
L 563.410799 393.506546 
L 566.188167 391.189958 
L 522.611722 377.457847 
L 369 363.6 
L 378.488626 369.078261 
L 387.977252 374.556522 
L 397.465878 380.034783 
L 406.954505 385.513043 
L 416.443131 390.991304 
L 425.931757 396.469565 
L 435.420383 401.947826 
L 444.909009 407.426087 
L 454.397635 412.904348 
L 463.886262 418.382609 
L 473.374888 423.86087 
L 482.863514 429.33913 
L 492.35214 434.817391 
L 501.840766 440.295652 
L 511.329392 445.773913 
L 520.818019 451.252174 
L 530.306645 456.730435 
L 539.795271 462.208696 
L 549.283897 467.686957 
L 558.772523 473.165217 
L 568.261149 478.643478 
L 577.749776 484.121739 
L 587.238402 489.6 
L 541.367379 457.446344 
" clip-path="url(#p90b29764d3)" style="fill: #ffffff; opacity: 0.625; stroke: #ffffff; stroke-linejoin: miter"/>
   </g>
   <g id="patch_9">
    <path d="M 536.457007 261.248643 
L 531.21417 243.651958 
L 527.786097 222.135462 
L 520.04382 212.428683 
L 511.843142 215.788771 
L 505.886656 227.478336 
L 501.603999 242.256057 
L 496.846543 256.468867 
L 489.97957 268.095932 
L 480.829382 276.171262 
L 470.428323 280.366013 
L 460.232567 280.861597 
L 451.504859 278.303786 
L 445.176286 273.605494 
L 442.083917 267.53484 
L 443.237974 260.247871 
L 449.729575 251.099651 
L 461.973336 239.114399 
L 478.154294 224.356038 
L 492.105228 210.188582 
L 491.487688 206.625017 
L 457.807108 237.49727 
L 369 363.6 
L 378.488626 358.121739 
L 387.977252 352.643478 
L 397.465878 347.165217 
L 406.954505 341.686957 
L 416.443131 336.208696 
L 425.931757 330.730435 
L 435.420383 325.252174 
L 444.909009 319.773913 
L 454.397635 314.295652 
L 463.886262 308.817391 
L 473.374888 303.33913 
L 482.863514 297.86087 
L 492.35214 292.382609 
L 501.840766 286.904348 
L 511.329392 281.426087 
L 520.818019 275.947826 
L 530.306645 270.469565 
L 539.795271 264.991304 
L 549.283897 259.513043 
L 558.772523 254.034783 
L 568.261149 248.556522 
L 577.749776 243.078261 
L 587.238402 237.6 
L 536.457007 261.248643 
" clip-path="url(#p90b29764d3)" style="fill: #ffffff; opacity: 0.625; stroke: #ffffff; stroke-linejoin: miter"/>
   </g>
   <g id="patch_10">
    <path d="M 364.089628 167.402299 
L 346.229034 163.144386 
L 325.881165 155.354937 
L 313.603709 157.206556 
L 312.413291 165.988596 
L 319.558509 176.991846 
L 330.215062 188.089597 
L 340.144988 199.31608 
L 346.780836 211.076585 
L 349.199183 223.038545 
L 347.631415 234.143502 
L 342.962725 243.221078 
L 336.383742 249.500589 
L 329.150614 252.632148 
L 322.347089 252.274891 
L 316.613418 247.631964 
L 311.936627 237.435963 
L 307.678975 220.839929 
L 302.988339 199.447627 
L 297.694429 180.282037 
L 294.299521 179.035059 
L 304.195386 223.639423 
L 369 363.6 
L 369 352.643478 
L 369 341.686957 
L 369 330.730435 
L 369 319.773913 
L 369 308.817391 
L 369 297.86087 
L 369 286.904348 
L 369 275.947826 
L 369 264.991304 
L 369 254.034783 
L 369 243.078261 
L 369 232.121739 
L 369 221.165217 
L 369 210.208696 
L 369 199.252174 
L 369 188.295652 
L 369 177.33913 
L 369 166.382609 
L 369 155.426087 
L 369 144.469565 
L 369 133.513043 
L 369 122.556522 
L 369 111.6 
L 364.089628 167.402299 
" clip-path="url(#p90b29764d3)" style="fill: #ffffff; opacity: 0.625; stroke: #ffffff; stroke-linejoin: miter"/>
   </g>
   <g id="patch_11">
    <path d="M 196.632621 269.753656 
L 184.014863 283.092429 
L 167.095068 296.819475 
L 162.559889 308.377873 
L 169.57015 313.799825 
L 182.671852 313.11351 
L 197.611063 309.43354 
L 212.298446 306.447213 
L 225.801266 306.580653 
L 237.369801 310.467283 
L 246.203091 317.377489 
L 251.730157 325.959481 
L 253.878883 334.796803 
L 252.974328 342.626654 
L 249.263172 348.340052 
L 242.375444 350.984093 
L 231.207052 349.936312 
L 214.705639 345.32553 
L 193.834044 338.691589 
L 174.589201 333.693454 
L 171.811833 336.010042 
L 215.388278 349.742153 
L 369 363.6 
L 359.511374 358.121739 
L 350.022748 352.643478 
L 340.534122 347.165217 
L 331.045495 341.686957 
L 321.556869 336.208696 
L 312.068243 330.730435 
L 302.579617 325.252174 
L 293.090991 319.773913 
L 283.602365 314.295652 
L 274.113738 308.817391 
L 264.625112 303.33913 
L 255.136486 297.86087 
L 245.64786 292.382609 
L 236.159234 286.904348 
L 226.670608 281.426087 
L 217.181981 275.947826 
L 207.693355 270.469565 
L 198.204729 264.991304 
L 188.716103 259.513043 
L 179.227477 254.034783 
L 169.738851 248.556522 
L 160.250224 243.078261 
L 150.761598 237.6 
L 196.632621 269.753656 
" clip-path="url(#p90b29764d3)" style="fill: #ffffff; opacity: 0.625; stroke: #ffffff; stroke-linejoin: miter"/>
   </g>
   <g id="patch_12">
    <path d="M 201.542993 465.951357 
L 206.78583 483.548042 
L 210.213903 505.064538 
L 217.95618 514.771317 
L 226.156858 511.411229 
L 232.113344 499.721664 
L 236.396001 484.943943 
L 241.153457 470.731133 
L 248.02043 459.104068 
L 257.170618 451.028738 
L 267.571677 446.833987 
L 277.767433 446.338403 
L 286.495141 448.896214 
L 292.823714 453.594506 
L 295.916083 459.66516 
L 294.762026 466.952129 
L 288.270425 476.100349 
L 276.026664 488.085601 
L 259.845706 502.843962 
L 245.894772 517.011418 
L 246.512312 520.574983 
L 280.192892 489.70273 
L 369 363.6 
L 359.511374 369.078261 
L 350.022748 374.556522 
L 340.534122 380.034783 
L 331.045495 385.513043 
L 321.556869 390.991304 
L 312.068243 396.469565 
L 302.579617 401.947826 
L 293.090991 407.426087 
L 283.602365 412.904348 
L 274.113738 418.382609 
L 264.625112 423.86087 
L 255.136486 429.33913 
L 245.64786 434.817391 
L 236.159234 440.295652 
L 226.670608 445.773913 
L 217.181981 451.252174 
L 207.693355 456.730435 
L 198.204729 462.208696 
L 188.716103 467.686957 
L 179.227477 473.165217 
L 169.738851 478.643478 
L 160.250224 484.121739 
L 150.761598 489.6 
L 201.542993 465.951357 
" clip-path="url(#p90b29764d3)" style="fill: #ffffff; opacity: 0.625; stroke: #ffffff; stroke-linejoin: miter"/>
   </g>
   <g id="patch_13">
    <path d="M 373.910372 559.797701 
L 391.770966 564.055614 
L 412.118835 571.845063 
L 424.396291 569.993444 
L 425.586709 561.211404 
L 418.441491 550.208154 
L 407.784938 539.110403 
L 397.855012 527.88392 
L 391.219164 516.123415 
L 388.800817 504.161455 
L 390.368585 493.056498 
L 395.037275 483.978922 
L 401.616258 477.699411 
L 408.849386 474.567852 
L 415.652911 474.925109 
L 421.386582 479.568036 
L 426.063373 489.764037 
L 430.321025 506.360071 
L 435.011661 527.752373 
L 440.305571 546.917963 
L 443.700479 548.164941 
L 433.804614 503.560577 
L 369 363.6 
L 369 374.556522 
L 369 385.513043 
L 369 396.469565 
L 369 407.426087 
L 369 418.382609 
L 369 429.33913 
L 369 440.295652 
L 369 451.252174 
L 369 462.208696 
L 369 473.165217 
L 369 484.121739 
L 369 495.078261 
L 369 506.034783 
L 369 516.991304 
L 369 527.947826 
L 369 538.904348 
L 369 549.86087 
L 369 560.817391 
L 369 571.773913 
L 369 582.730435 
L 369 593.686957 
L 369 604.643478 
L 369 615.6 
L 373.910372 559.797701 
" clip-path="url(#p90b29764d3)" style="fill: #ffffff; opacity: 0.625; stroke: #ffffff; stroke-linejoin: miter"/>
   </g>
   <g id="patch_14">
    <path d="M 533.735206 314.675323 
L 523.780263 334.544118 
L 521.638369 337.898734 
L 523.783874 334.087373 
L 522.542615 328.750078 
L 512.9879 325.210443 
L 495.286821 324.766417 
L 473.541512 326.926827 
L 453.277779 330.049873 
L 439.192662 332.243876 
L 433.891325 332.177982 
L 437.673421 329.53021 
L 449.074493 324.99531 
L 465.738926 319.958757 
L 485.190171 316.047636 
L 505.138456 314.758578 
L 523.166369 317.230403 
L 536.000879 324.030775 
L 539.068099 334.724823 
L 527.46903 347.242643 
L 499.795575 357.809958 
L 466.784988 362.954093 
L 469.8 363.6 
L 473.008292 359.217391 
L 476.216584 354.834783 
L 479.424877 350.452174 
L 482.633169 346.069565 
L 485.841461 341.686957 
L 489.049753 337.304348 
L 492.258046 332.921739 
L 495.466338 328.53913 
L 498.67463 324.156522 
L 501.882922 319.773913 
L 505.091215 315.391304 
L 508.299507 311.008696 
L 511.507799 306.626087 
L 514.716091 302.243478 
L 517.924384 297.86087 
L 521.132676 293.478261 
L 524.340968 289.095652 
L 527.54926 284.713043 
L 530.757552 280.330435 
L 533.965845 275.947826 
L 537.174137 271.565217 
L 540.382429 267.182609 
L 543.590721 262.8 
L 533.735206 314.675323 
" clip-path="url(#p90b29764d3)" style="fill: #ffffff; opacity: 0.625; stroke: #ffffff; stroke-linejoin: miter"/>
   </g>
   <g id="patch_15">
    <path d="M 408.997589 196.472788 
L 421.227 215.028419 
L 423.061235 218.560662 
L 420.833252 214.796919 
L 415.59039 213.203234 
L 407.747618 219.708042 
L 398.512541 234.815613 
L 389.510857 254.727809 
L 382.083628 273.838239 
L 376.941131 287.13331 
L 374.233397 291.691455 
L 373.831407 287.092178 
L 375.604605 274.95111 
L 379.575038 258.001011 
L 385.91353 239.200179 
L 394.771316 221.279928 
L 405.925935 206.90321 
L 418.232485 199.188384 
L 429.027412 201.879118 
L 434.068628 218.183116 
L 429.383464 247.432689 
L 417.333122 278.592763 
L 419.4 276.304639 
L 417.208696 271.334872 
L 415.017391 266.365105 
L 412.826087 261.395339 
L 410.634783 256.425572 
L 408.443478 251.455805 
L 406.252174 246.486038 
L 404.06087 241.516271 
L 401.869565 236.546504 
L 399.678261 231.576737 
L 397.486957 226.60697 
L 395.295652 221.637203 
L 393.104348 216.667436 
L 390.913043 211.697669 
L 388.721739 206.727902 
L 386.530435 201.758135 
L 384.33913 196.788368 
L 382.147826 191.818602 
L 379.956522 186.848835 
L 377.765217 181.879068 
L 375.573913 176.909301 
L 373.382609 171.939534 
L 371.191304 166.969767 
L 369 162 
L 408.997589 196.472788 
" clip-path="url(#p90b29764d3)" style="fill: #ffffff; opacity: 0.625; stroke: #ffffff; stroke-linejoin: miter"/>
   </g>
   <g id="patch_16">
    <path d="M 244.262384 245.397466 
L 266.446736 244.084301 
L 270.422867 244.261928 
L 266.049378 244.309547 
L 262.047775 248.053156 
L 263.759718 258.097599 
L 272.22572 273.649196 
L 284.969345 291.400981 
L 297.805848 307.388365 
L 306.748469 318.489433 
L 309.342072 323.113473 
L 305.157986 321.161968 
L 295.530112 313.5558 
L 282.836112 301.642254 
L 269.72336 286.752542 
L 258.63286 270.12135 
L 251.759567 253.272807 
L 251.231607 238.757609 
L 258.959314 230.754295 
L 275.599598 234.540473 
L 298.587889 253.222731 
L 319.548134 279.23867 
L 318.6 276.304639 
L 313.200403 275.717481 
L 307.800807 275.130323 
L 302.40121 274.543165 
L 297.001614 273.956006 
L 291.602017 273.368848 
L 286.202421 272.78169 
L 280.802824 272.194532 
L 275.403227 271.607373 
L 270.003631 271.020215 
L 264.604034 270.433057 
L 259.204438 269.845899 
L 253.804841 269.258741 
L 248.405244 268.671582 
L 243.005648 268.084424 
L 237.606051 267.497266 
L 232.206455 266.910108 
L 226.806858 266.322949 
L 221.407262 265.735791 
L 216.007665 265.148633 
L 210.608068 264.561475 
L 205.208472 263.974316 
L 199.808875 263.387158 
L 194.409279 262.8 
L 244.262384 245.397466 
" clip-path="url(#p90b29764d3)" style="fill: #ffffff; opacity: 0.625; stroke: #ffffff; stroke-linejoin: miter"/>
   </g>
   <g id="patch_17">
    <path d="M 204.264794 412.524677 
L 214.219737 392.655882 
L 216.361631 389.301266 
L 214.216126 393.112627 
L 215.457385 398.449922 
L 225.0121 401.989557 
L 242.713179 402.433583 
L 264.458488 400.273173 
L 284.722221 397.150127 
L 298.807338 394.956124 
L 304.108675 395.022018 
L 300.326579 397.66979 
L 288.925507 402.20469 
L 272.261074 407.241243 
L 252.809829 411.152364 
L 232.861544 412.441422 
L 214.833631 409.969597 
L 201.999121 403.169225 
L 198.931901 392.475177 
L 210.53097 379.957357 
L 238.204425 369.390042 
L 271.215012 364.245907 
L 268.2 363.6 
L 264.991708 367.982609 
L 261.783416 372.365217 
L 258.575123 376.747826 
L 255.366831 381.130435 
L 252.158539 385.513043 
L 248.950247 389.895652 
L 245.741954 394.278261 
L 242.533662 398.66087 
L 239.32537 403.043478 
L 236.117078 407.426087 
L 232.908785 411.808696 
L 229.700493 416.191304 
L 226.492201 420.573913 
L 223.283909 424.956522 
L 220.075616 429.33913 
L 216.867324 433.721739 
L 213.659032 438.104348 
L 210.45074 442.486957 
L 207.242448 446.869565 
L 204.034155 451.252174 
L 200.825863 455.634783 
L 197.617571 460.017391 
L 194.409279 464.4 
L 204.264794 412.524677 
" clip-path="url(#p90b29764d3)" style="fill: #ffffff; opacity: 0.625; stroke: #ffffff; stroke-linejoin: miter"/>
   </g>
   <g id="patch_18">
    <path d="M 329.002411 530.727212 
L 316.773 512.171581 
L 314.938765 508.639338 
L 317.166748 512.403081 
L 322.40961 513.996766 
L 330.252382 507.491958 
L 339.487459 492.384387 
L 348.489143 472.472191 
L 355.916372 453.361761 
L 361.058869 440.06669 
L 363.766603 435.508545 
L 364.168593 440.107822 
L 362.395395 452.24889 
L 358.424962 469.198989 
L 352.08647 487.999821 
L 343.228684 505.920072 
L 332.074065 520.29679 
L 319.767515 528.011616 
L 308.972588 525.320882 
L 303.931372 509.016884 
L 308.616536 479.767311 
L 320.666878 448.607237 
L 318.6 450.895361 
L 320.791304 455.865128 
L 322.982609 460.834895 
L 325.173913 465.804661 
L 327.365217 470.774428 
L 329.556522 475.744195 
L 331.747826 480.713962 
L 333.93913 485.683729 
L 336.130435 490.653496 
L 338.321739 495.623263 
L 340.513043 500.59303 
L 342.704348 505.562797 
L 344.895652 510.532564 
L 347.086957 515.502331 
L 349.278261 520.472098 
L 351.469565 525.441865 
L 353.66087 530.411632 
L 355.852174 535.381398 
L 358.043478 540.351165 
L 360.234783 545.320932 
L 362.426087 550.290699 
L 364.617391 555.260466 
L 366.808696 560.230233 
L 369 565.2 
L 329.002411 530.727212 
" clip-path="url(#p90b29764d3)" style="fill: #ffffff; opacity: 0.625; stroke: #ffffff; stroke-linejoin: miter"/>
   </g>
   <g id="patch_19">
    <path d="M 493.737616 481.802534 
L 471.553264 483.115699 
L 467.577133 482.938072 
L 471.950622 482.890453 
L 475.952225 479.146844 
L 474.240282 469.102401 
L 465.77428 453.550804 
L 453.030655 435.799019 
L 440.194152 419.811635 
L 431.251531 408.710567 
L 428.657928 404.086527 
L 432.842014 406.038032 
L 442.469888 413.6442 
L 455.163888 425.557746 
L 468.27664 440.447458 
L 479.36714 457.07865 
L 486.240433 473.927193 
L 486.768393 488.442391 
L 479.040686 496.445705 
L 462.400402 492.659527 
L 439.412111 473.977269 
L 418.451866 447.96133 
L 419.4 450.895361 
L 424.799597 451.482519 
L 430.199193 452.069677 
L 435.59879 452.656835 
L 440.998386 453.243994 
L 446.397983 453.831152 
L 451.797579 454.41831 
L 457.197176 455.005468 
L 462.596773 455.592627 
L 467.996369 456.179785 
L 473.395966 456.766943 
L 478.795562 457.354101 
L 484.195159 457.941259 
L 489.594756 458.528418 
L 494.994352 459.115576 
L 500.393949 459.702734 
L 505.793545 460.289892 
L 511.193142 460.877051 
L 516.592738 461.464209 
L 521.992335 462.051367 
L 527.391932 462.638525 
L 532.791528 463.225684 
L 538.191125 463.812842 
L 543.590721 464.4 
L 493.737616 481.802534 
" clip-path="url(#p90b29764d3)" style="fill: #ffffff; opacity: 0.625; stroke: #ffffff; stroke-linejoin: miter"/>
   </g>
   <g id="patch_20">
    <path d="M 533.735206 412.524677 
L 523.780263 392.655882 
L 521.638369 389.301266 
L 523.783874 393.112627 
L 522.542615 398.449922 
L 512.9879 401.989557 
L 495.286821 402.433583 
L 473.541512 400.273173 
L 453.277779 397.150127 
L 439.192662 394.956124 
L 433.891325 395.022018 
L 437.673421 397.66979 
L 449.074493 402.20469 
L 465.738926 407.241243 
L 485.190171 411.152364 
L 505.138456 412.441422 
L 523.166369 409.969597 
L 536.000879 403.169225 
L 539.068099 392.475177 
L 527.46903 379.957357 
L 499.795575 369.390042 
L 466.784988 364.245907 
L 469.8 363.6 
L 473.008292 367.982609 
L 476.216584 372.365217 
L 479.424877 376.747826 
L 482.633169 381.130435 
L 485.841461 385.513043 
L 489.049753 389.895652 
L 492.258046 394.278261 
L 495.466338 398.66087 
L 498.67463 403.043478 
L 501.882922 407.426087 
L 505.091215 411.808696 
L 508.299507 416.191304 
L 511.507799 420.573913 
L 514.716091 424.956522 
L 517.924384 429.33913 
L 521.132676 433.721739 
L 524.340968 438.104348 
L 527.54926 442.486957 
L 530.757552 446.869565 
L 533.965845 451.252174 
L 537.174137 455.634783 
L 540.382429 460.017391 
L 543.590721 464.4 
L 533.735206 412.524677 
" clip-path="url(#p90b29764d3)" style="fill: #ffffff; opacity: 0.625; stroke: #ffffff; stroke-linejoin: miter"/>
   </g>
   <g id="patch_21">
    <path d="M 493.737616 245.397466 
L 471.553264 244.084301 
L 467.577133 244.261928 
L 471.950622 244.309547 
L 475.952225 248.053156 
L 474.240282 258.097599 
L 465.77428 273.649196 
L 453.030655 291.400981 
L 440.194152 307.388365 
L 431.251531 318.489433 
L 428.657928 323.113473 
L 432.842014 321.161968 
L 442.469888 313.5558 
L 455.163888 301.642254 
L 468.27664 286.752542 
L 479.36714 270.12135 
L 486.240433 253.272807 
L 486.768393 238.757609 
L 479.040686 230.754295 
L 462.400402 234.540473 
L 439.412111 253.222731 
L 418.451866 279.23867 
L 419.4 276.304639 
L 424.799597 275.717481 
L 430.199193 275.130323 
L 435.59879 274.543165 
L 440.998386 273.956006 
L 446.397983 273.368848 
L 451.797579 272.78169 
L 457.197176 272.194532 
L 462.596773 271.607373 
L 467.996369 271.020215 
L 473.395966 270.433057 
L 478.795562 269.845899 
L 484.195159 269.258741 
L 489.594756 268.671582 
L 494.994352 268.084424 
L 500.393949 267.497266 
L 505.793545 266.910108 
L 511.193142 266.322949 
L 516.592738 265.735791 
L 521.992335 265.148633 
L 527.391932 264.561475 
L 532.791528 263.974316 
L 538.191125 263.387158 
L 543.590721 262.8 
L 493.737616 245.397466 
" clip-path="url(#p90b29764d3)" style="fill: #ffffff; opacity: 0.625; stroke: #ffffff; stroke-linejoin: miter"/>
   </g>
   <g id="patch_22">
    <path d="M 329.002411 196.472788 
L 316.773 215.028419 
L 314.938765 218.560662 
L 317.166748 214.796919 
L 322.40961 213.203234 
L 330.252382 219.708042 
L 339.487459 234.815613 
L 348.489143 254.727809 
L 355.916372 273.838239 
L 361.058869 287.13331 
L 363.766603 291.691455 
L 364.168593 287.092178 
L 362.395395 274.95111 
L 358.424962 258.001011 
L 352.08647 239.200179 
L 343.228684 221.279928 
L 332.074065 206.90321 
L 319.767515 199.188384 
L 308.972588 201.879118 
L 303.931372 218.183116 
L 308.616536 247.432689 
L 320.666878 278.592763 
L 318.6 276.304639 
L 320.791304 271.334872 
L 322.982609 266.365105 
L 325.173913 261.395339 
L 327.365217 256.425572 
L 329.556522 251.455805 
L 331.747826 246.486038 
L 333.93913 241.516271 
L 336.130435 236.546504 
L 338.321739 231.576737 
L 340.513043 226.60697 
L 342.704348 221.637203 
L 344.895652 216.667436 
L 347.086957 211.697669 
L 349.278261 206.727902 
L 351.469565 201.758135 
L 353.66087 196.788368 
L 355.852174 191.818602 
L 358.043478 186.848835 
L 360.234783 181.879068 
L 362.426087 176.909301 
L 364.617391 171.939534 
L 366.808696 166.969767 
L 369 162 
L 329.002411 196.472788 
" clip-path="url(#p90b29764d3)" style="fill: #ffffff; opacity: 0.625; stroke: #ffffff; stroke-linejoin: miter"/>
   </g>
   <g id="patch_23">
    <path d="M 204.264794 314.675323 
L 214.219737 334.544118 
L 216.361631 337.898734 
L 214.216126 334.087373 
L 215.457385 328.750078 
L 225.0121 325.210443 
L 242.713179 324.766417 
L 264.458488 326.926827 
L 284.722221 330.049873 
L 298.807338 332.243876 
L 304.108675 332.177982 
L 300.326579 329.53021 
L 288.925507 324.99531 
L 272.261074 319.958757 
L 252.809829 316.047636 
L 232.861544 314.758578 
L 214.833631 317.230403 
L 201.999121 324.030775 
L 198.931901 334.724823 
L 210.53097 347.242643 
L 238.204425 357.809958 
L 271.215012 362.954093 
L 268.2 363.6 
L 264.991708 359.217391 
L 261.783416 354.834783 
L 258.575123 350.452174 
L 255.366831 346.069565 
L 252.158539 341.686957 
L 248.950247 337.304348 
L 245.741954 332.921739 
L 242.533662 328.53913 
L 239.32537 324.156522 
L 236.117078 319.773913 
L 232.908785 315.391304 
L 229.700493 311.008696 
L 226.492201 306.626087 
L 223.283909 302.243478 
L 220.075616 297.86087 
L 216.867324 293.478261 
L 213.659032 289.095652 
L 210.45074 284.713043 
L 207.242448 280.330435 
L 204.034155 275.947826 
L 200.825863 271.565217 
L 197.617571 267.182609 
L 194.409279 262.8 
L 204.264794 314.675323 
" clip-path="url(#p90b29764d3)" style="fill: #ffffff; opacity: 0.625; stroke: #ffffff; stroke-linejoin: miter"/>
   </g>
   <g id="patch_24">
    <path d="M 244.262384 481.802534 
L 266.446736 483.115699 
L 270.422867 482.938072 
L 266.049378 482.890453 
L 262.047775 479.146844 
L 263.759718 469.102401 
L 272.22572 453.550804 
L 284.969345 435.799019 
L 297.805848 419.811635 
L 306.748469 408.710567 
L 309.342072 404.086527 
L 305.157986 406.038032 
L 295.530112 413.6442 
L 282.836112 425.557746 
L 269.72336 440.447458 
L 258.63286 457.07865 
L 251.759567 473.927193 
L 251.231607 488.442391 
L 258.959314 496.445705 
L 275.599598 492.659527 
L 298.587889 473.977269 
L 319.548134 447.96133 
L 318.6 450.895361 
L 313.200403 451.482519 
L 307.800807 452.069677 
L 302.40121 452.656835 
L 297.001614 453.243994 
L 291.602017 453.831152 
L 286.202421 454.41831 
L 280.802824 455.005468 
L 275.403227 455.592627 
L 270.003631 456.179785 
L 264.604034 456.766943 
L 259.204438 457.354101 
L 253.804841 457.941259 
L 248.405244 458.528418 
L 243.005648 459.115576 
L 237.606051 459.702734 
L 232.206455 460.289892 
L 226.806858 460.877051 
L 221.407262 461.464209 
L 216.007665 462.051367 
L 210.608068 462.638525 
L 205.208472 463.225684 
L 199.808875 463.812842 
L 194.409279 464.4 
L 244.262384 481.802534 
" clip-path="url(#p90b29764d3)" style="fill: #ffffff; opacity: 0.625; stroke: #ffffff; stroke-linejoin: miter"/>
   </g>
   <g id="patch_25">
    <path d="M 408.997589 530.727212 
L 421.227 512.171581 
L 423.061235 508.639338 
L 420.833252 512.403081 
L 415.59039 513.996766 
L 407.747618 507.491958 
L 398.512541 492.384387 
L 389.510857 472.472191 
L 382.083628 453.361761 
L 376.941131 440.06669 
L 374.233397 435.508545 
L 373.831407 440.107822 
L 375.604605 452.24889 
L 379.575038 469.198989 
L 385.91353 487.999821 
L 394.771316 505.920072 
L 405.925935 520.29679 
L 418.232485 528.011616 
L 429.027412 525.320882 
L 434.068628 509.016884 
L 429.383464 479.767311 
L 417.333122 448.607237 
L 419.4 450.895361 
L 417.208696 455.865128 
L 415.017391 460.834895 
L 412.826087 465.804661 
L 410.634783 470.774428 
L 408.443478 475.744195 
L 406.252174 480.713962 
L 404.06087 485.683729 
L 401.869565 490.653496 
L 399.678261 495.623263 
L 397.486957 500.59303 
L 395.295652 505.562797 
L 393.104348 510.532564 
L 390.913043 515.502331 
L 388.721739 520.472098 
L 386.530435 525.441865 
L 384.33913 530.411632 
L 382.147826 535.381398 
L 379.956522 540.351165 
L 377.765217 545.320932 
L 375.573913 550.290699 
L 373.382609 555.260466 
L 371.191304 560.230233 
L 369 565.2 
L 408.997589 530.727212 
" clip-path="url(#p90b29764d3)" style="fill: #ffffff; opacity: 0.625; stroke: #ffffff; stroke-linejoin: miter"/>
   </g>
   <g id="patch_26">
    <path d="M 414.367476 344.240718 
L 428.49961 332.346701 
L 435.48981 326.564517 
L 442.406747 321.789868 
L 451.592407 316.183925 
L 460.628871 310.987779 
L 465.854126 308.428976 
L 465.33892 309.998788 
L 460.049978 315.748089 
L 453.312778 324.459713 
L 449.255196 334.274773 
L 451.032328 343.362036 
L 459.516384 350.371603 
L 472.892836 354.600989 
L 487.288252 355.952808 
L 498.210693 354.83627 
L 502.281726 352.13855 
L 498.587639 349.265274 
L 489.091643 348.050649 
L 477.988199 350.162584 
L 470.58041 355.717945 
L 473.027691 361.710296 
L 495 363.6 
L 490.617391 363.6 
L 486.234783 363.6 
L 481.852174 363.6 
L 477.469565 363.6 
L 473.086957 363.6 
L 468.704348 363.6 
L 464.321739 363.6 
L 459.93913 363.6 
L 455.556522 363.6 
L 451.173913 363.6 
L 446.791304 363.6 
L 442.408696 363.6 
L 438.026087 363.6 
L 433.643478 363.6 
L 429.26087 363.6 
L 424.878261 363.6 
L 420.495652 363.6 
L 416.113043 363.6 
L 411.730435 363.6 
L 407.347826 363.6 
L 402.965217 363.6 
L 398.582609 363.6 
L 394.2 363.6 
L 414.367476 344.240718 
" clip-path="url(#p90b29764d3)" style="opacity: 0.625; stroke: #000000; stroke-linejoin: miter"/>
   </g>
   <g id="patch_27">
    <path d="M 374.918108 314.630972 
L 371.683655 296.445177 
L 370.171236 287.500394 
L 369.494737 279.122827 
L 369.232678 268.36484 
L 369.250916 257.94096 
L 369.647555 252.136354 
L 370.749449 253.367442 
L 373.084018 260.82245 
L 377.259906 271.012849 
L 383.731206 279.434348 
L 392.489573 282.438938 
L 402.802064 278.596314 
L 413.153046 269.12666 
L 421.521464 257.335773 
L 426.015734 247.318392 
L 425.714957 242.443914 
L 421.379582 244.206449 
L 415.579688 251.82291 
L 411.856956 262.494743 
L 412.964145 271.687757 
L 419.377314 272.564525 
L 432 254.480799 
L 429.808696 258.27625 
L 427.617391 262.0717 
L 425.426087 265.867151 
L 423.234783 269.662601 
L 421.043478 273.458051 
L 418.852174 277.253502 
L 416.66087 281.048952 
L 414.469565 284.844403 
L 412.278261 288.639853 
L 410.086957 292.435304 
L 407.895652 296.230754 
L 405.704348 300.026205 
L 403.513043 303.821655 
L 401.321739 307.617106 
L 399.130435 311.412556 
L 396.93913 315.208007 
L 394.747826 319.003457 
L 392.556522 322.798907 
L 390.365217 326.594358 
L 388.173913 330.389808 
L 385.982609 334.185259 
L 383.791304 337.980709 
L 381.6 341.77616 
L 374.918108 314.630972 
" clip-path="url(#p90b29764d3)" style="opacity: 0.625; stroke: #000000; stroke-linejoin: miter"/>
   </g>
   <g id="patch_28">
    <path d="M 329.550632 333.990254 
L 312.184044 327.698475 
L 303.681426 324.535877 
L 296.08799 320.932959 
L 286.640271 315.780915 
L 277.622045 310.553181 
L 272.793429 307.307378 
L 274.410528 306.968654 
L 282.03404 308.674362 
L 292.947128 310.153136 
L 303.476011 308.759575 
L 310.457245 302.676902 
L 312.28568 291.824711 
L 309.26021 278.12567 
L 303.233212 264.982965 
L 296.805041 256.082122 
L 292.43323 253.905364 
L 291.791943 258.541176 
L 295.488045 267.372262 
L 302.868757 275.932159 
L 311.383735 279.569812 
L 315.349623 274.454229 
L 306 254.480799 
L 308.191304 258.27625 
L 310.382609 262.0717 
L 312.573913 265.867151 
L 314.765217 269.662601 
L 316.956522 273.458051 
L 319.147826 277.253502 
L 321.33913 281.048952 
L 323.530435 284.844403 
L 325.721739 288.639853 
L 327.913043 292.435304 
L 330.104348 296.230754 
L 332.295652 300.026205 
L 334.486957 303.821655 
L 336.678261 307.617106 
L 338.869565 311.412556 
L 341.06087 315.208007 
L 343.252174 319.003457 
L 345.443478 322.798907 
L 347.634783 326.594358 
L 349.826087 330.389808 
L 352.017391 334.185259 
L 354.208696 337.980709 
L 356.4 341.77616 
L 329.550632 333.990254 
" clip-path="url(#p90b29764d3)" style="opacity: 0.625; stroke: #000000; stroke-linejoin: miter"/>
   </g>
   <g id="patch_29">
    <path d="M 323.632524 382.959282 
L 309.50039 394.853299 
L 302.51019 400.635483 
L 295.593253 405.410132 
L 286.407593 411.016075 
L 277.371129 416.212221 
L 272.145874 418.771024 
L 272.66108 417.201212 
L 277.950022 411.451911 
L 284.687222 402.740287 
L 288.744804 392.925227 
L 286.967672 383.837964 
L 278.483616 376.828397 
L 265.107164 372.599011 
L 250.711748 371.247192 
L 239.789307 372.36373 
L 235.718274 375.06145 
L 239.412361 377.934726 
L 248.908357 379.149351 
L 260.011801 377.037416 
L 267.41959 371.482055 
L 264.972309 365.489704 
L 243 363.6 
L 247.382609 363.6 
L 251.765217 363.6 
L 256.147826 363.6 
L 260.530435 363.6 
L 264.913043 363.6 
L 269.295652 363.6 
L 273.678261 363.6 
L 278.06087 363.6 
L 282.443478 363.6 
L 286.826087 363.6 
L 291.208696 363.6 
L 295.591304 363.6 
L 299.973913 363.6 
L 304.356522 363.6 
L 308.73913 363.6 
L 313.121739 363.6 
L 317.504348 363.6 
L 321.886957 363.6 
L 326.269565 363.6 
L 330.652174 363.6 
L 335.034783 363.6 
L 339.417391 363.6 
L 343.8 363.6 
L 323.632524 382.959282 
" clip-path="url(#p90b29764d3)" style="opacity: 0.625; stroke: #000000; stroke-linejoin: miter"/>
   </g>
   <g id="patch_30">
    <path d="M 363.081892 412.569028 
L 366.316345 430.754823 
L 367.828764 439.699606 
L 368.505263 448.077173 
L 368.767322 458.83516 
L 368.749084 469.25904 
L 368.352445 475.063646 
L 367.250551 473.832558 
L 364.915982 466.37755 
L 360.740094 456.187151 
L 354.268794 447.765652 
L 345.510427 444.761062 
L 335.197936 448.603686 
L 324.846954 458.07334 
L 316.478536 469.864227 
L 311.984266 479.881608 
L 312.285043 484.756086 
L 316.620418 482.993551 
L 322.420312 475.37709 
L 326.143044 464.705257 
L 325.035855 455.512243 
L 318.622686 454.635475 
L 306 472.719201 
L 308.191304 468.92375 
L 310.382609 465.1283 
L 312.573913 461.332849 
L 314.765217 457.537399 
L 316.956522 453.741949 
L 319.147826 449.946498 
L 321.33913 446.151048 
L 323.530435 442.355597 
L 325.721739 438.560147 
L 327.913043 434.764696 
L 330.104348 430.969246 
L 332.295652 427.173795 
L 334.486957 423.378345 
L 336.678261 419.582894 
L 338.869565 415.787444 
L 341.06087 411.991993 
L 343.252174 408.196543 
L 345.443478 404.401093 
L 347.634783 400.605642 
L 349.826087 396.810192 
L 352.017391 393.014741 
L 354.208696 389.219291 
L 356.4 385.42384 
L 363.081892 412.569028 
" clip-path="url(#p90b29764d3)" style="opacity: 0.625; stroke: #000000; stroke-linejoin: miter"/>
   </g>
   <g id="patch_31">
    <path d="M 408.449368 393.209746 
L 425.815956 399.501525 
L 434.318574 402.664123 
L 441.91201 406.267041 
L 451.359729 411.419085 
L 460.377955 416.646819 
L 465.206571 419.892622 
L 463.589472 420.231346 
L 455.96596 418.525638 
L 445.052872 417.046864 
L 434.523989 418.440425 
L 427.542755 424.523098 
L 425.71432 435.375289 
L 428.73979 449.07433 
L 434.766788 462.217035 
L 441.194959 471.117878 
L 445.56677 473.294636 
L 446.208057 468.658824 
L 442.511955 459.827738 
L 435.131243 451.267841 
L 426.616265 447.630188 
L 422.650377 452.745771 
L 432 472.719201 
L 429.808696 468.92375 
L 427.617391 465.1283 
L 425.426087 461.332849 
L 423.234783 457.537399 
L 421.043478 453.741949 
L 418.852174 449.946498 
L 416.66087 446.151048 
L 414.469565 442.355597 
L 412.278261 438.560147 
L 410.086957 434.764696 
L 407.895652 430.969246 
L 405.704348 427.173795 
L 403.513043 423.378345 
L 401.321739 419.582894 
L 399.130435 415.787444 
L 396.93913 411.991993 
L 394.747826 408.196543 
L 392.556522 404.401093 
L 390.365217 400.605642 
L 388.173913 396.810192 
L 385.982609 393.014741 
L 383.791304 389.219291 
L 381.6 385.42384 
L 408.449368 393.209746 
" clip-path="url(#p90b29764d3)" style="opacity: 0.625; stroke: #000000; stroke-linejoin: miter"/>
   </g>
   <g id="patch_32">
    <path d="M 414.367476 382.959282 
L 428.49961 394.853299 
L 435.48981 400.635483 
L 442.406747 405.410132 
L 451.592407 411.016075 
L 460.628871 416.212221 
L 465.854126 418.771024 
L 465.33892 417.201212 
L 460.049978 411.451911 
L 453.312778 402.740287 
L 449.255196 392.925227 
L 451.032328 383.837964 
L 459.516384 376.828397 
L 472.892836 372.599011 
L 487.288252 371.247192 
L 498.210693 372.36373 
L 502.281726 375.06145 
L 498.587639 377.934726 
L 489.091643 379.149351 
L 477.988199 377.037416 
L 470.58041 371.482055 
L 473.027691 365.489704 
L 495 363.6 
L 490.617391 363.6 
L 486.234783 363.6 
L 481.852174 363.6 
L 477.469565 363.6 
L 473.086957 363.6 
L 468.704348 363.6 
L 464.321739 363.6 
L 459.93913 363.6 
L 455.556522 363.6 
L 451.173913 363.6 
L 446.791304 363.6 
L 442.408696 363.6 
L 438.026087 363.6 
L 433.643478 363.6 
L 429.26087 363.6 
L 424.878261 363.6 
L 420.495652 363.6 
L 416.113043 363.6 
L 411.730435 363.6 
L 407.347826 363.6 
L 402.965217 363.6 
L 398.582609 363.6 
L 394.2 363.6 
L 414.367476 382.959282 
" clip-path="url(#p90b29764d3)" style="opacity: 0.625; stroke: #000000; stroke-linejoin: miter"/>
   </g>
   <g id="patch_33">
    <path d="M 408.449368 333.990254 
L 425.815956 327.698475 
L 434.318574 324.535877 
L 441.91201 320.932959 
L 451.359729 315.780915 
L 460.377955 310.553181 
L 465.206571 307.307378 
L 463.589472 306.968654 
L 455.96596 308.674362 
L 445.052872 310.153136 
L 434.523989 308.759575 
L 427.542755 302.676902 
L 425.71432 291.824711 
L 428.73979 278.12567 
L 434.766788 264.982965 
L 441.194959 256.082122 
L 445.56677 253.905364 
L 446.208057 258.541176 
L 442.511955 267.372262 
L 435.131243 275.932159 
L 426.616265 279.569812 
L 422.650377 274.454229 
L 432 254.480799 
L 429.808696 258.27625 
L 427.617391 262.0717 
L 425.426087 265.867151 
L 423.234783 269.662601 
L 421.043478 273.458051 
L 418.852174 277.253502 
L 416.66087 281.048952 
L 414.469565 284.844403 
L 412.278261 288.639853 
L 410.086957 292.435304 
L 407.895652 296.230754 
L 405.704348 300.026205 
L 403.513043 303.821655 
L 401.321739 307.617106 
L 399.130435 311.412556 
L 396.93913 315.208007 
L 394.747826 319.003457 
L 392.556522 322.798907 
L 390.365217 326.594358 
L 388.173913 330.389808 
L 385.982609 334.185259 
L 383.791304 337.980709 
L 381.6 341.77616 
L 408.449368 333.990254 
" clip-path="url(#p90b29764d3)" style="opacity: 0.625; stroke: #000000; stroke-linejoin: miter"/>
   </g>
   <g id="patch_34">
    <path d="M 363.081892 314.630972 
L 366.316345 296.445177 
L 367.828764 287.500394 
L 368.505263 279.122827 
L 368.767322 268.36484 
L 368.749084 257.94096 
L 368.352445 252.136354 
L 367.250551 253.367442 
L 364.915982 260.82245 
L 360.740094 271.012849 
L 354.268794 279.434348 
L 345.510427 282.438938 
L 335.197936 278.596314 
L 324.846954 269.12666 
L 316.478536 257.335773 
L 311.984266 247.318392 
L 312.285043 242.443914 
L 316.620418 244.206449 
L 322.420312 251.82291 
L 326.143044 262.494743 
L 325.035855 271.687757 
L 318.622686 272.564525 
L 306 254.480799 
L 308.191304 258.27625 
L 310.382609 262.0717 
L 312.573913 265.867151 
L 314.765217 269.662601 
L 316.956522 273.458051 
L 319.147826 277.253502 
L 321.33913 281.048952 
L 323.530435 284.844403 
L 325.721739 288.639853 
L 327.913043 292.435304 
L 330.104348 296.230754 
L 332.295652 300.026205 
L 334.486957 303.821655 
L 336.678261 307.617106 
L 338.869565 311.412556 
L 341.06087 315.208007 
L 343.252174 319.003457 
L 345.443478 322.798907 
L 347.634783 326.594358 
L 349.826087 330.389808 
L 352.017391 334.185259 
L 354.208696 337.980709 
L 356.4 341.77616 
L 363.081892 314.630972 
" clip-path="url(#p90b29764d3)" style="opacity: 0.625; stroke: #000000; stroke-linejoin: miter"/>
   </g>
   <g id="patch_35">
    <path d="M 323.632524 344.240718 
L 309.50039 332.346701 
L 302.51019 326.564517 
L 295.593253 321.789868 
L 286.407593 316.183925 
L 277.371129 310.987779 
L 272.145874 308.428976 
L 272.66108 309.998788 
L 277.950022 315.748089 
L 284.687222 324.459713 
L 288.744804 334.274773 
L 286.967672 343.362036 
L 278.483616 350.371603 
L 265.107164 354.600989 
L 250.711748 355.952808 
L 239.789307 354.83627 
L 235.718274 352.13855 
L 239.412361 349.265274 
L 248.908357 348.050649 
L 260.011801 350.162584 
L 267.41959 355.717945 
L 264.972309 361.710296 
L 243 363.6 
L 247.382609 363.6 
L 251.765217 363.6 
L 256.147826 363.6 
L 260.530435 363.6 
L 264.913043 363.6 
L 269.295652 363.6 
L 273.678261 363.6 
L 278.06087 363.6 
L 282.443478 363.6 
L 286.826087 363.6 
L 291.208696 363.6 
L 295.591304 363.6 
L 299.973913 363.6 
L 304.356522 363.6 
L 308.73913 363.6 
L 313.121739 363.6 
L 317.504348 363.6 
L 321.886957 363.6 
L 326.269565 363.6 
L 330.652174 363.6 
L 335.034783 363.6 
L 339.417391 363.6 
L 343.8 363.6 
L 323.632524 344.240718 
" clip-path="url(#p90b29764d3)" style="opacity: 0.625; stroke: #000000; stroke-linejoin: miter"/>
   </g>
   <g id="patch_36">
    <path d="M 329.550632 393.209746 
L 312.184044 399.501525 
L 303.681426 402.664123 
L 296.08799 406.267041 
L 286.640271 411.419085 
L 277.622045 416.646819 
L 272.793429 419.892622 
L 274.410528 420.231346 
L 282.03404 418.525638 
L 292.947128 417.046864 
L 303.476011 418.440425 
L 310.457245 424.523098 
L 312.28568 435.375289 
L 309.26021 449.07433 
L 303.233212 462.217035 
L 296.805041 471.117878 
L 292.43323 473.294636 
L 291.791943 468.658824 
L 295.488045 459.827738 
L 302.868757 451.267841 
L 311.383735 447.630188 
L 315.349623 452.745771 
L 306 472.719201 
L 308.191304 468.92375 
L 310.382609 465.1283 
L 312.573913 461.332849 
L 314.765217 457.537399 
L 316.956522 453.741949 
L 319.147826 449.946498 
L 321.33913 446.151048 
L 323.530435 442.355597 
L 325.721739 438.560147 
L 327.913043 434.764696 
L 330.104348 430.969246 
L 332.295652 427.173795 
L 334.486957 423.378345 
L 336.678261 419.582894 
L 338.869565 415.787444 
L 341.06087 411.991993 
L 343.252174 408.196543 
L 345.443478 404.401093 
L 347.634783 400.605642 
L 349.826087 396.810192 
L 352.017391 393.014741 
L 354.208696 389.219291 
L 356.4 385.42384 
L 329.550632 393.209746 
" clip-path="url(#p90b29764d3)" style="opacity: 0.625; stroke: #000000; stroke-linejoin: miter"/>
   </g>
   <g id="patch_37">
    <path d="M 374.918108 412.569028 
L 371.683655 430.754823 
L 370.171236 439.699606 
L 369.494737 448.077173 
L 369.232678 458.83516 
L 369.250916 469.25904 
L 369.647555 475.063646 
L 370.749449 473.832558 
L 373.084018 466.37755 
L 377.259906 456.187151 
L 383.731206 447.765652 
L 392.489573 444.761062 
L 402.802064 448.603686 
L 413.153046 458.07334 
L 421.521464 469.864227 
L 426.015734 479.881608 
L 425.714957 484.756086 
L 421.379582 482.993551 
L 415.579688 475.37709 
L 411.856956 464.705257 
L 412.964145 455.512243 
L 419.377314 454.635475 
L 432 472.719201 
L 429.808696 468.92375 
L 427.617391 465.1283 
L 425.426087 461.332849 
L 423.234783 457.537399 
L 421.043478 453.741949 
L 418.852174 449.946498 
L 416.66087 446.151048 
L 414.469565 442.355597 
L 412.278261 438.560147 
L 410.086957 434.764696 
L 407.895652 430.969246 
L 405.704348 427.173795 
L 403.513043 423.378345 
L 401.321739 419.582894 
L 399.130435 415.787444 
L 396.93913 411.991993 
L 394.747826 408.196543 
L 392.556522 404.401093 
L 390.365217 400.605642 
L 388.173913 396.810192 
L 385.982609 393.014741 
L 383.791304 389.219291 
L 381.6 385.42384 
L 374.918108 412.569028 
" clip-path="url(#p90b29764d3)" style="opacity: 0.625; stroke: #000000; stroke-linejoin: miter"/>
   </g>
   <g id="line2d_1">
    <path d="M 541.367379 269.753656 
L 553.985137 283.092429 
L 570.904932 296.819475 
L 575.440111 308.377873 
L 568.42985 313.799825 
L 555.328148 313.11351 
L 540.388937 309.43354 
L 525.701554 306.447213 
L 512.198734 306.580653 
L 500.630199 310.467283 
L 491.796909 317.377489 
L 486.269843 325.959481 
L 484.121117 334.796803 
L 485.025672 342.626654 
L 488.736828 348.340052 
L 495.624556 350.984093 
L 506.792948 349.936312 
L 523.294361 345.32553 
L 544.165956 338.691589 
L 563.410799 333.693454 
L 566.188167 336.010042 
L 522.611722 349.742153 
L 369 363.6 
L 378.488626 358.121739 
L 387.977252 352.643478 
L 397.465878 347.165217 
L 406.954505 341.686957 
L 416.443131 336.208696 
L 425.931757 330.730435 
L 435.420383 325.252174 
L 444.909009 319.773913 
L 454.397635 314.295652 
L 463.886262 308.817391 
L 473.374888 303.33913 
L 482.863514 297.86087 
L 492.35214 292.382609 
L 501.840766 286.904348 
L 511.329392 281.426087 
L 520.818019 275.947826 
L 530.306645 270.469565 
L 539.795271 264.991304 
L 549.283897 259.513043 
L 558.772523 254.034783 
L 568.261149 248.556522 
L 577.749776 243.078261 
L 587.238402 237.6 
L 541.367379 269.753656 
" clip-path="url(#p90b29764d3)" style="fill: none; stroke: #ffffff; stroke-width: 1.5; stroke-linecap: square"/>
   </g>
   <g id="line2d_2">
    <path d="M 373.910372 167.402299 
L 391.770966 163.144386 
L 412.118835 155.354937 
L 424.396291 157.206556 
L 425.586709 165.988596 
L 418.441491 176.991846 
L 407.784938 188.089597 
L 397.855012 199.31608 
L 391.219164 211.076585 
L 388.800817 223.038545 
L 390.368585 234.143502 
L 395.037275 243.221078 
L 401.616258 249.500589 
L 408.849386 252.632148 
L 415.652911 252.274891 
L 421.386582 247.631964 
L 426.063373 237.435963 
L 430.321025 220.839929 
L 435.011661 199.447627 
L 440.305571 180.282037 
L 443.700479 179.035059 
L 433.804614 223.639423 
L 369 363.6 
L 369 352.643478 
L 369 341.686957 
L 369 330.730435 
L 369 319.773913 
L 369 308.817391 
L 369 297.86087 
L 369 286.904348 
L 369 275.947826 
L 369 264.991304 
L 369 254.034783 
L 369 243.078261 
L 369 232.121739 
L 369 221.165217 
L 369 210.208696 
L 369 199.252174 
L 369 188.295652 
L 369 177.33913 
L 369 166.382609 
L 369 155.426087 
L 369 144.469565 
L 369 133.513043 
L 369 122.556522 
L 369 111.6 
L 373.910372 167.402299 
" clip-path="url(#p90b29764d3)" style="fill: none; stroke: #ffffff; stroke-width: 1.5; stroke-linecap: square"/>
   </g>
   <g id="line2d_3">
    <path d="M 201.542993 261.248643 
L 206.78583 243.651958 
L 210.213903 222.135462 
L 217.95618 212.428683 
L 226.156858 215.788771 
L 232.113344 227.478336 
L 236.396001 242.256057 
L 241.153457 256.468867 
L 248.02043 268.095932 
L 257.170618 276.171262 
L 267.571677 280.366013 
L 277.767433 280.861597 
L 286.495141 278.303786 
L 292.823714 273.605494 
L 295.916083 267.53484 
L 294.762026 260.247871 
L 288.270425 251.099651 
L 276.026664 239.114399 
L 259.845706 224.356038 
L 245.894772 210.188582 
L 246.512312 206.625017 
L 280.192892 237.49727 
L 369 363.6 
L 359.511374 358.121739 
L 350.022748 352.643478 
L 340.534122 347.165217 
L 331.045495 341.686957 
L 321.556869 336.208696 
L 312.068243 330.730435 
L 302.579617 325.252174 
L 293.090991 319.773913 
L 283.602365 314.295652 
L 274.113738 308.817391 
L 264.625112 303.33913 
L 255.136486 297.86087 
L 245.64786 292.382609 
L 236.159234 286.904348 
L 226.670608 281.426087 
L 217.181981 275.947826 
L 207.693355 270.469565 
L 198.204729 264.991304 
L 188.716103 259.513043 
L 179.227477 254.034783 
L 169.738851 248.556522 
L 160.250224 243.078261 
L 150.761598 237.6 
L 201.542993 261.248643 
" clip-path="url(#p90b29764d3)" style="fill: none; stroke: #ffffff; stroke-width: 1.5; stroke-linecap: square"/>
   </g>
   <g id="line2d_4">
    <path d="M 196.632621 457.446344 
L 184.014863 444.107571 
L 167.095068 430.380525 
L 162.559889 418.822127 
L 169.57015 413.400175 
L 182.671852 414.08649 
L 197.611063 417.76646 
L 212.298446 420.752787 
L 225.801266 420.619347 
L 237.369801 416.732717 
L 246.203091 409.822511 
L 251.730157 401.240519 
L 253.878883 392.403197 
L 252.974328 384.573346 
L 249.263172 378.859948 
L 242.375444 376.215907 
L 231.207052 377.263688 
L 214.705639 381.87447 
L 193.834044 388.508411 
L 174.589201 393.506546 
L 171.811833 391.189958 
L 215.388278 377.457847 
L 369 363.6 
L 359.511374 369.078261 
L 350.022748 374.556522 
L 340.534122 380.034783 
L 331.045495 385.513043 
L 321.556869 390.991304 
L 312.068243 396.469565 
L 302.579617 401.947826 
L 293.090991 407.426087 
L 283.602365 412.904348 
L 274.113738 418.382609 
L 264.625112 423.86087 
L 255.136486 429.33913 
L 245.64786 434.817391 
L 236.159234 440.295652 
L 226.670608 445.773913 
L 217.181981 451.252174 
L 207.693355 456.730435 
L 198.204729 462.208696 
L 188.716103 467.686957 
L 179.227477 473.165217 
L 169.738851 478.643478 
L 160.250224 484.121739 
L 150.761598 489.6 
L 196.632621 457.446344 
" clip-path="url(#p90b29764d3)" style="fill: none; stroke: #ffffff; stroke-width: 1.5; stroke-linecap: square"/>
   </g>
   <g id="line2d_5">
    <path d="M 364.089628 559.797701 
L 346.229034 564.055614 
L 325.881165 571.845063 
L 313.603709 569.993444 
L 312.413291 561.211404 
L 319.558509 550.208154 
L 330.215062 539.110403 
L 340.144988 527.88392 
L 346.780836 516.123415 
L 349.199183 504.161455 
L 347.631415 493.056498 
L 342.962725 483.978922 
L 336.383742 477.699411 
L 329.150614 474.567852 
L 322.347089 474.925109 
L 316.613418 479.568036 
L 311.936627 489.764037 
L 307.678975 506.360071 
L 302.988339 527.752373 
L 297.694429 546.917963 
L 294.299521 548.164941 
L 304.195386 503.560577 
L 369 363.6 
L 369 374.556522 
L 369 385.513043 
L 369 396.469565 
L 369 407.426087 
L 369 418.382609 
L 369 429.33913 
L 369 440.295652 
L 369 451.252174 
L 369 462.208696 
L 369 473.165217 
L 369 484.121739 
L 369 495.078261 
L 369 506.034783 
L 369 516.991304 
L 369 527.947826 
L 369 538.904348 
L 369 549.86087 
L 369 560.817391 
L 369 571.773913 
L 369 582.730435 
L 369 593.686957 
L 369 604.643478 
L 369 615.6 
L 364.089628 559.797701 
" clip-path="url(#p90b29764d3)" style="fill: none; stroke: #ffffff; stroke-width: 1.5; stroke-linecap: square"/>
   </g>
   <g id="line2d_6">
    <path d="M 536.457007 465.951357 
L 531.21417 483.548042 
L 527.786097 505.064538 
L 520.04382 514.771317 
L 511.843142 511.411229 
L 505.886656 499.721664 
L 501.603999 484.943943 
L 496.846543 470.731133 
L 489.97957 459.104068 
L 480.829382 451.028738 
L 470.428323 446.833987 
L 460.232567 446.338403 
L 451.504859 448.896214 
L 445.176286 453.594506 
L 442.083917 459.66516 
L 443.237974 466.952129 
L 449.729575 476.100349 
L 461.973336 488.085601 
L 478.154294 502.843962 
L 492.105228 517.011418 
L 491.487688 520.574983 
L 457.807108 489.70273 
L 369 363.6 
L 378.488626 369.078261 
L 387.977252 374.556522 
L 397.465878 380.034783 
L 406.954505 385.513043 
L 416.443131 390.991304 
L 425.931757 396.469565 
L 435.420383 401.947826 
L 444.909009 407.426087 
L 454.397635 412.904348 
L 463.886262 418.382609 
L 473.374888 423.86087 
L 482.863514 429.33913 
L 492.35214 434.817391 
L 501.840766 440.295652 
L 511.329392 445.773913 
L 520.818019 451.252174 
L 530.306645 456.730435 
L 539.795271 462.208696 
L 549.283897 467.686957 
L 558.772523 473.165217 
L 568.261149 478.643478 
L 577.749776 484.121739 
L 587.238402 489.6 
L 536.457007 465.951357 
" clip-path="url(#p90b29764d3)" style="fill: none; stroke: #ffffff; stroke-width: 1.5; stroke-linecap: square"/>
   </g>
   <g id="line2d_7">
    <path d="M 541.367379 457.446344 
L 553.985137 444.107571 
L 570.904932 430.380525 
L 575.440111 418.822127 
L 568.42985 413.400175 
L 555.328148 414.08649 
L 540.388937 417.76646 
L 525.701554 420.752787 
L 512.198734 420.619347 
L 500.630199 416.732717 
L 491.796909 409.822511 
L 486.269843 401.240519 
L 484.121117 392.403197 
L 485.025672 384.573346 
L 488.736828 378.859948 
L 495.624556 376.215907 
L 506.792948 377.263688 
L 523.294361 381.87447 
L 544.165956 388.508411 
L 563.410799 393.506546 
L 566.188167 391.189958 
L 522.611722 377.457847 
L 369 363.6 
L 378.488626 369.078261 
L 387.977252 374.556522 
L 397.465878 380.034783 
L 406.954505 385.513043 
L 416.443131 390.991304 
L 425.931757 396.469565 
L 435.420383 401.947826 
L 444.909009 407.426087 
L 454.397635 412.904348 
L 463.886262 418.382609 
L 473.374888 423.86087 
L 482.863514 429.33913 
L 492.35214 434.817391 
L 501.840766 440.295652 
L 511.329392 445.773913 
L 520.818019 451.252174 
L 530.306645 456.730435 
L 539.795271 462.208696 
L 549.283897 467.686957 
L 558.772523 473.165217 
L 568.261149 478.643478 
L 577.749776 484.121739 
L 587.238402 489.6 
L 541.367379 457.446344 
" clip-path="url(#p90b29764d3)" style="fill: none; stroke: #ffffff; stroke-width: 1.5; stroke-linecap: square"/>
   </g>
   <g id="line2d_8">
    <path d="M 536.457007 261.248643 
L 531.21417 243.651958 
L 527.786097 222.135462 
L 520.04382 212.428683 
L 511.843142 215.788771 
L 505.886656 227.478336 
L 501.603999 242.256057 
L 496.846543 256.468867 
L 489.97957 268.095932 
L 480.829382 276.171262 
L 470.428323 280.366013 
L 460.232567 280.861597 
L 451.504859 278.303786 
L 445.176286 273.605494 
L 442.083917 267.53484 
L 443.237974 260.247871 
L 449.729575 251.099651 
L 461.973336 239.114399 
L 478.154294 224.356038 
L 492.105228 210.188582 
L 491.487688 206.625017 
L 457.807108 237.49727 
L 369 363.6 
L 378.488626 358.121739 
L 387.977252 352.643478 
L 397.465878 347.165217 
L 406.954505 341.686957 
L 416.443131 336.208696 
L 425.931757 330.730435 
L 435.420383 325.252174 
L 444.909009 319.773913 
L 454.397635 314.295652 
L 463.886262 308.817391 
L 473.374888 303.33913 
L 482.863514 297.86087 
L 492.35214 292.382609 
L 501.840766 286.904348 
L 511.329392 281.426087 
L 520.818019 275.947826 
L 530.306645 270.469565 
L 539.795271 264.991304 
L 549.283897 259.513043 
L 558.772523 254.034783 
L 568.261149 248.556522 
L 577.749776 243.078261 
L 587.238402 237.6 
L 536.457007 261.248643 
" clip-path="url(#p90b29764d3)" style="fill: none; stroke: #ffffff; stroke-width: 1.5; stroke-linecap: square"/>
   </g>
   <g id="line2d_9">
    <path d="M 364.089628 167.402299 
L 346.229034 163.144386 
L 325.881165 155.354937 
L 313.603709 157.206556 
L 312.413291 165.988596 
L 319.558509 176.991846 
L 330.215062 188.089597 
L 340.144988 199.31608 
L 346.780836 211.076585 
L 349.199183 223.038545 
L 347.631415 234.143502 
L 342.962725 243.221078 
L 336.383742 249.500589 
L 329.150614 252.632148 
L 322.347089 252.274891 
L 316.613418 247.631964 
L 311.936627 237.435963 
L 307.678975 220.839929 
L 302.988339 199.447627 
L 297.694429 180.282037 
L 294.299521 179.035059 
L 304.195386 223.639423 
L 369 363.6 
L 369 352.643478 
L 369 341.686957 
L 369 330.730435 
L 369 319.773913 
L 369 308.817391 
L 369 297.86087 
L 369 286.904348 
L 369 275.947826 
L 369 264.991304 
L 369 254.034783 
L 369 243.078261 
L 369 232.121739 
L 369 221.165217 
L 369 210.208696 
L 369 199.252174 
L 369 188.295652 
L 369 177.33913 
L 369 166.382609 
L 369 155.426087 
L 369 144.469565 
L 369 133.513043 
L 369 122.556522 
L 369 111.6 
L 364.089628 167.402299 
" clip-path="url(#p90b29764d3)" style="fill: none; stroke: #ffffff; stroke-width: 1.5; stroke-linecap: square"/>
   </g>
   <g id="line2d_10">
    <path d="M 196.632621 269.753656 
L 184.014863 283.092429 
L 167.095068 296.819475 
L 162.559889 308.377873 
L 169.57015 313.799825 
L 182.671852 313.11351 
L 197.611063 309.43354 
L 212.298446 306.447213 
L 225.801266 306.580653 
L 237.369801 310.467283 
L 246.203091 317.377489 
L 251.730157 325.959481 
L 253.878883 334.796803 
L 252.974328 342.626654 
L 249.263172 348.340052 
L 242.375444 350.984093 
L 231.207052 349.936312 
L 214.705639 345.32553 
L 193.834044 338.691589 
L 174.589201 333.693454 
L 171.811833 336.010042 
L 215.388278 349.742153 
L 369 363.6 
L 359.511374 358.121739 
L 350.022748 352.643478 
L 340.534122 347.165217 
L 331.045495 341.686957 
L 321.556869 336.208696 
L 312.068243 330.730435 
L 302.579617 325.252174 
L 293.090991 319.773913 
L 283.602365 314.295652 
L 274.113738 308.817391 
L 264.625112 303.33913 
L 255.136486 297.86087 
L 245.64786 292.382609 
L 236.159234 286.904348 
L 226.670608 281.426087 
L 217.181981 275.947826 
L 207.693355 270.469565 
L 198.204729 264.991304 
L 188.716103 259.513043 
L 179.227477 254.034783 
L 169.738851 248.556522 
L 160.250224 243.078261 
L 150.761598 237.6 
L 196.632621 269.753656 
" clip-path="url(#p90b29764d3)" style="fill: none; stroke: #ffffff; stroke-width: 1.5; stroke-linecap: square"/>
   </g>
   <g id="line2d_11">
    <path d="M 201.542993 465.951357 
L 206.78583 483.548042 
L 210.213903 505.064538 
L 217.95618 514.771317 
L 226.156858 511.411229 
L 232.113344 499.721664 
L 236.396001 484.943943 
L 241.153457 470.731133 
L 248.02043 459.104068 
L 257.170618 451.028738 
L 267.571677 446.833987 
L 277.767433 446.338403 
L 286.495141 448.896214 
L 292.823714 453.594506 
L 295.916083 459.66516 
L 294.762026 466.952129 
L 288.270425 476.100349 
L 276.026664 488.085601 
L 259.845706 502.843962 
L 245.894772 517.011418 
L 246.512312 520.574983 
L 280.192892 489.70273 
L 369 363.6 
L 359.511374 369.078261 
L 350.022748 374.556522 
L 340.534122 380.034783 
L 331.045495 385.513043 
L 321.556869 390.991304 
L 312.068243 396.469565 
L 302.579617 401.947826 
L 293.090991 407.426087 
L 283.602365 412.904348 
L 274.113738 418.382609 
L 264.625112 423.86087 
L 255.136486 429.33913 
L 245.64786 434.817391 
L 236.159234 440.295652 
L 226.670608 445.773913 
L 217.181981 451.252174 
L 207.693355 456.730435 
L 198.204729 462.208696 
L 188.716103 467.686957 
L 179.227477 473.165217 
L 169.738851 478.643478 
L 160.250224 484.121739 
L 150.761598 489.6 
L 201.542993 465.951357 
" clip-path="url(#p90b29764d3)" style="fill: none; stroke: #ffffff; stroke-width: 1.5; stroke-linecap: square"/>
   </g>
   <g id="line2d_12">
    <path d="M 373.910372 559.797701 
L 391.770966 564.055614 
L 412.118835 571.845063 
L 424.396291 569.993444 
L 425.586709 561.211404 
L 418.441491 550.208154 
L 407.784938 539.110403 
L 397.855012 527.88392 
L 391.219164 516.123415 
L 388.800817 504.161455 
L 390.368585 493.056498 
L 395.037275 483.978922 
L 401.616258 477.699411 
L 408.849386 474.567852 
L 415.652911 474.925109 
L 421.386582 479.568036 
L 426.063373 489.764037 
L 430.321025 506.360071 
L 435.011661 527.752373 
L 440.305571 546.917963 
L 443.700479 548.164941 
L 433.804614 503.560577 
L 369 363.6 
L 369 374.556522 
L 369 385.513043 
L 369 396.469565 
L 369 407.426087 
L 369 418.382609 
L 369 429.33913 
L 369 440.295652 
L 369 451.252174 
L 369 462.208696 
L 369 473.165217 
L 369 484.121739 
L 369 495.078261 
L 369 506.034783 
L 369 516.991304 
L 369 527.947826 
L 369 538.904348 
L 369 549.86087 
L 369 560.817391 
L 369 571.773913 
L 369 582.730435 
L 369 593.686957 
L 369 604.643478 
L 369 615.6 
L 373.910372 559.797701 
" clip-path="url(#p90b29764d3)" style="fill: none; stroke: #ffffff; stroke-width: 1.5; stroke-linecap: square"/>
   </g>
   <g id="line2d_13">
    <path d="M 533.735206 314.675323 
L 523.780263 334.544118 
L 521.638369 337.898734 
L 523.783874 334.087373 
L 522.542615 328.750078 
L 512.9879 325.210443 
L 495.286821 324.766417 
L 473.541512 326.926827 
L 453.277779 330.049873 
L 439.192662 332.243876 
L 433.891325 332.177982 
L 437.673421 329.53021 
L 449.074493 324.99531 
L 465.738926 319.958757 
L 485.190171 316.047636 
L 505.138456 314.758578 
L 523.166369 317.230403 
L 536.000879 324.030775 
L 539.068099 334.724823 
L 527.46903 347.242643 
L 499.795575 357.809958 
L 466.784988 362.954093 
L 469.8 363.6 
L 473.008292 359.217391 
L 476.216584 354.834783 
L 479.424877 350.452174 
L 482.633169 346.069565 
L 485.841461 341.686957 
L 489.049753 337.304348 
L 492.258046 332.921739 
L 495.466338 328.53913 
L 498.67463 324.156522 
L 501.882922 319.773913 
L 505.091215 315.391304 
L 508.299507 311.008696 
L 511.507799 306.626087 
L 514.716091 302.243478 
L 517.924384 297.86087 
L 521.132676 293.478261 
L 524.340968 289.095652 
L 527.54926 284.713043 
L 530.757552 280.330435 
L 533.965845 275.947826 
L 537.174137 271.565217 
L 540.382429 267.182609 
L 543.590721 262.8 
L 533.735206 314.675323 
" clip-path="url(#p90b29764d3)" style="fill: none; stroke: #ffffff; stroke-width: 1.5; stroke-linecap: square"/>
   </g>
   <g id="line2d_14">
    <path d="M 408.997589 196.472788 
L 421.227 215.028419 
L 423.061235 218.560662 
L 420.833252 214.796919 
L 415.59039 213.203234 
L 407.747618 219.708042 
L 398.512541 234.815613 
L 389.510857 254.727809 
L 382.083628 273.838239 
L 376.941131 287.13331 
L 374.233397 291.691455 
L 373.831407 287.092178 
L 375.604605 274.95111 
L 379.575038 258.001011 
L 385.91353 239.200179 
L 394.771316 221.279928 
L 405.925935 206.90321 
L 418.232485 199.188384 
L 429.027412 201.879118 
L 434.068628 218.183116 
L 429.383464 247.432689 
L 417.333122 278.592763 
L 419.4 276.304639 
L 417.208696 271.334872 
L 415.017391 266.365105 
L 412.826087 261.395339 
L 410.634783 256.425572 
L 408.443478 251.455805 
L 406.252174 246.486038 
L 404.06087 241.516271 
L 401.869565 236.546504 
L 399.678261 231.576737 
L 397.486957 226.60697 
L 395.295652 221.637203 
L 393.104348 216.667436 
L 390.913043 211.697669 
L 388.721739 206.727902 
L 386.530435 201.758135 
L 384.33913 196.788368 
L 382.147826 191.818602 
L 379.956522 186.848835 
L 377.765217 181.879068 
L 375.573913 176.909301 
L 373.382609 171.939534 
L 371.191304 166.969767 
L 369 162 
L 408.997589 196.472788 
" clip-path="url(#p90b29764d3)" style="fill: none; stroke: #ffffff; stroke-width: 1.5; stroke-linecap: square"/>
   </g>
   <g id="line2d_15">
    <path d="M 244.262384 245.397466 
L 266.446736 244.084301 
L 270.422867 244.261928 
L 266.049378 244.309547 
L 262.047775 248.053156 
L 263.759718 258.097599 
L 272.22572 273.649196 
L 284.969345 291.400981 
L 297.805848 307.388365 
L 306.748469 318.489433 
L 309.342072 323.113473 
L 305.157986 321.161968 
L 295.530112 313.5558 
L 282.836112 301.642254 
L 269.72336 286.752542 
L 258.63286 270.12135 
L 251.759567 253.272807 
L 251.231607 238.757609 
L 258.959314 230.754295 
L 275.599598 234.540473 
L 298.587889 253.222731 
L 319.548134 279.23867 
L 318.6 276.304639 
L 313.200403 275.717481 
L 307.800807 275.130323 
L 302.40121 274.543165 
L 297.001614 273.956006 
L 291.602017 273.368848 
L 286.202421 272.78169 
L 280.802824 272.194532 
L 275.403227 271.607373 
L 270.003631 271.020215 
L 264.604034 270.433057 
L 259.204438 269.845899 
L 253.804841 269.258741 
L 248.405244 268.671582 
L 243.005648 268.084424 
L 237.606051 267.497266 
L 232.206455 266.910108 
L 226.806858 266.322949 
L 221.407262 265.735791 
L 216.007665 265.148633 
L 210.608068 264.561475 
L 205.208472 263.974316 
L 199.808875 263.387158 
L 194.409279 262.8 
L 244.262384 245.397466 
" clip-path="url(#p90b29764d3)" style="fill: none; stroke: #ffffff; stroke-width: 1.5; stroke-linecap: square"/>
   </g>
   <g id="line2d_16">
    <path d="M 204.264794 412.524677 
L 214.219737 392.655882 
L 216.361631 389.301266 
L 214.216126 393.112627 
L 215.457385 398.449922 
L 225.0121 401.989557 
L 242.713179 402.433583 
L 264.458488 400.273173 
L 284.722221 397.150127 
L 298.807338 394.956124 
L 304.108675 395.022018 
L 300.326579 397.66979 
L 288.925507 402.20469 
L 272.261074 407.241243 
L 252.809829 411.152364 
L 232.861544 412.441422 
L 214.833631 409.969597 
L 201.999121 403.169225 
L 198.931901 392.475177 
L 210.53097 379.957357 
L 238.204425 369.390042 
L 271.215012 364.245907 
L 268.2 363.6 
L 264.991708 367.982609 
L 261.783416 372.365217 
L 258.575123 376.747826 
L 255.366831 381.130435 
L 252.158539 385.513043 
L 248.950247 389.895652 
L 245.741954 394.278261 
L 242.533662 398.66087 
L 239.32537 403.043478 
L 236.117078 407.426087 
L 232.908785 411.808696 
L 229.700493 416.191304 
L 226.492201 420.573913 
L 223.283909 424.956522 
L 220.075616 429.33913 
L 216.867324 433.721739 
L 213.659032 438.104348 
L 210.45074 442.486957 
L 207.242448 446.869565 
L 204.034155 451.252174 
L 200.825863 455.634783 
L 197.617571 460.017391 
L 194.409279 464.4 
L 204.264794 412.524677 
" clip-path="url(#p90b29764d3)" style="fill: none; stroke: #ffffff; stroke-width: 1.5; stroke-linecap: square"/>
   </g>
   <g id="line2d_17">
    <path d="M 329.002411 530.727212 
L 316.773 512.171581 
L 314.938765 508.639338 
L 317.166748 512.403081 
L 322.40961 513.996766 
L 330.252382 507.491958 
L 339.487459 492.384387 
L 348.489143 472.472191 
L 355.916372 453.361761 
L 361.058869 440.06669 
L 363.766603 435.508545 
L 364.168593 440.107822 
L 362.395395 452.24889 
L 358.424962 469.198989 
L 352.08647 487.999821 
L 343.228684 505.920072 
L 332.074065 520.29679 
L 319.767515 528.011616 
L 308.972588 525.320882 
L 303.931372 509.016884 
L 308.616536 479.767311 
L 320.666878 448.607237 
L 318.6 450.895361 
L 320.791304 455.865128 
L 322.982609 460.834895 
L 325.173913 465.804661 
L 327.365217 470.774428 
L 329.556522 475.744195 
L 331.747826 480.713962 
L 333.93913 485.683729 
L 336.130435 490.653496 
L 338.321739 495.623263 
L 340.513043 500.59303 
L 342.704348 505.562797 
L 344.895652 510.532564 
L 347.086957 515.502331 
L 349.278261 520.472098 
L 351.469565 525.441865 
L 353.66087 530.411632 
L 355.852174 535.381398 
L 358.043478 540.351165 
L 360.234783 545.320932 
L 362.426087 550.290699 
L 364.617391 555.260466 
L 366.808696 560.230233 
L 369 565.2 
L 329.002411 530.727212 
" clip-path="url(#p90b29764d3)" style="fill: none; stroke: #ffffff; stroke-width: 1.5; stroke-linecap: square"/>
   </g>
   <g id="line2d_18">
    <path d="M 493.737616 481.802534 
L 471.553264 483.115699 
L 467.577133 482.938072 
L 471.950622 482.890453 
L 475.952225 479.146844 
L 474.240282 469.102401 
L 465.77428 453.550804 
L 453.030655 435.799019 
L 440.194152 419.811635 
L 431.251531 408.710567 
L 428.657928 404.086527 
L 432.842014 406.038032 
L 442.469888 413.6442 
L 455.163888 425.557746 
L 468.27664 440.447458 
L 479.36714 457.07865 
L 486.240433 473.927193 
L 486.768393 488.442391 
L 479.040686 496.445705 
L 462.400402 492.659527 
L 439.412111 473.977269 
L 418.451866 447.96133 
L 419.4 450.895361 
L 424.799597 451.482519 
L 430.199193 452.069677 
L 435.59879 452.656835 
L 440.998386 453.243994 
L 446.397983 453.831152 
L 451.797579 454.41831 
L 457.197176 455.005468 
L 462.596773 455.592627 
L 467.996369 456.179785 
L 473.395966 456.766943 
L 478.795562 457.354101 
L 484.195159 457.941259 
L 489.594756 458.528418 
L 494.994352 459.115576 
L 500.393949 459.702734 
L 505.793545 460.289892 
L 511.193142 460.877051 
L 516.592738 461.464209 
L 521.992335 462.051367 
L 527.391932 462.638525 
L 532.791528 463.225684 
L 538.191125 463.812842 
L 543.590721 464.4 
L 493.737616 481.802534 
" clip-path="url(#p90b29764d3)" style="fill: none; stroke: #ffffff; stroke-width: 1.5; stroke-linecap: square"/>
   </g>
   <g id="line2d_19">
    <path d="M 533.735206 412.524677 
L 523.780263 392.655882 
L 521.638369 389.301266 
L 523.783874 393.112627 
L 522.542615 398.449922 
L 512.9879 401.989557 
L 495.286821 402.433583 
L 473.541512 400.273173 
L 453.277779 397.150127 
L 439.192662 394.956124 
L 433.891325 395.022018 
L 437.673421 397.66979 
L 449.074493 402.20469 
L 465.738926 407.241243 
L 485.190171 411.152364 
L 505.138456 412.441422 
L 523.166369 409.969597 
L 536.000879 403.169225 
L 539.068099 392.475177 
L 527.46903 379.957357 
L 499.795575 369.390042 
L 466.784988 364.245907 
L 469.8 363.6 
L 473.008292 367.982609 
L 476.216584 372.365217 
L 479.424877 376.747826 
L 482.633169 381.130435 
L 485.841461 385.513043 
L 489.049753 389.895652 
L 492.258046 394.278261 
L 495.466338 398.66087 
L 498.67463 403.043478 
L 501.882922 407.426087 
L 505.091215 411.808696 
L 508.299507 416.191304 
L 511.507799 420.573913 
L 514.716091 424.956522 
L 517.924384 429.33913 
L 521.132676 433.721739 
L 524.340968 438.104348 
L 527.54926 442.486957 
L 530.757552 446.869565 
L 533.965845 451.252174 
L 537.174137 455.634783 
L 540.382429 460.017391 
L 543.590721 464.4 
L 533.735206 412.524677 
" clip-path="url(#p90b29764d3)" style="fill: none; stroke: #ffffff; stroke-width: 1.5; stroke-linecap: square"/>
   </g>
   <g id="line2d_20">
    <path d="M 493.737616 245.397466 
L 471.553264 244.084301 
L 467.577133 244.261928 
L 471.950622 244.309547 
L 475.952225 248.053156 
L 474.240282 258.097599 
L 465.77428 273.649196 
L 453.030655 291.400981 
L 440.194152 307.388365 
L 431.251531 318.489433 
L 428.657928 323.113473 
L 432.842014 321.161968 
L 442.469888 313.5558 
L 455.163888 301.642254 
L 468.27664 286.752542 
L 479.36714 270.12135 
L 486.240433 253.272807 
L 486.768393 238.757609 
L 479.040686 230.754295 
L 462.400402 234.540473 
L 439.412111 253.222731 
L 418.451866 279.23867 
L 419.4 276.304639 
L 424.799597 275.717481 
L 430.199193 275.130323 
L 435.59879 274.543165 
L 440.998386 273.956006 
L 446.397983 273.368848 
L 451.797579 272.78169 
L 457.197176 272.194532 
L 462.596773 271.607373 
L 467.996369 271.020215 
L 473.395966 270.433057 
L 478.795562 269.845899 
L 484.195159 269.258741 
L 489.594756 268.671582 
L 494.994352 268.084424 
L 500.393949 267.497266 
L 505.793545 266.910108 
L 511.193142 266.322949 
L 516.592738 265.735791 
L 521.992335 265.148633 
L 527.391932 264.561475 
L 532.791528 263.974316 
L 538.191125 263.387158 
L 543.590721 262.8 
L 493.737616 245.397466 
" clip-path="url(#p90b29764d3)" style="fill: none; stroke: #ffffff; stroke-width: 1.5; stroke-linecap: square"/>
   </g>
   <g id="line2d_21">
    <path d="M 329.002411 196.472788 
L 316.773 215.028419 
L 314.938765 218.560662 
L 317.166748 214.796919 
L 322.40961 213.203234 
L 330.252382 219.708042 
L 339.487459 234.815613 
L 348.489143 254.727809 
L 355.916372 273.838239 
L 361.058869 287.13331 
L 363.766603 291.691455 
L 364.168593 287.092178 
L 362.395395 274.95111 
L 358.424962 258.001011 
L 352.08647 239.200179 
L 343.228684 221.279928 
L 332.074065 206.90321 
L 319.767515 199.188384 
L 308.972588 201.879118 
L 303.931372 218.183116 
L 308.616536 247.432689 
L 320.666878 278.592763 
L 318.6 276.304639 
L 320.791304 271.334872 
L 322.982609 266.365105 
L 325.173913 261.395339 
L 327.365217 256.425572 
L 329.556522 251.455805 
L 331.747826 246.486038 
L 333.93913 241.516271 
L 336.130435 236.546504 
L 338.321739 231.576737 
L 340.513043 226.60697 
L 342.704348 221.637203 
L 344.895652 216.667436 
L 347.086957 211.697669 
L 349.278261 206.727902 
L 351.469565 201.758135 
L 353.66087 196.788368 
L 355.852174 191.818602 
L 358.043478 186.848835 
L 360.234783 181.879068 
L 362.426087 176.909301 
L 364.617391 171.939534 
L 366.808696 166.969767 
L 369 162 
L 329.002411 196.472788 
" clip-path="url(#p90b29764d3)" style="fill: none; stroke: #ffffff; stroke-width: 1.5; stroke-linecap: square"/>
   </g>
   <g id="line2d_22">
    <path d="M 204.264794 314.675323 
L 214.219737 334.544118 
L 216.361631 337.898734 
L 214.216126 334.087373 
L 215.457385 328.750078 
L 225.0121 325.210443 
L 242.713179 324.766417 
L 264.458488 326.926827 
L 284.722221 330.049873 
L 298.807338 332.243876 
L 304.108675 332.177982 
L 300.326579 329.53021 
L 288.925507 324.99531 
L 272.261074 319.958757 
L 252.809829 316.047636 
L 232.861544 314.758578 
L 214.833631 317.230403 
L 201.999121 324.030775 
L 198.931901 334.724823 
L 210.53097 347.242643 
L 238.204425 357.809958 
L 271.215012 362.954093 
L 268.2 363.6 
L 264.991708 359.217391 
L 261.783416 354.834783 
L 258.575123 350.452174 
L 255.366831 346.069565 
L 252.158539 341.686957 
L 248.950247 337.304348 
L 245.741954 332.921739 
L 242.533662 328.53913 
L 239.32537 324.156522 
L 236.117078 319.773913 
L 232.908785 315.391304 
L 229.700493 311.008696 
L 226.492201 306.626087 
L 223.283909 302.243478 
L 220.075616 297.86087 
L 216.867324 293.478261 
L 213.659032 289.095652 
L 210.45074 284.713043 
L 207.242448 280.330435 
L 204.034155 275.947826 
L 200.825863 271.565217 
L 197.617571 267.182609 
L 194.409279 262.8 
L 204.264794 314.675323 
" clip-path="url(#p90b29764d3)" style="fill: none; stroke: #ffffff; stroke-width: 1.5; stroke-linecap: square"/>
   </g>
   <g id="line2d_23">
    <path d="M 244.262384 481.802534 
L 266.446736 483.115699 
L 270.422867 482.938072 
L 266.049378 482.890453 
L 262.047775 479.146844 
L 263.759718 469.102401 
L 272.22572 453.550804 
L 284.969345 435.799019 
L 297.805848 419.811635 
L 306.748469 408.710567 
L 309.342072 404.086527 
L 305.157986 406.038032 
L 295.530112 413.6442 
L 282.836112 425.557746 
L 269.72336 440.447458 
L 258.63286 457.07865 
L 251.759567 473.927193 
L 251.231607 488.442391 
L 258.959314 496.445705 
L 275.599598 492.659527 
L 298.587889 473.977269 
L 319.548134 447.96133 
L 318.6 450.895361 
L 313.200403 451.482519 
L 307.800807 452.069677 
L 302.40121 452.656835 
L 297.001614 453.243994 
L 291.602017 453.831152 
L 286.202421 454.41831 
L 280.802824 455.005468 
L 275.403227 455.592627 
L 270.003631 456.179785 
L 264.604034 456.766943 
L 259.204438 457.354101 
L 253.804841 457.941259 
L 248.405244 458.528418 
L 243.005648 459.115576 
L 237.606051 459.702734 
L 232.206455 460.289892 
L 226.806858 460.877051 
L 221.407262 461.464209 
L 216.007665 462.051367 
L 210.608068 462.638525 
L 205.208472 463.225684 
L 199.808875 463.812842 
L 194.409279 464.4 
L 244.262384 481.802534 
" clip-path="url(#p90b29764d3)" style="fill: none; stroke: #ffffff; stroke-width: 1.5; stroke-linecap: square"/>
   </g>
   <g id="line2d_24">
    <path d="M 408.997589 530.727212 
L 421.227 512.171581 
L 423.061235 508.639338 
L 420.833252 512.403081 
L 415.59039 513.996766 
L 407.747618 507.491958 
L 398.512541 492.384387 
L 389.510857 472.472191 
L 382.083628 453.361761 
L 376.941131 440.06669 
L 374.233397 435.508545 
L 373.831407 440.107822 
L 375.604605 452.24889 
L 379.575038 469.198989 
L 385.91353 487.999821 
L 394.771316 505.920072 
L 405.925935 520.29679 
L 418.232485 528.011616 
L 429.027412 525.320882 
L 434.068628 509.016884 
L 429.383464 479.767311 
L 417.333122 448.607237 
L 419.4 450.895361 
L 417.208696 455.865128 
L 415.017391 460.834895 
L 412.826087 465.804661 
L 410.634783 470.774428 
L 408.443478 475.744195 
L 406.252174 480.713962 
L 404.06087 485.683729 
L 401.869565 490.653496 
L 399.678261 495.623263 
L 397.486957 500.59303 
L 395.295652 505.562797 
L 393.104348 510.532564 
L 390.913043 515.502331 
L 388.721739 520.472098 
L 386.530435 525.441865 
L 384.33913 530.411632 
L 382.147826 535.381398 
L 379.956522 540.351165 
L 377.765217 545.320932 
L 375.573913 550.290699 
L 373.382609 555.260466 
L 371.191304 560.230233 
L 369 565.2 
L 408.997589 530.727212 
" clip-path="url(#p90b29764d3)" style="fill: none; stroke: #ffffff; stroke-width: 1.5; stroke-linecap: square"/>
   </g>
   <g id="line2d_25">
    <path d="M 414.367476 344.240718 
L 428.49961 332.346701 
L 435.48981 326.564517 
L 442.406747 321.789868 
L 451.592407 316.183925 
L 460.628871 310.987779 
L 465.854126 308.428976 
L 465.33892 309.998788 
L 460.049978 315.748089 
L 453.312778 324.459713 
L 449.255196 334.274773 
L 451.032328 343.362036 
L 459.516384 350.371603 
L 472.892836 354.600989 
L 487.288252 355.952808 
L 498.210693 354.83627 
L 502.281726 352.13855 
L 498.587639 349.265274 
L 489.091643 348.050649 
L 477.988199 350.162584 
L 470.58041 355.717945 
L 473.027691 361.710296 
L 495 363.6 
L 490.617391 363.6 
L 486.234783 363.6 
L 481.852174 363.6 
L 477.469565 363.6 
L 473.086957 363.6 
L 468.704348 363.6 
L 464.321739 363.6 
L 459.93913 363.6 
L 455.556522 363.6 
L 451.173913 363.6 
L 446.791304 363.6 
L 442.408696 363.6 
L 438.026087 363.6 
L 433.643478 363.6 
L 429.26087 363.6 
L 424.878261 363.6 
L 420.495652 363.6 
L 416.113043 363.6 
L 411.730435 363.6 
L 407.347826 363.6 
L 402.965217 363.6 
L 398.582609 363.6 
L 394.2 363.6 
L 414.367476 344.240718 
" clip-path="url(#p90b29764d3)" style="fill: none; stroke: #000000; stroke-width: 1.5; stroke-linecap: square"/>
   </g>
   <g id="line2d_26">
    <path d="M 374.918108 314.630972 
L 371.683655 296.445177 
L 370.171236 287.500394 
L 369.494737 279.122827 
L 369.232678 268.36484 
L 369.250916 257.94096 
L 369.647555 252.136354 
L 370.749449 253.367442 
L 373.084018 260.82245 
L 377.259906 271.012849 
L 383.731206 279.434348 
L 392.489573 282.438938 
L 402.802064 278.596314 
L 413.153046 269.12666 
L 421.521464 257.335773 
L 426.015734 247.318392 
L 425.714957 242.443914 
L 421.379582 244.206449 
L 415.579688 251.82291 
L 411.856956 262.494743 
L 412.964145 271.687757 
L 419.377314 272.564525 
L 432 254.480799 
L 429.808696 258.27625 
L 427.617391 262.0717 
L 425.426087 265.867151 
L 423.234783 269.662601 
L 421.043478 273.458051 
L 418.852174 277.253502 
L 416.66087 281.048952 
L 414.469565 284.844403 
L 412.278261 288.639853 
L 410.086957 292.435304 
L 407.895652 296.230754 
L 405.704348 300.026205 
L 403.513043 303.821655 
L 401.321739 307.617106 
L 399.130435 311.412556 
L 396.93913 315.208007 
L 394.747826 319.003457 
L 392.556522 322.798907 
L 390.365217 326.594358 
L 388.173913 330.389808 
L 385.982609 334.185259 
L 383.791304 337.980709 
L 381.6 341.77616 
L 374.918108 314.630972 
" clip-path="url(#p90b29764d3)" style="fill: none; stroke: #000000; stroke-width: 1.5; stroke-linecap: square"/>
   </g>
   <g id="line2d_27">
    <path d="M 329.550632 333.990254 
L 312.184044 327.698475 
L 303.681426 324.535877 
L 296.08799 320.932959 
L 286.640271 315.780915 
L 277.622045 310.553181 
L 272.793429 307.307378 
L 274.410528 306.968654 
L 282.03404 308.674362 
L 292.947128 310.153136 
L 303.476011 308.759575 
L 310.457245 302.676902 
L 312.28568 291.824711 
L 309.26021 278.12567 
L 303.233212 264.982965 
L 296.805041 256.082122 
L 292.43323 253.905364 
L 291.791943 258.541176 
L 295.488045 267.372262 
L 302.868757 275.932159 
L 311.383735 279.569812 
L 315.349623 274.454229 
L 306 254.480799 
L 308.191304 258.27625 
L 310.382609 262.0717 
L 312.573913 265.867151 
L 314.765217 269.662601 
L 316.956522 273.458051 
L 319.147826 277.253502 
L 321.33913 281.048952 
L 323.530435 284.844403 
L 325.721739 288.639853 
L 327.913043 292.435304 
L 330.104348 296.230754 
L 332.295652 300.026205 
L 334.486957 303.821655 
L 336.678261 307.617106 
L 338.869565 311.412556 
L 341.06087 315.208007 
L 343.252174 319.003457 
L 345.443478 322.798907 
L 347.634783 326.594358 
L 349.826087 330.389808 
L 352.017391 334.185259 
L 354.208696 337.980709 
L 356.4 341.77616 
L 329.550632 333.990254 
" clip-path="url(#p90b29764d3)" style="fill: none; stroke: #000000; stroke-width: 1.5; stroke-linecap: square"/>
   </g>
   <g id="line2d_28">
    <path d="M 323.632524 382.959282 
L 309.50039 394.853299 
L 302.51019 400.635483 
L 295.593253 405.410132 
L 286.407593 411.016075 
L 277.371129 416.212221 
L 272.145874 418.771024 
L 272.66108 417.201212 
L 277.950022 411.451911 
L 284.687222 402.740287 
L 288.744804 392.925227 
L 286.967672 383.837964 
L 278.483616 376.828397 
L 265.107164 372.599011 
L 250.711748 371.247192 
L 239.789307 372.36373 
L 235.718274 375.06145 
L 239.412361 377.934726 
L 248.908357 379.149351 
L 260.011801 377.037416 
L 267.41959 371.482055 
L 264.972309 365.489704 
L 243 363.6 
L 247.382609 363.6 
L 251.765217 363.6 
L 256.147826 363.6 
L 260.530435 363.6 
L 264.913043 363.6 
L 269.295652 363.6 
L 273.678261 363.6 
L 278.06087 363.6 
L 282.443478 363.6 
L 286.826087 363.6 
L 291.208696 363.6 
L 295.591304 363.6 
L 299.973913 363.6 
L 304.356522 363.6 
L 308.73913 363.6 
L 313.121739 363.6 
L 317.504348 363.6 
L 321.886957 363.6 
L 326.269565 363.6 
L 330.652174 363.6 
L 335.034783 363.6 
L 339.417391 363.6 
L 343.8 363.6 
L 323.632524 382.959282 
" clip-path="url(#p90b29764d3)" style="fill: none; stroke: #000000; stroke-width: 1.5; stroke-linecap: square"/>
   </g>
   <g id="line2d_29">
    <path d="M 363.081892 412.569028 
L 366.316345 430.754823 
L 367.828764 439.699606 
L 368.505263 448.077173 
L 368.767322 458.83516 
L 368.749084 469.25904 
L 368.352445 475.063646 
L 367.250551 473.832558 
L 364.915982 466.37755 
L 360.740094 456.187151 
L 354.268794 447.765652 
L 345.510427 444.761062 
L 335.197936 448.603686 
L 324.846954 458.07334 
L 316.478536 469.864227 
L 311.984266 479.881608 
L 312.285043 484.756086 
L 316.620418 482.993551 
L 322.420312 475.37709 
L 326.143044 464.705257 
L 325.035855 455.512243 
L 318.622686 454.635475 
L 306 472.719201 
L 308.191304 468.92375 
L 310.382609 465.1283 
L 312.573913 461.332849 
L 314.765217 457.537399 
L 316.956522 453.741949 
L 319.147826 449.946498 
L 321.33913 446.151048 
L 323.530435 442.355597 
L 325.721739 438.560147 
L 327.913043 434.764696 
L 330.104348 430.969246 
L 332.295652 427.173795 
L 334.486957 423.378345 
L 336.678261 419.582894 
L 338.869565 415.787444 
L 341.06087 411.991993 
L 343.252174 408.196543 
L 345.443478 404.401093 
L 347.634783 400.605642 
L 349.826087 396.810192 
L 352.017391 393.014741 
L 354.208696 389.219291 
L 356.4 385.42384 
L 363.081892 412.569028 
" clip-path="url(#p90b29764d3)" style="fill: none; stroke: #000000; stroke-width: 1.5; stroke-linecap: square"/>
   </g>
   <g id="line2d_30">
    <path d="M 408.449368 393.209746 
L 425.815956 399.501525 
L 434.318574 402.664123 
L 441.91201 406.267041 
L 451.359729 411.419085 
L 460.377955 416.646819 
L 465.206571 419.892622 
L 463.589472 420.231346 
L 455.96596 418.525638 
L 445.052872 417.046864 
L 434.523989 418.440425 
L 427.542755 424.523098 
L 425.71432 435.375289 
L 428.73979 449.07433 
L 434.766788 462.217035 
L 441.194959 471.117878 
L 445.56677 473.294636 
L 446.208057 468.658824 
L 442.511955 459.827738 
L 435.131243 451.267841 
L 426.616265 447.630188 
L 422.650377 452.745771 
L 432 472.719201 
L 429.808696 468.92375 
L 427.617391 465.1283 
L 425.426087 461.332849 
L 423.234783 457.537399 
L 421.043478 453.741949 
L 418.852174 449.946498 
L 416.66087 446.151048 
L 414.469565 442.355597 
L 412.278261 438.560147 
L 410.086957 434.764696 
L 407.895652 430.969246 
L 405.704348 427.173795 
L 403.513043 423.378345 
L 401.321739 419.582894 
L 399.130435 415.787444 
L 396.93913 411.991993 
L 394.747826 408.196543 
L 392.556522 404.401093 
L 390.365217 400.605642 
L 388.173913 396.810192 
L 385.982609 393.014741 
L 383.791304 389.219291 
L 381.6 385.42384 
L 408.449368 393.209746 
" clip-path="url(#p90b29764d3)" style="fill: none; stroke: #000000; stroke-width: 1.5; stroke-linecap: square"/>
   </g>
   <g id="line2d_31">
    <path d="M 414.367476 382.959282 
L 428.49961 394.853299 
L 435.48981 400.635483 
L 442.406747 405.410132 
L 451.592407 411.016075 
L 460.628871 416.212221 
L 465.854126 418.771024 
L 465.33892 417.201212 
L 460.049978 411.451911 
L 453.312778 402.740287 
L 449.255196 392.925227 
L 451.032328 383.837964 
L 459.516384 376.828397 
L 472.892836 372.599011 
L 487.288252 371.247192 
L 498.210693 372.36373 
L 502.281726 375.06145 
L 498.587639 377.934726 
L 489.091643 379.149351 
L 477.988199 377.037416 
L 470.58041 371.482055 
L 473.027691 365.489704 
L 495 363.6 
L 490.617391 363.6 
L 486.234783 363.6 
L 481.852174 363.6 
L 477.469565 363.6 
L 473.086957 363.6 
L 468.704348 363.6 
L 464.321739 363.6 
L 459.93913 363.6 
L 455.556522 363.6 
L 451.173913 363.6 
L 446.791304 363.6 
L 442.408696 363.6 
L 438.026087 363.6 
L 433.643478 363.6 
L 429.26087 363.6 
L 424.878261 363.6 
L 420.495652 363.6 
L 416.113043 363.6 
L 411.730435 363.6 
L 407.347826 363.6 
L 402.965217 363.6 
L 398.582609 363.6 
L 394.2 363.6 
L 414.367476 382.959282 
" clip-path="url(#p90b29764d3)" style="fill: none; stroke: #000000; stroke-width: 1.5; stroke-linecap: square"/>
   </g>
   <g id="line2d_32">
    <path d="M 408.449368 333.990254 
L 425.815956 327.698475 
L 434.318574 324.535877 
L 441.91201 320.932959 
L 451.359729 315.780915 
L 460.377955 310.553181 
L 465.206571 307.307378 
L 463.589472 306.968654 
L 455.96596 308.674362 
L 445.052872 310.153136 
L 434.523989 308.759575 
L 427.542755 302.676902 
L 425.71432 291.824711 
L 428.73979 278.12567 
L 434.766788 264.982965 
L 441.194959 256.082122 
L 445.56677 253.905364 
L 446.208057 258.541176 
L 442.511955 267.372262 
L 435.131243 275.932159 
L 426.616265 279.569812 
L 422.650377 274.454229 
L 432 254.480799 
L 429.808696 258.27625 
L 427.617391 262.0717 
L 425.426087 265.867151 
L 423.234783 269.662601 
L 421.043478 273.458051 
L 418.852174 277.253502 
L 416.66087 281.048952 
L 414.469565 284.844403 
L 412.278261 288.639853 
L 410.086957 292.435304 
L 407.895652 296.230754 
L 405.704348 300.026205 
L 403.513043 303.821655 
L 401.321739 307.617106 
L 399.130435 311.412556 
L 396.93913 315.208007 
L 394.747826 319.003457 
L 392.556522 322.798907 
L 390.365217 326.594358 
L 388.173913 330.389808 
L 385.982609 334.185259 
L 383.791304 337.980709 
L 381.6 341.77616 
L 408.449368 333.990254 
" clip-path="url(#p90b29764d3)" style="fill: none; stroke: #000000; stroke-width: 1.5; stroke-linecap: square"/>
   </g>
   <g id="line2d_33">
    <path d="M 363.081892 314.630972 
L 366.316345 296.445177 
L 367.828764 287.500394 
L 368.505263 279.122827 
L 368.767322 268.36484 
L 368.749084 257.94096 
L 368.352445 252.136354 
L 367.250551 253.367442 
L 364.915982 260.82245 
L 360.740094 271.012849 
L 354.268794 279.434348 
L 345.510427 282.438938 
L 335.197936 278.596314 
L 324.846954 269.12666 
L 316.478536 257.335773 
L 311.984266 247.318392 
L 312.285043 242.443914 
L 316.620418 244.206449 
L 322.420312 251.82291 
L 326.143044 262.494743 
L 325.035855 271.687757 
L 318.622686 272.564525 
L 306 254.480799 
L 308.191304 258.27625 
L 310.382609 262.0717 
L 312.573913 265.867151 
L 314.765217 269.662601 
L 316.956522 273.458051 
L 319.147826 277.253502 
L 321.33913 281.048952 
L 323.530435 284.844403 
L 325.721739 288.639853 
L 327.913043 292.435304 
L 330.104348 296.230754 
L 332.295652 300.026205 
L 334.486957 303.821655 
L 336.678261 307.617106 
L 338.869565 311.412556 
L 341.06087 315.208007 
L 343.252174 319.003457 
L 345.443478 322.798907 
L 347.634783 326.594358 
L 349.826087 330.389808 
L 352.017391 334.185259 
L 354.208696 337.980709 
L 356.4 341.77616 
L 363.081892 314.630972 
" clip-path="url(#p90b29764d3)" style="fill: none; stroke: #000000; stroke-width: 1.5; stroke-linecap: square"/>
   </g>
   <g id="line2d_34">
    <path d="M 323.632524 344.240718 
L 309.50039 332.346701 
L 302.51019 326.564517 
L 295.593253 321.789868 
L 286.407593 316.183925 
L 277.371129 310.987779 
L 272.145874 308.428976 
L 272.66108 309.998788 
L 277.950022 315.748089 
L 284.687222 324.459713 
L 288.744804 334.274773 
L 286.967672 343.362036 
L 278.483616 350.371603 
L 265.107164 354.600989 
L 250.711748 355.952808 
L 239.789307 354.83627 
L 235.718274 352.13855 
L 239.412361 349.265274 
L 248.908357 348.050649 
L 260.011801 350.162584 
L 267.41959 355.717945 
L 264.972309 361.710296 
L 243 363.6 
L 247.382609 363.6 
L 251.765217 363.6 
L 256.147826 363.6 
L 260.530435 363.6 
L 264.913043 363.6 
L 269.295652 363.6 
L 273.678261 363.6 
L 278.06087 363.6 
L 282.443478 363.6 
L 286.826087 363.6 
L 291.208696 363.6 
L 295.591304 363.6 
L 299.973913 363.6 
L 304.356522 363.6 
L 308.73913 363.6 
L 313.121739 363.6 
L 317.504348 363.6 
L 321.886957 363.6 
L 326.269565 363.6 
L 330.652174 363.6 
L 335.034783 363.6 
L 339.417391 363.6 
L 343.8 363.6 
L 323.632524 344.240718 
" clip-path="url(#p90b29764d3)" style="fill: none; stroke: #000000; stroke-width: 1.5; stroke-linecap: square"/>
   </g>
   <g id="line2d_35">
    <path d="M 329.550632 393.209746 
L 312.184044 399.501525 
L 303.681426 402.664123 
L 296.08799 406.267041 
L 286.640271 411.419085 
L 277.622045 416.646819 
L 272.793429 419.892622 
L 274.410528 420.231346 
L 282.03404 418.525638 
L 292.947128 417.046864 
L 303.476011 418.440425 
L 310.457245 424.523098 
L 312.28568 435.375289 
L 309.26021 449.07433 
L 303.233212 462.217035 
L 296.805041 471.117878 
L 292.43323 473.294636 
L 291.791943 468.658824 
L 295.488045 459.827738 
L 302.868757 451.267841 
L 311.383735 447.630188 
L 315.349623 452.745771 
L 306 472.719201 
L 308.191304 468.92375 
L 310.382609 465.1283 
L 312.573913 461.332849 
L 314.765217 457.537399 
L 316.956522 453.741949 
L 319.147826 449.946498 
L 321.33913 446.151048 
L 323.530435 442.355597 
L 325.721739 438.560147 
L 327.913043 434.764696 
L 330.104348 430.969246 
L 332.295652 427.173795 
L 334.486957 423.378345 
L 336.678261 419.582894 
L 338.869565 415.787444 
L 341.06087 411.991993 
L 343.252174 408.196543 
L 345.443478 404.401093 
L 347.634783 400.605642 
L 349.826087 396.810192 
L 352.017391 393.014741 
L 354.208696 389.219291 
L 356.4 385.42384 
L 329.550632 393.209746 
" clip-path="url(#p90b29764d3)" style="fill: none; stroke: #000000; stroke-width: 1.5; stroke-linecap: square"/>
   </g>
   <g id="line2d_36">
    <path d="M 374.918108 412.569028 
L 371.683655 430.754823 
L 370.171236 439.699606 
L 369.494737 448.077173 
L 369.232678 458.83516 
L 369.250916 469.25904 
L 369.647555 475.063646 
L 370.749449 473.832558 
L 373.084018 466.37755 
L 377.259906 456.187151 
L 383.731206 447.765652 
L 392.489573 444.761062 
L 402.802064 448.603686 
L 413.153046 458.07334 
L 421.521464 469.864227 
L 426.015734 479.881608 
L 425.714957 484.756086 
L 421.379582 482.993551 
L 415.579688 475.37709 
L 411.856956 464.705257 
L 412.964145 455.512243 
L 419.377314 454.635475 
L 432 472.719201 
L 429.808696 468.92375 
L 427.617391 465.1283 
L 425.426087 461.332849 
L 423.234783 457.537399 
L 421.043478 453.741949 
L 418.852174 449.946498 
L 416.66087 446.151048 
L 414.469565 442.355597 
L 412.278261 438.560147 
L 410.086957 434.764696 
L 407.895652 430.969246 
L 405.704348 427.173795 
L 403.513043 423.378345 
L 401.321739 419.582894 
L 399.130435 415.787444 
L 396.93913 411.991993 
L 394.747826 408.196543 
L 392.556522 404.401093 
L 390.365217 400.605642 
L 388.173913 396.810192 
L 385.982609 393.014741 
L 383.791304 389.219291 
L 381.6 385.42384 
L 374.918108 412.569028 
" clip-path="url(#p90b29764d3)" style="fill: none; stroke: #000000; stroke-width: 1.5; stroke-linecap: square"/>
   </g>
  </g>
 </g>
 <defs>
  <clipPath id="p90b29764d3">
   <rect x="128.937758" y="86.4" width="480.124484" height="554.4"/>
  </clipPath>
 </defs>
</svg>
